M48
INCH,LZ
;FILE_FORMAT=2:4
;TYPE=PLATED
;Layer: Drill PTH
;EasyEDA v6.4.19.5, 2021-05-16T17:52:14+02:00
;c7de764b28da46dab1ebef90a77263ec,763424db4a57434484c59f209b4bf891,10
;Gerber Generator version 0.2
;Holesize 1 = 0.0120 inch
T01C0.0120
;Holesize 2 = 0.0200 inch
T02C0.0200
;Holesize 3 = 0.0300 inch
T03C0.0300
;Holesize 4 = 0.0350 inch
T04C0.0350
;Holesize 5 = 0.0360 inch
T05C0.0360
;Holesize 6 = 0.0430 inch
T06C0.0430
%
G05
G90
T01
X037795Y-081260
X034882Y-081260
X034882Y-082205
X041260Y-081376
X037716Y-083386
X042598Y-083386
X035276Y-082520
X042598Y-082756
X040157Y-083149
X041339Y-078897
X040394Y-078897
X044961Y-083937
X025669Y-079842
X034331Y-079842
X024724Y-086220
X026378Y-084567
X022844Y-085857
X019606Y-085669
X005905Y-015984
X004646Y-015984
X004252Y-042126
X005669Y-042126
X004252Y-043386
X004646Y-043386
X005669Y-052362
X004567Y-052362
X005905Y-067953
X004646Y-067953
X004646Y-075905
X004252Y-075905
X003858Y-075905
X003465Y-075905
X004646Y-077086
X004252Y-077086
X003858Y-077086
X003465Y-077086
X005748Y-079842
X005748Y-080236
X005748Y-080630
X005748Y-081024
X009685Y-079842
X009685Y-080236
X009685Y-080630
X009685Y-081024
X017638Y-080394
X017244Y-080394
X016850Y-080394
X016457Y-080394
X017638Y-081811
X017244Y-081811
X016850Y-081811
X016457Y-081811
X017795Y-083937
X017795Y-083543
X017795Y-083149
X017795Y-082756
X018425Y-083937
X018425Y-083543
X018425Y-083149
X018425Y-082756
X020630Y-078976
X020630Y-079449
X009685Y-079449
X005905Y-077716
X011890Y-076299
X016063Y-076299
X020315Y-075984
X024567Y-075984
X024961Y-079370
X026142Y-079449
X026929Y-079449
X031339Y-079449
X035748Y-079449
X035748Y-079055
X031339Y-079055
X026929Y-079055
X026142Y-079055
X024646Y-078661
X024567Y-076378
X020866Y-076614
X029291Y-076457
X033228Y-076457
X036929Y-077022
X007559Y-078819
X007086Y-076142
X008346Y-079764
X077638Y-079850
X068977Y-079850
X060315Y-079850
X057717Y-079850
X053858Y-079850
X051654Y-079850
X049055Y-079850
X046693Y-079850
X044961Y-079850
X083149Y-036142
X075197Y-036929
X070630Y-037638
X070630Y-039055
X039343Y-076022
X040748Y-076220
X039343Y-071691
X040748Y-071890
X039343Y-067360
X040748Y-067559
X039343Y-063029
X040748Y-063228
X039343Y-058699
X040748Y-058897
X039343Y-054368
X040748Y-054567
X039343Y-050037
X040748Y-050236
X039343Y-045707
X040748Y-045905
X039343Y-041376
X040748Y-041575
X039343Y-037045
X040748Y-037244
X039343Y-032715
X040748Y-032913
X039343Y-028384
X040748Y-028583
X039342Y-024053
X040748Y-024252
X039342Y-019722
X040748Y-019921
X035315Y-013484
X026653Y-013780
X009331Y-014173
X017992Y-013976
X009331Y-005512
X017992Y-005315
X026654Y-005118
X035315Y-004823
X035315Y-022146
X035315Y-030807
X035315Y-039468
X035315Y-048130
X035315Y-056791
X035315Y-065453
X026653Y-022441
X026653Y-031102
X026653Y-039764
X026653Y-048425
X026653Y-057086
X026653Y-065748
X017992Y-022638
X017992Y-031299
X017992Y-039960
X017992Y-048622
X017992Y-057283
X017992Y-065945
X009331Y-022835
X009331Y-031496
X009331Y-040157
X009331Y-048819
X009331Y-057480
X009331Y-066142
X009331Y-074803
X017992Y-074606
X026653Y-074409
X035315Y-074114
X043976Y-004823
X043976Y-013484
X052638Y-005118
X052638Y-013780
X061299Y-005315
X061299Y-013976
X069960Y-014174
X069961Y-005512
X043976Y-022145
X043976Y-030807
X043976Y-039468
X043976Y-048130
X043976Y-056791
X043976Y-065452
X043976Y-074114
X052638Y-022440
X061299Y-022637
X069960Y-022835
X052638Y-031102
X061299Y-031299
X069960Y-031497
X052638Y-039763
X061299Y-039960
X069960Y-040158
X052638Y-048425
X061299Y-048622
X069960Y-048820
X052638Y-057086
X061299Y-057283
X069960Y-057481
X052638Y-065747
X061299Y-065944
X069960Y-066142
X052638Y-074409
X061299Y-074606
X069960Y-074804
X040945Y-004921
X040945Y-005709
X040748Y-013750
X040748Y-014882
X040748Y-022411
X040748Y-023543
X040748Y-031073
X040748Y-032205
X040748Y-039734
X040748Y-040866
X040748Y-048396
X040748Y-049528
X040748Y-057057
X040748Y-058189
X040748Y-065718
X040748Y-066850
X040748Y-074380
X040748Y-075512
X041260Y-011417
X042205Y-011417
X042205Y-020079
X041260Y-020079
X042205Y-028740
X041260Y-028740
X042205Y-037401
X041260Y-037401
X042205Y-046063
X041260Y-046063
X042205Y-054724
X041260Y-054724
X042205Y-063386
X041260Y-063386
X042205Y-072047
X041260Y-072047
X040709Y-002126
X039370Y-002047
X040630Y-005984
X039527Y-005724
X040748Y-015236
X039527Y-014386
X040748Y-019567
X039527Y-018716
X040748Y-023897
X039527Y-023047
X040748Y-028228
X039527Y-027378
X040748Y-032559
X039527Y-031709
X040748Y-036890
X039527Y-036039
X040748Y-041220
X039527Y-040370
X040748Y-045551
X039527Y-044701
X040748Y-049882
X039527Y-049031
X040748Y-054213
X039527Y-053362
X040748Y-058543
X039527Y-057693
X040748Y-062874
X039527Y-062024
X040748Y-067205
X039527Y-066354
X040748Y-071535
X039527Y-070685
X040748Y-075866
X039527Y-075016
X040748Y-010905
X039527Y-010055
X040748Y-015591
X039342Y-015392
X040748Y-011260
X039343Y-011061
X040748Y-006929
X039343Y-006730
X040748Y-002598
X039343Y-002400
X037244Y-042876
X037244Y-051537
X037244Y-060199
X037244Y-068860
X037244Y-077522
X065354Y-005315
X064961Y-005315
X064567Y-005315
X064567Y-006299
X064960Y-006299
X065354Y-006299
X064567Y-008465
X064960Y-008465
X065354Y-008465
X064567Y-009449
X064960Y-009449
X065354Y-009449
X064567Y-012795
X064960Y-012795
X065354Y-012795
X064567Y-015157
X064960Y-015157
X065354Y-015157
X064567Y-017126
X064960Y-017126
X065354Y-017126
X064567Y-018110
X064960Y-018110
X065354Y-018110
X064567Y-021457
X064960Y-021457
X065354Y-021457
X064567Y-023819
X064960Y-023819
X065354Y-023819
X064567Y-025787
X064960Y-025787
X065354Y-025787
X064567Y-026772
X064960Y-026772
X065354Y-026772
X064567Y-030118
X064960Y-030118
X065354Y-030118
X064567Y-032480
X064960Y-032480
X065354Y-032480
X064567Y-034449
X064960Y-034449
X065354Y-034449
X064567Y-035433
X064960Y-035433
X065354Y-035433
X067126Y-038780
X067126Y-038386
X067126Y-037992
X068110Y-037992
X068110Y-038386
X068110Y-038780
X074016Y-038583
X074409Y-038386
X075197Y-038583
X075590Y-038386
X078740Y-038780
X078740Y-038386
X078740Y-037992
X079724Y-038780
X079724Y-038386
X079724Y-037992
X079331Y-041732
X079331Y-039961
X072835Y-035433
X073228Y-035433
X073622Y-035433
X072835Y-034449
X073228Y-034449
X073622Y-034449
X073622Y-032480
X073228Y-032480
X072835Y-032480
X073622Y-031299
X073228Y-031299
X072835Y-031299
X073228Y-026772
X072835Y-026772
X073228Y-025787
X072835Y-025787
X072835Y-023819
X073228Y-023819
X073228Y-022638
X072835Y-022638
X072835Y-018110
X072835Y-017126
X072835Y-015157
X072835Y-013976
X072638Y-040157
X073031Y-040157
X073425Y-040157
X073819Y-040157
X072638Y-041142
X073031Y-041142
X073425Y-041142
X073819Y-041142
X073819Y-043110
X073425Y-043110
X073031Y-043110
X072638Y-043110
X073819Y-044095
X073425Y-044095
X073031Y-044095
X072638Y-044095
X072638Y-048622
X073031Y-048622
X073425Y-048622
X073425Y-049803
X073031Y-049803
X072638Y-049803
X072638Y-051772
X073031Y-051772
X073425Y-051772
X073425Y-052756
X073031Y-052756
X072638Y-052756
X073031Y-057284
X072638Y-057284
X073031Y-058465
X072638Y-058465
X073031Y-060433
X072638Y-060433
X073031Y-061417
X072638Y-061417
X072638Y-065945
X072638Y-067126
X072638Y-069095
X072638Y-070079
X080079Y-033622
X083071Y-034646
X080118Y-025984
X082677Y-025984
X080118Y-017323
X082283Y-017323
X080118Y-008661
X081890Y-008661
X080118Y-043307
X083071Y-043307
X080000Y-051024
X082677Y-051968
X079921Y-060630
X082283Y-060630
X081890Y-069291
X080157Y-068346
X037244Y-008230
X037244Y-016892
X037244Y-025553
X037244Y-034215
X041496Y-080000
X041260Y-080876
X040117Y-080872
X040117Y-081377
X040117Y-081877
X040117Y-082385
X041260Y-081876
X041260Y-082376
X007402Y-013228
X007953Y-012677
X008347Y-010472
X010630Y-010472
X014567Y-010472
X016142Y-010472
X017008Y-010472
X018661Y-010472
X024803Y-010473
X027323Y-010473
X023228Y-010473
X025669Y-010473
X031890Y-010473
X033465Y-010473
X014567Y-019134
X016142Y-019134
X017008Y-019134
X018661Y-019134
X023228Y-019134
X024803Y-019134
X025669Y-019134
X027323Y-019134
X031890Y-019134
X033465Y-019134
X008347Y-019134
X010630Y-019134
X007087Y-015512
X007559Y-018189
X007402Y-030551
X007953Y-030000
X007087Y-032835
X008347Y-027795
X010630Y-027795
X014567Y-027795
X016142Y-027795
X017008Y-027795
X018661Y-027795
X023228Y-027795
X024803Y-027795
X025669Y-027795
X027323Y-027795
X031890Y-027795
X033465Y-027795
X033465Y-036457
X031890Y-036457
X027323Y-036457
X025669Y-036457
X024803Y-036457
X023228Y-036457
X018661Y-036457
X017008Y-036457
X016142Y-036457
X014567Y-036457
X008347Y-036457
X007559Y-035512
X007402Y-047874
X007953Y-047323
X007087Y-050157
X008347Y-045118
X010630Y-045118
X014567Y-045118
X016142Y-045118
X017008Y-045118
X018661Y-045118
X023228Y-045118
X024803Y-045118
X025669Y-045118
X027323Y-045118
X031890Y-045118
X033465Y-045118
X033465Y-053780
X031890Y-053780
X027323Y-053780
X025669Y-053780
X024803Y-053780
X023228Y-053780
X018661Y-053780
X017008Y-053780
X016142Y-053780
X014567Y-053780
X008347Y-053780
X007559Y-052835
X010630Y-053780
X010630Y-036457
X007402Y-065197
X007953Y-064646
X007087Y-067480
X008347Y-062441
X010630Y-062441
X014567Y-062441
X016142Y-062441
X017008Y-062441
X018661Y-062441
X023228Y-062441
X024803Y-062441
X025669Y-062441
X027323Y-062441
X031890Y-062441
X033465Y-062441
X033465Y-071103
X031890Y-071103
X027323Y-071103
X025669Y-071103
X024803Y-071103
X023228Y-071103
X018661Y-071103
X017008Y-071103
X016142Y-071103
X014567Y-071103
X008347Y-071103
X007559Y-070157
X010630Y-071103
X079842Y-010551
X077638Y-010551
X068976Y-010551
X060315Y-010551
X057716Y-010551
X053858Y-010551
X051653Y-010551
X049055Y-010551
X044960Y-010551
X046693Y-010551
X077638Y-019213
X079291Y-019213
X079291Y-017945
X079291Y-016759
X079842Y-015984
X079842Y-014567
X068976Y-019213
X060315Y-019213
X057716Y-019213
X053858Y-019213
X051653Y-019213
X049055Y-019213
X046693Y-019213
X044961Y-019213
X044960Y-027874
X046693Y-027874
X049055Y-027874
X051653Y-027874
X053858Y-027874
X057716Y-027874
X060315Y-027874
X068976Y-027874
X077638Y-027874
X079842Y-027874
X079842Y-031890
X079291Y-034082
X079606Y-035669
X079606Y-036535
X077638Y-036536
X068976Y-036536
X060315Y-036536
X057716Y-036536
X053858Y-036536
X051653Y-036536
X049055Y-036536
X046693Y-036536
X044961Y-036536
X079842Y-033307
X044960Y-045197
X046693Y-045197
X049055Y-045197
X051653Y-045197
X053858Y-045197
X057716Y-045197
X060315Y-045197
X068976Y-045197
X077638Y-045197
X079842Y-045197
X079842Y-049213
X079291Y-051404
X079291Y-052591
X079291Y-053858
X077638Y-053858
X068976Y-053858
X060315Y-053858
X057716Y-053858
X053858Y-053858
X051653Y-053858
X049055Y-053858
X046693Y-053858
X044961Y-053858
X079842Y-050630
X044960Y-062520
X046693Y-062520
X049055Y-062520
X051653Y-062520
X053858Y-062520
X057716Y-062520
X060315Y-062520
X068976Y-062520
X077638Y-062520
X079842Y-062520
X079842Y-066536
X079291Y-068727
X079291Y-069914
X079291Y-071181
X077638Y-071181
X068976Y-071181
X060315Y-071181
X057716Y-071181
X053858Y-071181
X051653Y-071181
X049055Y-071181
X046693Y-071181
X044961Y-071181
X079842Y-067953
X079764Y-018110
X079685Y-052789
X079685Y-070116
X082362Y-013701
X082362Y-031024
X082441Y-048346
X082441Y-065669
X004016Y-051417
X005827Y-051417
X003228Y-047953
X015827Y-084803
X015276Y-085275
X018583Y-080079
X019291Y-080079
X018110Y-080315
X018110Y-082362
X018110Y-084882
X018110Y-085905
X080079Y-077638
X080079Y-078897
X082519Y-015197
X084331Y-015197
X082756Y-067165
X083937Y-067165
X082756Y-049921
X085354Y-049921
X082756Y-032598
X085275Y-032598
X084173Y-037638
X085590Y-037638
X072913Y-037717
X075433Y-039213
X081575Y-042913
X085669Y-042913
X010394Y-078819
X017244Y-078976
X023937Y-078740
X021496Y-080787
X014252Y-081811
X008613Y-081811
X017087Y-084882
X017087Y-084882
X017087Y-085669
X022362Y-085748
X020236Y-085748
X022677Y-079134
X025590Y-081575
X020709Y-080787
X010000Y-084212
X010000Y-084646
X010000Y-085079
X010000Y-085512
X010000Y-085945
X010000Y-086378
X009567Y-086378
X009567Y-085945
X009567Y-085512
X009567Y-085079
X009567Y-084646
X021181Y-084055
X000579Y-045262
X015591Y-082677
X009567Y-084212
X014842Y-085945
X015276Y-085945
X015276Y-086378
X014842Y-086378
X025433Y-086220
X045748Y-083937
X051024Y-083937
X059606Y-083937
X068189Y-083937
X076614Y-083937
X080394Y-083937
T02
X003780Y-043858
X008661Y-022204
X008661Y-021496
X010000Y-018110
X010000Y-070079
X008661Y-073465
X008661Y-074173
X010000Y-052756
X008661Y-056142
X008661Y-056850
X010000Y-035433
X008661Y-038819
X008661Y-039528
X008661Y-013543
X008661Y-012835
X010000Y-009449
X008661Y-030866
X008661Y-030157
X010000Y-026772
X008661Y-048189
X008661Y-047480
X010000Y-044094
X008661Y-065512
X008661Y-064803
X010000Y-061417
X079291Y-009764
X079291Y-027087
X079291Y-044409
X079291Y-061732
X003780Y-040866
X007165Y-040866
X083701Y-013701
X005118Y-042756
X036535Y-002756
X037008Y-006220
X037008Y-010551
X037008Y-014882
X037008Y-019213
X037008Y-023543
X037008Y-027874
X037008Y-032205
X037008Y-036535
X037008Y-040866
X037008Y-045197
X037008Y-049528
X037008Y-053858
X037008Y-058189
X037008Y-062520
X037008Y-066850
X037008Y-071181
X037008Y-075512
X002835Y-043858
X002835Y-041732
X005118Y-030165
X005118Y-012842
T03
X009331Y-006555
X007992Y-006555
X017992Y-006555
X016654Y-006555
X026654Y-006555
X025315Y-006555
X035315Y-006555
X033976Y-006555
X043976Y-006555
X042638Y-006555
X052638Y-006555
X051299Y-006555
X061299Y-006555
X059961Y-006555
X069961Y-006555
X068622Y-006555
X078622Y-006555
X077283Y-006555
X009331Y-015217
X007992Y-015217
X017992Y-015217
X016653Y-015217
X026653Y-015217
X025315Y-015217
X035315Y-015217
X033976Y-015217
X043976Y-015217
X042638Y-015217
X052638Y-015217
X051299Y-015217
X061299Y-015217
X059960Y-015217
X069960Y-015217
X068622Y-015217
X078622Y-015217
X077283Y-015217
X009331Y-023878
X007992Y-023878
X017992Y-023878
X016653Y-023878
X026653Y-023878
X025315Y-023878
X035315Y-023878
X033976Y-023878
X043976Y-023878
X042638Y-023878
X052638Y-023878
X051299Y-023878
X061299Y-023878
X059960Y-023878
X069960Y-023878
X068622Y-023878
X078622Y-023878
X077283Y-023878
X009331Y-032539
X007992Y-032539
X017992Y-032539
X016653Y-032539
X026653Y-032539
X025315Y-032539
X035315Y-032539
X033976Y-032539
X043976Y-032539
X042638Y-032539
X052638Y-032539
X051299Y-032539
X061299Y-032539
X059960Y-032539
X069960Y-032539
X068622Y-032539
X078622Y-032539
X077283Y-032539
X009331Y-041201
X007992Y-041201
X017992Y-041201
X016653Y-041201
X026653Y-041201
X025315Y-041201
X035315Y-041201
X033976Y-041201
X043976Y-041201
X042638Y-041201
X052638Y-041201
X051299Y-041201
X061299Y-041201
X059960Y-041201
X069960Y-041201
X068622Y-041201
X078622Y-041201
X077283Y-041201
X009331Y-049862
X007992Y-049862
X017992Y-049863
X016653Y-049863
X026653Y-049863
X025315Y-049863
X035315Y-049863
X033976Y-049863
X043976Y-049863
X042638Y-049863
X052638Y-049863
X051299Y-049863
X061299Y-049863
X059960Y-049863
X069960Y-049863
X068622Y-049863
X078622Y-049863
X077283Y-049863
X009331Y-058524
X007992Y-058524
X017992Y-058524
X016653Y-058524
X026653Y-058524
X025315Y-058524
X035315Y-058524
X033976Y-058524
X043976Y-058524
X042638Y-058524
X052638Y-058524
X051299Y-058524
X061299Y-058524
X059960Y-058524
X069960Y-058524
X068622Y-058524
X078622Y-058524
X077283Y-058524
X009331Y-067185
X007992Y-067185
X017992Y-067185
X016653Y-067185
X026653Y-067185
X025315Y-067185
X035315Y-067185
X033976Y-067185
X043976Y-067185
X042638Y-067185
X052638Y-067185
X051299Y-067185
X061299Y-067185
X059960Y-067185
X069960Y-067185
X068622Y-067185
X078622Y-067185
X077283Y-067185
X009331Y-075846
X007992Y-075846
X017992Y-075846
X016653Y-075846
X026653Y-075846
X025315Y-075846
X035315Y-075846
X033976Y-075846
X043976Y-075846
X042638Y-075846
X052638Y-075846
X051299Y-075846
X061299Y-075846
X059960Y-075846
X069960Y-075846
X068622Y-075846
X078622Y-075846
X077283Y-075846
T04
X006587Y-082283
X007587Y-082283
X003807Y-033858
X002807Y-033858
T05
X008110Y-077461
X009213Y-077461
X008110Y-078445
X009213Y-078445
X016772Y-077461
X017874Y-077461
X016772Y-078445
X017874Y-078445
X025433Y-077461
X026536Y-077461
X025433Y-078445
X026536Y-078445
X034095Y-077461
X035197Y-077461
X034095Y-078445
X035197Y-078445
X042756Y-077461
X043858Y-077461
X042756Y-078445
X043858Y-078445
X051417Y-077461
X052520Y-077461
X051417Y-078445
X052520Y-078445
X060079Y-077461
X061181Y-077461
X060079Y-078445
X061181Y-078445
X068740Y-077461
X069843Y-077461
X068740Y-078445
X069843Y-078445
X077402Y-077461
X078504Y-077461
X077402Y-078445
X078504Y-078445
X008110Y-008169
X009213Y-008169
X008110Y-009154
X009213Y-009154
X016772Y-008169
X017874Y-008169
X016772Y-009154
X017874Y-009154
X025433Y-008169
X026535Y-008169
X025433Y-009154
X026535Y-009154
X034094Y-008169
X035197Y-008169
X034094Y-009154
X035197Y-009154
X042756Y-008169
X043858Y-008169
X042756Y-009154
X043858Y-009154
X051417Y-008169
X052520Y-008169
X051417Y-009154
X052520Y-009154
X060079Y-008169
X061181Y-008169
X060079Y-009154
X061181Y-009154
X068740Y-008169
X069843Y-008169
X068740Y-009154
X069843Y-009154
X077402Y-008169
X078504Y-008169
X077402Y-009154
X078504Y-009154
X008110Y-016831
X009213Y-016831
X008110Y-017815
X009213Y-017815
X016772Y-016831
X017874Y-016831
X016772Y-017815
X017874Y-017815
X025433Y-016831
X026535Y-016831
X025433Y-017815
X026535Y-017815
X034095Y-016831
X035197Y-016831
X034095Y-017815
X035197Y-017815
X042756Y-016831
X043858Y-016831
X042756Y-017815
X043858Y-017815
X051417Y-016831
X052520Y-016831
X051417Y-017815
X052520Y-017815
X060079Y-016831
X061181Y-016831
X060079Y-017815
X061181Y-017815
X068740Y-016831
X069843Y-016831
X068740Y-017815
X069843Y-017815
X077402Y-016831
X078504Y-016831
X077402Y-017815
X078504Y-017815
X008110Y-042815
X009213Y-042815
X008110Y-043799
X009213Y-043799
X016772Y-042815
X017874Y-042815
X016772Y-043799
X017874Y-043799
X025433Y-042815
X026536Y-042815
X025433Y-043799
X026536Y-043799
X034095Y-042815
X035197Y-042815
X034095Y-043799
X035197Y-043799
X042756Y-042815
X043858Y-042815
X042756Y-043799
X043858Y-043799
X051417Y-042815
X052520Y-042815
X051417Y-043799
X052520Y-043799
X060079Y-042815
X061181Y-042815
X060079Y-043799
X061181Y-043799
X068740Y-042815
X069843Y-042815
X068740Y-043799
X069843Y-043799
X077402Y-042815
X078504Y-042815
X077402Y-043799
X078504Y-043799
X008110Y-051476
X009213Y-051476
X008110Y-052461
X009213Y-052461
X016772Y-051476
X017874Y-051476
X016772Y-052461
X017874Y-052461
X025433Y-051476
X026536Y-051476
X025433Y-052461
X026536Y-052461
X034095Y-051476
X035197Y-051476
X034095Y-052461
X035197Y-052461
X042756Y-051476
X043858Y-051476
X042756Y-052461
X043858Y-052461
X051417Y-051476
X052520Y-051476
X051417Y-052461
X052520Y-052461
X060079Y-051476
X061181Y-051476
X060079Y-052461
X061181Y-052461
X068740Y-051476
X069843Y-051476
X068740Y-052461
X069843Y-052461
X077402Y-051476
X078504Y-051476
X077402Y-052461
X078504Y-052461
X008110Y-025492
X009213Y-025492
X008110Y-026476
X009213Y-026476
X016772Y-025492
X017874Y-025492
X016772Y-026476
X017874Y-026476
X025433Y-025492
X026536Y-025492
X025433Y-026476
X026536Y-026476
X034095Y-025492
X035197Y-025492
X034095Y-026476
X035197Y-026476
X042756Y-025492
X043858Y-025492
X042756Y-026476
X043858Y-026476
X051417Y-025492
X052520Y-025492
X051417Y-026476
X052520Y-026476
X060079Y-025492
X061181Y-025492
X060079Y-026476
X061181Y-026476
X068740Y-025492
X069843Y-025492
X068740Y-026476
X069843Y-026476
X077402Y-025492
X078504Y-025492
X077402Y-026476
X078504Y-026476
X008110Y-034154
X009213Y-034154
X008110Y-035138
X009213Y-035138
X016772Y-034154
X017874Y-034154
X016772Y-035138
X017874Y-035138
X025433Y-034154
X026536Y-034154
X025433Y-035138
X026536Y-035138
X034095Y-034154
X035197Y-034154
X034095Y-035138
X035197Y-035138
X042756Y-034154
X043858Y-034154
X042756Y-035138
X043858Y-035138
X051417Y-034154
X052520Y-034154
X051417Y-035138
X052520Y-035138
X060079Y-034154
X061181Y-034154
X060079Y-035138
X061181Y-035138
X068740Y-034154
X069843Y-034154
X068740Y-035138
X069843Y-035138
X077402Y-034154
X078504Y-034154
X077402Y-035138
X078504Y-035138
X008110Y-060138
X009213Y-060138
X008110Y-061122
X009213Y-061122
X016772Y-060138
X017874Y-060138
X016772Y-061122
X017874Y-061122
X025433Y-060138
X026536Y-060138
X025433Y-061122
X026536Y-061122
X034095Y-060138
X035197Y-060138
X034095Y-061122
X035197Y-061122
X042756Y-060138
X043858Y-060138
X042756Y-061122
X043858Y-061122
X051417Y-060138
X052520Y-060138
X051417Y-061122
X052520Y-061122
X060079Y-060138
X061181Y-060138
X060079Y-061122
X061181Y-061122
X068740Y-060138
X069843Y-060138
X068740Y-061122
X069843Y-061122
X077402Y-060138
X078504Y-060138
X077402Y-061122
X078504Y-061122
X008110Y-068799
X009213Y-068799
X008110Y-069783
X009213Y-069783
X016772Y-068799
X017874Y-068799
X016772Y-069783
X017874Y-069783
X025433Y-068799
X026536Y-068799
X025433Y-069783
X026536Y-069783
X034095Y-068799
X035197Y-068799
X034095Y-069783
X035197Y-069783
X042756Y-068799
X043858Y-068799
X042756Y-069783
X043858Y-069783
X051417Y-068799
X052520Y-068799
X051417Y-069783
X052520Y-069783
X060079Y-068799
X061181Y-068799
X060079Y-069783
X061181Y-069783
X068740Y-068799
X069843Y-068799
X068740Y-069783
X069843Y-069783
X077402Y-068799
X078504Y-068799
X077402Y-069783
X078504Y-069783
T06
X083149Y-076437
X083149Y-075437
X083149Y-074437
X083149Y-073437
X083149Y-072437
X083149Y-071437
M30
