G04 Layer: BottomPasteMaskLayer*
G04 EasyEDA v6.4.19.5, 2021-05-16T17:52:14+02:00*
G04 c7de764b28da46dab1ebef90a77263ec,763424db4a57434484c59f209b4bf891,10*
G04 Gerber Generator version 0.2*
G04 Scale: 100 percent, Rotated: No, Reflected: No *
G04 Dimensions in inches *
G04 leading zeros omitted , absolute positions ,3 integer and 6 decimal *
%FSLAX36Y36*%
%MOIN*%

%ADD14C,0.0236*%
%ADD22C,0.0177*%

%LPD*%
D14*
X3631031Y-8387600D02*
G01*
X3583788Y-8387600D01*
X3631031Y-8337600D02*
G01*
X3583788Y-8337600D01*
X3631031Y-8287600D02*
G01*
X3583788Y-8287600D01*
X3631031Y-8237600D02*
G01*
X3583788Y-8237600D01*
X3631031Y-8187600D02*
G01*
X3583788Y-8187600D01*
X3631031Y-8137600D02*
G01*
X3583788Y-8137600D01*
X3631031Y-8087600D02*
G01*
X3583788Y-8087600D01*
X3631031Y-8037600D02*
G01*
X3583788Y-8037600D01*
X3865032Y-8387600D02*
G01*
X3817788Y-8387600D01*
X3865032Y-8337600D02*
G01*
X3817788Y-8337600D01*
X3865032Y-8287600D02*
G01*
X3817788Y-8287600D01*
X3865032Y-8237600D02*
G01*
X3817788Y-8237600D01*
X3865032Y-8187600D02*
G01*
X3817788Y-8187600D01*
X3865032Y-8137600D02*
G01*
X3817788Y-8137600D01*
X3865032Y-8087600D02*
G01*
X3817788Y-8087600D01*
X3865032Y-8037600D02*
G01*
X3817788Y-8037600D01*
X3977492Y-8387600D02*
G01*
X3930248Y-8387600D01*
X3977492Y-8337600D02*
G01*
X3930248Y-8337600D01*
X3977492Y-8287600D02*
G01*
X3930248Y-8287600D01*
X3977492Y-8237600D02*
G01*
X3930248Y-8237600D01*
X3977492Y-8187600D02*
G01*
X3930248Y-8187600D01*
X3977492Y-8137600D02*
G01*
X3930248Y-8137600D01*
X3977492Y-8087600D02*
G01*
X3930248Y-8087600D01*
X3977492Y-8037600D02*
G01*
X3930248Y-8037600D01*
X4211491Y-8387600D02*
G01*
X4164247Y-8387600D01*
X4211491Y-8337600D02*
G01*
X4164247Y-8337600D01*
X4211491Y-8287600D02*
G01*
X4164247Y-8287600D01*
X4211491Y-8237600D02*
G01*
X4164247Y-8237600D01*
X4211491Y-8187600D02*
G01*
X4164247Y-8187600D01*
X4211491Y-8137600D02*
G01*
X4164247Y-8137600D01*
X4211491Y-8087600D02*
G01*
X4164247Y-8087600D01*
X4211491Y-8037600D02*
G01*
X4164247Y-8037600D01*
X3991018Y-139960D02*
G01*
X4038262Y-139960D01*
X3991018Y-189960D02*
G01*
X4038262Y-189960D01*
X3991018Y-239960D02*
G01*
X4038262Y-239960D01*
X3991018Y-289960D02*
G01*
X4038262Y-289960D01*
X3991018Y-339960D02*
G01*
X4038262Y-339960D01*
X3991018Y-389960D02*
G01*
X4038262Y-389960D01*
X3991018Y-439960D02*
G01*
X4038262Y-439960D01*
X3991018Y-489960D02*
G01*
X4038262Y-489960D01*
X3757017Y-139960D02*
G01*
X3804261Y-139960D01*
X3757017Y-189960D02*
G01*
X3804261Y-189960D01*
X3757017Y-239960D02*
G01*
X3804261Y-239960D01*
X3757017Y-289960D02*
G01*
X3804261Y-289960D01*
X3757017Y-339960D02*
G01*
X3804261Y-339960D01*
X3757017Y-389960D02*
G01*
X3804261Y-389960D01*
X3757017Y-439960D02*
G01*
X3804261Y-439960D01*
X3757017Y-489960D02*
G01*
X3804261Y-489960D01*
X3991008Y-1006100D02*
G01*
X4038252Y-1006100D01*
X3991008Y-1056100D02*
G01*
X4038252Y-1056100D01*
X3991008Y-1106100D02*
G01*
X4038252Y-1106100D01*
X3991008Y-1156100D02*
G01*
X4038252Y-1156100D01*
X3991008Y-1206100D02*
G01*
X4038252Y-1206100D01*
X3991008Y-1256100D02*
G01*
X4038252Y-1256100D01*
X3991008Y-1306100D02*
G01*
X4038252Y-1306100D01*
X3991008Y-1356100D02*
G01*
X4038252Y-1356100D01*
X3757007Y-1006100D02*
G01*
X3804251Y-1006100D01*
X3757007Y-1056100D02*
G01*
X3804251Y-1056100D01*
X3757007Y-1106100D02*
G01*
X3804251Y-1106100D01*
X3757007Y-1156100D02*
G01*
X3804251Y-1156100D01*
X3757007Y-1206100D02*
G01*
X3804251Y-1206100D01*
X3757007Y-1256100D02*
G01*
X3804251Y-1256100D01*
X3757007Y-1306100D02*
G01*
X3804251Y-1306100D01*
X3757007Y-1356100D02*
G01*
X3804251Y-1356100D01*
X3990997Y-1872240D02*
G01*
X4038242Y-1872240D01*
X3990997Y-1922240D02*
G01*
X4038242Y-1922240D01*
X3990997Y-1972240D02*
G01*
X4038242Y-1972240D01*
X3990997Y-2022240D02*
G01*
X4038242Y-2022240D01*
X3990997Y-2072240D02*
G01*
X4038242Y-2072240D01*
X3990997Y-2122240D02*
G01*
X4038242Y-2122240D01*
X3990997Y-2172240D02*
G01*
X4038242Y-2172240D01*
X3990997Y-2222240D02*
G01*
X4038242Y-2222240D01*
X3756998Y-1872240D02*
G01*
X3804242Y-1872240D01*
X3756998Y-1922240D02*
G01*
X3804242Y-1922240D01*
X3756998Y-1972240D02*
G01*
X3804242Y-1972240D01*
X3756998Y-2022240D02*
G01*
X3804242Y-2022240D01*
X3756998Y-2072240D02*
G01*
X3804242Y-2072240D01*
X3756998Y-2122240D02*
G01*
X3804242Y-2122240D01*
X3756998Y-2172240D02*
G01*
X3804242Y-2172240D01*
X3756998Y-2222240D02*
G01*
X3804242Y-2222240D01*
X3991008Y-2738380D02*
G01*
X4038252Y-2738380D01*
X3991008Y-2788380D02*
G01*
X4038252Y-2788380D01*
X3991008Y-2838380D02*
G01*
X4038252Y-2838380D01*
X3991008Y-2888380D02*
G01*
X4038252Y-2888380D01*
X3991008Y-2938380D02*
G01*
X4038252Y-2938380D01*
X3991008Y-2988380D02*
G01*
X4038252Y-2988380D01*
X3991008Y-3038380D02*
G01*
X4038252Y-3038380D01*
X3991008Y-3088380D02*
G01*
X4038252Y-3088380D01*
X3757007Y-2738380D02*
G01*
X3804251Y-2738380D01*
X3757007Y-2788380D02*
G01*
X3804251Y-2788380D01*
X3757007Y-2838380D02*
G01*
X3804251Y-2838380D01*
X3757007Y-2888380D02*
G01*
X3804251Y-2888380D01*
X3757007Y-2938380D02*
G01*
X3804251Y-2938380D01*
X3757007Y-2988380D02*
G01*
X3804251Y-2988380D01*
X3757007Y-3038380D02*
G01*
X3804251Y-3038380D01*
X3757007Y-3088380D02*
G01*
X3804251Y-3088380D01*
X3991008Y-3604520D02*
G01*
X4038252Y-3604520D01*
X3991008Y-3654520D02*
G01*
X4038252Y-3654520D01*
X3991008Y-3704520D02*
G01*
X4038252Y-3704520D01*
X3991008Y-3754520D02*
G01*
X4038252Y-3754520D01*
X3991008Y-3804520D02*
G01*
X4038252Y-3804520D01*
X3991008Y-3854520D02*
G01*
X4038252Y-3854520D01*
X3991008Y-3904520D02*
G01*
X4038252Y-3904520D01*
X3991008Y-3954520D02*
G01*
X4038252Y-3954520D01*
X3757007Y-3604520D02*
G01*
X3804251Y-3604520D01*
X3757007Y-3654520D02*
G01*
X3804251Y-3654520D01*
X3757007Y-3704520D02*
G01*
X3804251Y-3704520D01*
X3757007Y-3754520D02*
G01*
X3804251Y-3754520D01*
X3757007Y-3804520D02*
G01*
X3804251Y-3804520D01*
X3757007Y-3854520D02*
G01*
X3804251Y-3854520D01*
X3757007Y-3904520D02*
G01*
X3804251Y-3904520D01*
X3757007Y-3954520D02*
G01*
X3804251Y-3954520D01*
X3991008Y-4470659D02*
G01*
X4038252Y-4470659D01*
X3991008Y-4520659D02*
G01*
X4038252Y-4520659D01*
X3991008Y-4570659D02*
G01*
X4038252Y-4570659D01*
X3991008Y-4620659D02*
G01*
X4038252Y-4620659D01*
X3991008Y-4670659D02*
G01*
X4038252Y-4670659D01*
X3991008Y-4720659D02*
G01*
X4038252Y-4720659D01*
X3991008Y-4770659D02*
G01*
X4038252Y-4770659D01*
X3991008Y-4820659D02*
G01*
X4038252Y-4820659D01*
X3757007Y-4470659D02*
G01*
X3804251Y-4470659D01*
X3757007Y-4520659D02*
G01*
X3804251Y-4520659D01*
X3757007Y-4570659D02*
G01*
X3804251Y-4570659D01*
X3757007Y-4620659D02*
G01*
X3804251Y-4620659D01*
X3757007Y-4670659D02*
G01*
X3804251Y-4670659D01*
X3757007Y-4720659D02*
G01*
X3804251Y-4720659D01*
X3757007Y-4770659D02*
G01*
X3804251Y-4770659D01*
X3757007Y-4820659D02*
G01*
X3804251Y-4820659D01*
X3991008Y-5336799D02*
G01*
X4038252Y-5336799D01*
X3991008Y-5386799D02*
G01*
X4038252Y-5386799D01*
X3991008Y-5436799D02*
G01*
X4038252Y-5436799D01*
X3991008Y-5486799D02*
G01*
X4038252Y-5486799D01*
X3991008Y-5536799D02*
G01*
X4038252Y-5536799D01*
X3991008Y-5586799D02*
G01*
X4038252Y-5586799D01*
X3991008Y-5636799D02*
G01*
X4038252Y-5636799D01*
X3991008Y-5686799D02*
G01*
X4038252Y-5686799D01*
X3757007Y-5336799D02*
G01*
X3804251Y-5336799D01*
X3757007Y-5386799D02*
G01*
X3804251Y-5386799D01*
X3757007Y-5436799D02*
G01*
X3804251Y-5436799D01*
X3757007Y-5486799D02*
G01*
X3804251Y-5486799D01*
X3757007Y-5536799D02*
G01*
X3804251Y-5536799D01*
X3757007Y-5586799D02*
G01*
X3804251Y-5586799D01*
X3757007Y-5636799D02*
G01*
X3804251Y-5636799D01*
X3757007Y-5686799D02*
G01*
X3804251Y-5686799D01*
X3991008Y-6202939D02*
G01*
X4038252Y-6202939D01*
X3991008Y-6252939D02*
G01*
X4038252Y-6252939D01*
X3991008Y-6302939D02*
G01*
X4038252Y-6302939D01*
X3991008Y-6352939D02*
G01*
X4038252Y-6352939D01*
X3991008Y-6402939D02*
G01*
X4038252Y-6402939D01*
X3991008Y-6452939D02*
G01*
X4038252Y-6452939D01*
X3991008Y-6502939D02*
G01*
X4038252Y-6502939D01*
X3991008Y-6552939D02*
G01*
X4038252Y-6552939D01*
X3757007Y-6202939D02*
G01*
X3804251Y-6202939D01*
X3757007Y-6252939D02*
G01*
X3804251Y-6252939D01*
X3757007Y-6302939D02*
G01*
X3804251Y-6302939D01*
X3757007Y-6352939D02*
G01*
X3804251Y-6352939D01*
X3757007Y-6402939D02*
G01*
X3804251Y-6402939D01*
X3757007Y-6452939D02*
G01*
X3804251Y-6452939D01*
X3757007Y-6502939D02*
G01*
X3804251Y-6502939D01*
X3757007Y-6552939D02*
G01*
X3804251Y-6552939D01*
X3991008Y-7069079D02*
G01*
X4038252Y-7069079D01*
X3991008Y-7119079D02*
G01*
X4038252Y-7119079D01*
X3991008Y-7169079D02*
G01*
X4038252Y-7169079D01*
X3991008Y-7219079D02*
G01*
X4038252Y-7219079D01*
X3991008Y-7269079D02*
G01*
X4038252Y-7269079D01*
X3991008Y-7319079D02*
G01*
X4038252Y-7319079D01*
X3991008Y-7369079D02*
G01*
X4038252Y-7369079D01*
X3991008Y-7419079D02*
G01*
X4038252Y-7419079D01*
X3757007Y-7069079D02*
G01*
X3804251Y-7069079D01*
X3757007Y-7119079D02*
G01*
X3804251Y-7119079D01*
X3757007Y-7169079D02*
G01*
X3804251Y-7169079D01*
X3757007Y-7219079D02*
G01*
X3804251Y-7219079D01*
X3757007Y-7269079D02*
G01*
X3804251Y-7269079D01*
X3757007Y-7319079D02*
G01*
X3804251Y-7319079D01*
X3757007Y-7369079D02*
G01*
X3804251Y-7369079D01*
X3757007Y-7419079D02*
G01*
X3804251Y-7419079D01*
X8363980Y-3892588D02*
G01*
X8363980Y-3939832D01*
X8313980Y-3892588D02*
G01*
X8313980Y-3939832D01*
X8263980Y-3892588D02*
G01*
X8263980Y-3939832D01*
X8213980Y-3892588D02*
G01*
X8213980Y-3939832D01*
X8163980Y-3892588D02*
G01*
X8163980Y-3939832D01*
X8113980Y-3892588D02*
G01*
X8113980Y-3939832D01*
X8063980Y-3892588D02*
G01*
X8063980Y-3939832D01*
X8013980Y-3892588D02*
G01*
X8013980Y-3939832D01*
X8363980Y-3658587D02*
G01*
X8363980Y-3705832D01*
X8313980Y-3658587D02*
G01*
X8313980Y-3705832D01*
X8263980Y-3658587D02*
G01*
X8263980Y-3705832D01*
X8213980Y-3658587D02*
G01*
X8213980Y-3705832D01*
X8163980Y-3658587D02*
G01*
X8163980Y-3705832D01*
X8113980Y-3658587D02*
G01*
X8113980Y-3705832D01*
X8063980Y-3658587D02*
G01*
X8063980Y-3705832D01*
X8013980Y-3658587D02*
G01*
X8013980Y-3705832D01*
X3991008Y-573029D02*
G01*
X4038252Y-573029D01*
X3991008Y-623029D02*
G01*
X4038252Y-623029D01*
X3991008Y-673029D02*
G01*
X4038252Y-673029D01*
X3991008Y-723029D02*
G01*
X4038252Y-723029D01*
X3991008Y-773029D02*
G01*
X4038252Y-773029D01*
X3991008Y-823029D02*
G01*
X4038252Y-823029D01*
X3991008Y-873029D02*
G01*
X4038252Y-873029D01*
X3991008Y-923029D02*
G01*
X4038252Y-923029D01*
X3757007Y-573029D02*
G01*
X3804251Y-573029D01*
X3757007Y-623029D02*
G01*
X3804251Y-623029D01*
X3757007Y-673029D02*
G01*
X3804251Y-673029D01*
X3757007Y-723029D02*
G01*
X3804251Y-723029D01*
X3757007Y-773029D02*
G01*
X3804251Y-773029D01*
X3757007Y-823029D02*
G01*
X3804251Y-823029D01*
X3757007Y-873029D02*
G01*
X3804251Y-873029D01*
X3757007Y-923029D02*
G01*
X3804251Y-923029D01*
X3990997Y-1439169D02*
G01*
X4038242Y-1439169D01*
X3990997Y-1489169D02*
G01*
X4038242Y-1489169D01*
X3990997Y-1539169D02*
G01*
X4038242Y-1539169D01*
X3990997Y-1589169D02*
G01*
X4038242Y-1589169D01*
X3990997Y-1639169D02*
G01*
X4038242Y-1639169D01*
X3990997Y-1689169D02*
G01*
X4038242Y-1689169D01*
X3990997Y-1739169D02*
G01*
X4038242Y-1739169D01*
X3990997Y-1789169D02*
G01*
X4038242Y-1789169D01*
X3756998Y-1439169D02*
G01*
X3804242Y-1439169D01*
X3756998Y-1489169D02*
G01*
X3804242Y-1489169D01*
X3756998Y-1539169D02*
G01*
X3804242Y-1539169D01*
X3756998Y-1589169D02*
G01*
X3804242Y-1589169D01*
X3756998Y-1639169D02*
G01*
X3804242Y-1639169D01*
X3756998Y-1689169D02*
G01*
X3804242Y-1689169D01*
X3756998Y-1739169D02*
G01*
X3804242Y-1739169D01*
X3756998Y-1789169D02*
G01*
X3804242Y-1789169D01*
X3990997Y-2305300D02*
G01*
X4038242Y-2305300D01*
X3990997Y-2355300D02*
G01*
X4038242Y-2355300D01*
X3990997Y-2405300D02*
G01*
X4038242Y-2405300D01*
X3990997Y-2455300D02*
G01*
X4038242Y-2455300D01*
X3990997Y-2505300D02*
G01*
X4038242Y-2505300D01*
X3990997Y-2555300D02*
G01*
X4038242Y-2555300D01*
X3990997Y-2605300D02*
G01*
X4038242Y-2605300D01*
X3990997Y-2655300D02*
G01*
X4038242Y-2655300D01*
X3756998Y-2305300D02*
G01*
X3804242Y-2305300D01*
X3756998Y-2355300D02*
G01*
X3804242Y-2355300D01*
X3756998Y-2405300D02*
G01*
X3804242Y-2405300D01*
X3756998Y-2455300D02*
G01*
X3804242Y-2455300D01*
X3756998Y-2505300D02*
G01*
X3804242Y-2505300D01*
X3756998Y-2555300D02*
G01*
X3804242Y-2555300D01*
X3756998Y-2605300D02*
G01*
X3804242Y-2605300D01*
X3756998Y-2655300D02*
G01*
X3804242Y-2655300D01*
X3991008Y-3171450D02*
G01*
X4038252Y-3171450D01*
X3991008Y-3221450D02*
G01*
X4038252Y-3221450D01*
X3991008Y-3271450D02*
G01*
X4038252Y-3271450D01*
X3991008Y-3321450D02*
G01*
X4038252Y-3321450D01*
X3991008Y-3371450D02*
G01*
X4038252Y-3371450D01*
X3991008Y-3421450D02*
G01*
X4038252Y-3421450D01*
X3991008Y-3471450D02*
G01*
X4038252Y-3471450D01*
X3991008Y-3521450D02*
G01*
X4038252Y-3521450D01*
X3757007Y-3171450D02*
G01*
X3804251Y-3171450D01*
X3757007Y-3221450D02*
G01*
X3804251Y-3221450D01*
X3757007Y-3271450D02*
G01*
X3804251Y-3271450D01*
X3757007Y-3321450D02*
G01*
X3804251Y-3321450D01*
X3757007Y-3371450D02*
G01*
X3804251Y-3371450D01*
X3757007Y-3421450D02*
G01*
X3804251Y-3421450D01*
X3757007Y-3471450D02*
G01*
X3804251Y-3471450D01*
X3757007Y-3521450D02*
G01*
X3804251Y-3521450D01*
X3991008Y-4037590D02*
G01*
X4038252Y-4037590D01*
X3991008Y-4087590D02*
G01*
X4038252Y-4087590D01*
X3991008Y-4137590D02*
G01*
X4038252Y-4137590D01*
X3991008Y-4187590D02*
G01*
X4038252Y-4187590D01*
X3991008Y-4237590D02*
G01*
X4038252Y-4237590D01*
X3991008Y-4287590D02*
G01*
X4038252Y-4287590D01*
X3991008Y-4337590D02*
G01*
X4038252Y-4337590D01*
X3991008Y-4387590D02*
G01*
X4038252Y-4387590D01*
X3757007Y-4037590D02*
G01*
X3804251Y-4037590D01*
X3757007Y-4087590D02*
G01*
X3804251Y-4087590D01*
X3757007Y-4137590D02*
G01*
X3804251Y-4137590D01*
X3757007Y-4187590D02*
G01*
X3804251Y-4187590D01*
X3757007Y-4237590D02*
G01*
X3804251Y-4237590D01*
X3757007Y-4287590D02*
G01*
X3804251Y-4287590D01*
X3757007Y-4337590D02*
G01*
X3804251Y-4337590D01*
X3757007Y-4387590D02*
G01*
X3804251Y-4387590D01*
X3991008Y-4903730D02*
G01*
X4038252Y-4903730D01*
X3991008Y-4953730D02*
G01*
X4038252Y-4953730D01*
X3991008Y-5003730D02*
G01*
X4038252Y-5003730D01*
X3991008Y-5053730D02*
G01*
X4038252Y-5053730D01*
X3991008Y-5103730D02*
G01*
X4038252Y-5103730D01*
X3991008Y-5153730D02*
G01*
X4038252Y-5153730D01*
X3991008Y-5203730D02*
G01*
X4038252Y-5203730D01*
X3991008Y-5253730D02*
G01*
X4038252Y-5253730D01*
X3757007Y-4903730D02*
G01*
X3804251Y-4903730D01*
X3757007Y-4953730D02*
G01*
X3804251Y-4953730D01*
X3757007Y-5003730D02*
G01*
X3804251Y-5003730D01*
X3757007Y-5053730D02*
G01*
X3804251Y-5053730D01*
X3757007Y-5103730D02*
G01*
X3804251Y-5103730D01*
X3757007Y-5153730D02*
G01*
X3804251Y-5153730D01*
X3757007Y-5203730D02*
G01*
X3804251Y-5203730D01*
X3757007Y-5253730D02*
G01*
X3804251Y-5253730D01*
X3991008Y-5769870D02*
G01*
X4038252Y-5769870D01*
X3991008Y-5819870D02*
G01*
X4038252Y-5819870D01*
X3991008Y-5869870D02*
G01*
X4038252Y-5869870D01*
X3991008Y-5919870D02*
G01*
X4038252Y-5919870D01*
X3991008Y-5969870D02*
G01*
X4038252Y-5969870D01*
X3991008Y-6019870D02*
G01*
X4038252Y-6019870D01*
X3991008Y-6069870D02*
G01*
X4038252Y-6069870D01*
X3991008Y-6119870D02*
G01*
X4038252Y-6119870D01*
X3757007Y-5769870D02*
G01*
X3804251Y-5769870D01*
X3757007Y-5819870D02*
G01*
X3804251Y-5819870D01*
X3757007Y-5869870D02*
G01*
X3804251Y-5869870D01*
X3757007Y-5919870D02*
G01*
X3804251Y-5919870D01*
X3757007Y-5969870D02*
G01*
X3804251Y-5969870D01*
X3757007Y-6019870D02*
G01*
X3804251Y-6019870D01*
X3757007Y-6069870D02*
G01*
X3804251Y-6069870D01*
X3757007Y-6119870D02*
G01*
X3804251Y-6119870D01*
X3991008Y-6636010D02*
G01*
X4038252Y-6636010D01*
X3991008Y-6686010D02*
G01*
X4038252Y-6686010D01*
X3991008Y-6736010D02*
G01*
X4038252Y-6736010D01*
X3991008Y-6786010D02*
G01*
X4038252Y-6786010D01*
X3991008Y-6836010D02*
G01*
X4038252Y-6836010D01*
X3991008Y-6886010D02*
G01*
X4038252Y-6886010D01*
X3991008Y-6936010D02*
G01*
X4038252Y-6936010D01*
X3991008Y-6986010D02*
G01*
X4038252Y-6986010D01*
X3757007Y-6636010D02*
G01*
X3804251Y-6636010D01*
X3757007Y-6686010D02*
G01*
X3804251Y-6686010D01*
X3757007Y-6736010D02*
G01*
X3804251Y-6736010D01*
X3757007Y-6786010D02*
G01*
X3804251Y-6786010D01*
X3757007Y-6836010D02*
G01*
X3804251Y-6836010D01*
X3757007Y-6886010D02*
G01*
X3804251Y-6886010D01*
X3757007Y-6936010D02*
G01*
X3804251Y-6936010D01*
X3757007Y-6986010D02*
G01*
X3804251Y-6986010D01*
X3991008Y-7502150D02*
G01*
X4038252Y-7502150D01*
X3991008Y-7552150D02*
G01*
X4038252Y-7552150D01*
X3991008Y-7602150D02*
G01*
X4038252Y-7602150D01*
X3991008Y-7652150D02*
G01*
X4038252Y-7652150D01*
X3991008Y-7702150D02*
G01*
X4038252Y-7702150D01*
X3991008Y-7752150D02*
G01*
X4038252Y-7752150D01*
X3991008Y-7802150D02*
G01*
X4038252Y-7802150D01*
X3991008Y-7852150D02*
G01*
X4038252Y-7852150D01*
X3757007Y-7502150D02*
G01*
X3804251Y-7502150D01*
X3757007Y-7552150D02*
G01*
X3804251Y-7552150D01*
X3757007Y-7602150D02*
G01*
X3804251Y-7602150D01*
X3757007Y-7652150D02*
G01*
X3804251Y-7652150D01*
X3757007Y-7702150D02*
G01*
X3804251Y-7702150D01*
X3757007Y-7752150D02*
G01*
X3804251Y-7752150D01*
X3757007Y-7802150D02*
G01*
X3804251Y-7802150D01*
X3757007Y-7852150D02*
G01*
X3804251Y-7852150D01*
X7478149Y-3892588D02*
G01*
X7478149Y-3939832D01*
X7428149Y-3892588D02*
G01*
X7428149Y-3939832D01*
X7378149Y-3892588D02*
G01*
X7378149Y-3939832D01*
X7328149Y-3892588D02*
G01*
X7328149Y-3939832D01*
X7278149Y-3892588D02*
G01*
X7278149Y-3939832D01*
X7228149Y-3892588D02*
G01*
X7228149Y-3939832D01*
X7178149Y-3892588D02*
G01*
X7178149Y-3939832D01*
X7128149Y-3892588D02*
G01*
X7128149Y-3939832D01*
X7478149Y-3658587D02*
G01*
X7478149Y-3705832D01*
X7428149Y-3658587D02*
G01*
X7428149Y-3705832D01*
X7378149Y-3658587D02*
G01*
X7378149Y-3705832D01*
X7328149Y-3658587D02*
G01*
X7328149Y-3705832D01*
X7278149Y-3658587D02*
G01*
X7278149Y-3705832D01*
X7228149Y-3658587D02*
G01*
X7228149Y-3705832D01*
X7178149Y-3658587D02*
G01*
X7178149Y-3705832D01*
X7128149Y-3658587D02*
G01*
X7128149Y-3705832D01*
D22*
X1999979Y-7977610D02*
G01*
X1999979Y-8028791D01*
X2031480Y-7977610D02*
G01*
X2031480Y-8028791D01*
X2062979Y-7977610D02*
G01*
X2062979Y-8028791D01*
X2094480Y-7977610D02*
G01*
X2094480Y-8028791D01*
X2125979Y-7977610D02*
G01*
X2125979Y-8028791D01*
X2157479Y-7977610D02*
G01*
X2157479Y-8028791D01*
X2188980Y-7977610D02*
G01*
X2188980Y-8028791D01*
X2220479Y-7977610D02*
G01*
X2220479Y-8028791D01*
X2251980Y-7977610D02*
G01*
X2251980Y-8028791D01*
X2283479Y-7977610D02*
G01*
X2283479Y-8028791D01*
X2314979Y-7977610D02*
G01*
X2314979Y-8028791D01*
X2365389Y-8079200D02*
G01*
X2416571Y-8079200D01*
X2365389Y-8110700D02*
G01*
X2416571Y-8110700D01*
X2365389Y-8142199D02*
G01*
X2416571Y-8142199D01*
X2365389Y-8173699D02*
G01*
X2416571Y-8173699D01*
X2365389Y-8205200D02*
G01*
X2416571Y-8205200D01*
X2365389Y-8236700D02*
G01*
X2416571Y-8236700D01*
X2365389Y-8268200D02*
G01*
X2416571Y-8268200D01*
X2365389Y-8299699D02*
G01*
X2416571Y-8299699D01*
X2365389Y-8331199D02*
G01*
X2416571Y-8331199D01*
X2365389Y-8362700D02*
G01*
X2416571Y-8362700D01*
X2365389Y-8394200D02*
G01*
X2416571Y-8394200D01*
X2314979Y-8443609D02*
G01*
X2314979Y-8494791D01*
X2283479Y-8443609D02*
G01*
X2283479Y-8494791D01*
X2251980Y-8443609D02*
G01*
X2251980Y-8494791D01*
X2220479Y-8443609D02*
G01*
X2220479Y-8494791D01*
X2188980Y-8443609D02*
G01*
X2188980Y-8494791D01*
X2157479Y-8443609D02*
G01*
X2157479Y-8494791D01*
X2125979Y-8443609D02*
G01*
X2125979Y-8494791D01*
X2094480Y-8443609D02*
G01*
X2094480Y-8494791D01*
X2062979Y-8443609D02*
G01*
X2062979Y-8494791D01*
X2031480Y-8443609D02*
G01*
X2031480Y-8494791D01*
X1999979Y-8443609D02*
G01*
X1999979Y-8494791D01*
X1898389Y-8394200D02*
G01*
X1949570Y-8394200D01*
X1898389Y-8362700D02*
G01*
X1949570Y-8362700D01*
X1898389Y-8331199D02*
G01*
X1949570Y-8331199D01*
X1898389Y-8299699D02*
G01*
X1949570Y-8299699D01*
X1898389Y-8268200D02*
G01*
X1949570Y-8268200D01*
X1898389Y-8236700D02*
G01*
X1949570Y-8236700D01*
X1898389Y-8205200D02*
G01*
X1949570Y-8205200D01*
X1898389Y-8173699D02*
G01*
X1949570Y-8173699D01*
X1898389Y-8142199D02*
G01*
X1949570Y-8142199D01*
X1898389Y-8110700D02*
G01*
X1949570Y-8110700D01*
X1898389Y-8079200D02*
G01*
X1949570Y-8079200D01*
G36*
X907478Y-8263766D02*
G01*
X907478Y-8303135D01*
X950785Y-8303135D01*
X950785Y-8263766D01*
G37*
G36*
X907478Y-8200774D02*
G01*
X907478Y-8240144D01*
X950785Y-8240144D01*
X950785Y-8200774D01*
G37*
G36*
X8271634Y-7781479D02*
G01*
X8232263Y-7781479D01*
X8232263Y-7824787D01*
X8271634Y-7824787D01*
G37*
G36*
X8334625Y-7781479D02*
G01*
X8295255Y-7781479D01*
X8295255Y-7824787D01*
X8334625Y-7824787D01*
G37*
G36*
X2118107Y-7919276D02*
G01*
X2157476Y-7919276D01*
X2157476Y-7875967D01*
X2118107Y-7875967D01*
G37*
G36*
X2188977Y-7919276D02*
G01*
X2228347Y-7919276D01*
X2228347Y-7875967D01*
X2188977Y-7875967D01*
G37*
G36*
X2196845Y-8553132D02*
G01*
X2157475Y-8553132D01*
X2157475Y-8596439D01*
X2196845Y-8596439D01*
G37*
G36*
X2125974Y-8553132D02*
G01*
X2086604Y-8553132D01*
X2086604Y-8596439D01*
X2125974Y-8596439D01*
G37*
G36*
X94489Y-4588573D02*
G01*
X133859Y-4588573D01*
X133859Y-4545266D01*
X94489Y-4545266D01*
G37*
G36*
X165358Y-4588573D02*
G01*
X204729Y-4588573D01*
X204729Y-4545266D01*
X165358Y-4545266D01*
G37*
G36*
X78740Y-7911401D02*
G01*
X118110Y-7911401D01*
X118110Y-7868094D01*
X78740Y-7868094D01*
G37*
G36*
X149610Y-7911401D02*
G01*
X188980Y-7911401D01*
X188980Y-7868094D01*
X149610Y-7868094D01*
G37*
G36*
X1513775Y-8299196D02*
G01*
X1513775Y-8338566D01*
X1557084Y-8338566D01*
X1557084Y-8299196D01*
G37*
G36*
X1513775Y-8370066D02*
G01*
X1513775Y-8409436D01*
X1557084Y-8409436D01*
X1557084Y-8370066D01*
G37*
G36*
X238188Y-4771645D02*
G01*
X238188Y-4811015D01*
X281496Y-4811015D01*
X281496Y-4771645D01*
G37*
G36*
X238188Y-4842514D02*
G01*
X238188Y-4881885D01*
X281496Y-4881885D01*
X281496Y-4842514D01*
G37*
G36*
X1507875Y-8192896D02*
G01*
X1507875Y-8232267D01*
X1543306Y-8232267D01*
X1543306Y-8192896D01*
G37*
G36*
X1574804Y-8192896D02*
G01*
X1574804Y-8232267D01*
X1610235Y-8232267D01*
X1610235Y-8192896D01*
G37*
G36*
X289369Y-7744076D02*
G01*
X289369Y-7704706D01*
X246062Y-7704706D01*
X246062Y-7744076D01*
G37*
G36*
X289369Y-7807067D02*
G01*
X289369Y-7767698D01*
X246062Y-7767698D01*
X246062Y-7807067D01*
G37*
G36*
X1600389Y-8366127D02*
G01*
X1600389Y-8405497D01*
X1643698Y-8405497D01*
X1643698Y-8366127D01*
G37*
G36*
X1600389Y-8303135D02*
G01*
X1600389Y-8342505D01*
X1643698Y-8342505D01*
X1643698Y-8303135D01*
G37*
G36*
X161419Y-4998022D02*
G01*
X200790Y-4998022D01*
X200790Y-4954714D01*
X161419Y-4954714D01*
G37*
G36*
X98427Y-4998022D02*
G01*
X137797Y-4998022D01*
X137797Y-4954714D01*
X98427Y-4954714D01*
G37*
G36*
X139756Y-4646646D02*
G01*
X100387Y-4646646D01*
X100387Y-4689953D01*
X139756Y-4689953D01*
G37*
G36*
X202748Y-4646646D02*
G01*
X163378Y-4646646D01*
X163378Y-4689953D01*
X202748Y-4689953D01*
G37*
G36*
X101374Y-4749992D02*
G01*
X101374Y-4791331D01*
X123027Y-4791331D01*
X123027Y-4749992D01*
G37*
G36*
X138776Y-4749992D02*
G01*
X138776Y-4791331D01*
X160429Y-4791331D01*
X160429Y-4749992D01*
G37*
G36*
X176176Y-4749992D02*
G01*
X176176Y-4791331D01*
X197831Y-4791331D01*
X197831Y-4749992D01*
G37*
G36*
X197831Y-4893692D02*
G01*
X197831Y-4852354D01*
X176176Y-4852354D01*
X176176Y-4893692D01*
G37*
G36*
X123027Y-4893692D02*
G01*
X123027Y-4852354D01*
X101374Y-4852354D01*
X101374Y-4893692D01*
G37*
G36*
X177165Y-7814944D02*
G01*
X177165Y-7775574D01*
X153542Y-7775574D01*
X153542Y-7814944D01*
G37*
G36*
X106298Y-7814944D02*
G01*
X106298Y-7775574D01*
X82676Y-7775574D01*
X82676Y-7814944D01*
G37*
G36*
X141732Y-7744079D02*
G01*
X141732Y-7704708D01*
X118110Y-7704708D01*
X118110Y-7744079D01*
G37*
G36*
X1049210Y-8482267D02*
G01*
X1108266Y-8482267D01*
X1108266Y-8454706D01*
X1049210Y-8454706D01*
G37*
G36*
X1124013Y-8175180D02*
G01*
X1124013Y-8234236D01*
X1151572Y-8234236D01*
X1151572Y-8175180D01*
G37*
G36*
X1462596Y-8265731D02*
G01*
X1403540Y-8265731D01*
X1403540Y-8293290D01*
X1462596Y-8293290D01*
G37*
G36*
X1049210Y-8293292D02*
G01*
X1108266Y-8293292D01*
X1108266Y-8265732D01*
X1049210Y-8265732D01*
G37*
G36*
X1049210Y-8340536D02*
G01*
X1108266Y-8340536D01*
X1108266Y-8312975D01*
X1049210Y-8312975D01*
G37*
G36*
X1049210Y-8387779D02*
G01*
X1108266Y-8387779D01*
X1108266Y-8360219D01*
X1049210Y-8360219D01*
G37*
G36*
X1049210Y-8435023D02*
G01*
X1108266Y-8435023D01*
X1108266Y-8407464D01*
X1049210Y-8407464D01*
G37*
G36*
X1360234Y-8175180D02*
G01*
X1360234Y-8234236D01*
X1387794Y-8234236D01*
X1387794Y-8175180D01*
G37*
G36*
X1312988Y-8175180D02*
G01*
X1312988Y-8234236D01*
X1340549Y-8234236D01*
X1340549Y-8175180D01*
G37*
G36*
X1265744Y-8175180D02*
G01*
X1265744Y-8234236D01*
X1293305Y-8234236D01*
X1293305Y-8175180D01*
G37*
G36*
X1218500Y-8175180D02*
G01*
X1218500Y-8234236D01*
X1246060Y-8234236D01*
X1246060Y-8175180D01*
G37*
G36*
X1171256Y-8175180D02*
G01*
X1171256Y-8234236D01*
X1198816Y-8234236D01*
X1198816Y-8175180D01*
G37*
G36*
X1462596Y-8454706D02*
G01*
X1403540Y-8454706D01*
X1403540Y-8482267D01*
X1462596Y-8482267D01*
G37*
G36*
X1462596Y-8407463D02*
G01*
X1403540Y-8407463D01*
X1403540Y-8435022D01*
X1462596Y-8435022D01*
G37*
G36*
X1462596Y-8360219D02*
G01*
X1403540Y-8360219D01*
X1403540Y-8387778D01*
X1462596Y-8387778D01*
G37*
G36*
X1462596Y-8312975D02*
G01*
X1403540Y-8312975D01*
X1403540Y-8340535D01*
X1462596Y-8340535D01*
G37*
G36*
X877953Y-1163384D02*
G01*
X917323Y-1163384D01*
X917323Y-1120075D01*
X877953Y-1120075D01*
G37*
G36*
X814961Y-1163384D02*
G01*
X854332Y-1163384D01*
X854332Y-1120075D01*
X814961Y-1120075D01*
G37*
G36*
X1744093Y-1163384D02*
G01*
X1783464Y-1163384D01*
X1783464Y-1120075D01*
X1744093Y-1120075D01*
G37*
G36*
X1681102Y-1163384D02*
G01*
X1720471Y-1163384D01*
X1720471Y-1120075D01*
X1681102Y-1120075D01*
G37*
G36*
X2610239Y-1163386D02*
G01*
X2649609Y-1163386D01*
X2649609Y-1120077D01*
X2610239Y-1120077D01*
G37*
G36*
X2547246Y-1163386D02*
G01*
X2586616Y-1163386D01*
X2586616Y-1120077D01*
X2547246Y-1120077D01*
G37*
G36*
X3452753Y-1120077D02*
G01*
X3413383Y-1120077D01*
X3413383Y-1163386D01*
X3452753Y-1163386D01*
G37*
G36*
X3515744Y-1120077D02*
G01*
X3476374Y-1120077D01*
X3476374Y-1163386D01*
X3515744Y-1163386D01*
G37*
G36*
X4515744Y-1120077D02*
G01*
X4476374Y-1120077D01*
X4476374Y-1163386D01*
X4515744Y-1163386D01*
G37*
G36*
X4578737Y-1120077D02*
G01*
X4539367Y-1120077D01*
X4539367Y-1163386D01*
X4578737Y-1163386D01*
G37*
G36*
X5185037Y-1120077D02*
G01*
X5145667Y-1120077D01*
X5145667Y-1163386D01*
X5185037Y-1163386D01*
G37*
G36*
X5248028Y-1120077D02*
G01*
X5208658Y-1120077D01*
X5208658Y-1163386D01*
X5248028Y-1163386D01*
G37*
G36*
X6051178Y-1120077D02*
G01*
X6011808Y-1120077D01*
X6011808Y-1163386D01*
X6051178Y-1163386D01*
G37*
G36*
X6114170Y-1120077D02*
G01*
X6074799Y-1120077D01*
X6074799Y-1163386D01*
X6114170Y-1163386D01*
G37*
G36*
X6917320Y-1120077D02*
G01*
X6877950Y-1120077D01*
X6877950Y-1163386D01*
X6917320Y-1163386D01*
G37*
G36*
X6980312Y-1120077D02*
G01*
X6940941Y-1120077D01*
X6940941Y-1163386D01*
X6980312Y-1163386D01*
G37*
G36*
X7783462Y-1120077D02*
G01*
X7744092Y-1120077D01*
X7744092Y-1163386D01*
X7783462Y-1163386D01*
G37*
G36*
X7846454Y-1120077D02*
G01*
X7807084Y-1120077D01*
X7807084Y-1163386D01*
X7846454Y-1163386D01*
G37*
G36*
X877953Y-2029524D02*
G01*
X917323Y-2029524D01*
X917323Y-1986215D01*
X877953Y-1986215D01*
G37*
G36*
X814961Y-2029524D02*
G01*
X854332Y-2029524D01*
X854332Y-1986215D01*
X814961Y-1986215D01*
G37*
G36*
X1744093Y-2029524D02*
G01*
X1783464Y-2029524D01*
X1783464Y-1986215D01*
X1744093Y-1986215D01*
G37*
G36*
X1681102Y-2029524D02*
G01*
X1720471Y-2029524D01*
X1720471Y-1986215D01*
X1681102Y-1986215D01*
G37*
G36*
X2610234Y-2029524D02*
G01*
X2649603Y-2029524D01*
X2649603Y-1986215D01*
X2610234Y-1986215D01*
G37*
G36*
X2547241Y-2029524D02*
G01*
X2586611Y-2029524D01*
X2586611Y-1986215D01*
X2547241Y-1986215D01*
G37*
G36*
X3476373Y-2029524D02*
G01*
X3515744Y-2029524D01*
X3515744Y-1986215D01*
X3476373Y-1986215D01*
G37*
G36*
X3413382Y-2029524D02*
G01*
X3452752Y-2029524D01*
X3452752Y-1986215D01*
X3413382Y-1986215D01*
G37*
G36*
X4539372Y-2029528D02*
G01*
X4578743Y-2029528D01*
X4578743Y-1986220D01*
X4539372Y-1986220D01*
G37*
G36*
X4476381Y-2029528D02*
G01*
X4515751Y-2029528D01*
X4515751Y-1986220D01*
X4476381Y-1986220D01*
G37*
G36*
X5208665Y-2029528D02*
G01*
X5248035Y-2029528D01*
X5248035Y-1986220D01*
X5208665Y-1986220D01*
G37*
G36*
X5145672Y-2029528D02*
G01*
X5185042Y-2029528D01*
X5185042Y-1986220D01*
X5145672Y-1986220D01*
G37*
G36*
X6074805Y-2029528D02*
G01*
X6114175Y-2029528D01*
X6114175Y-1986220D01*
X6074805Y-1986220D01*
G37*
G36*
X6011814Y-2029528D02*
G01*
X6051184Y-2029528D01*
X6051184Y-1986220D01*
X6011814Y-1986220D01*
G37*
G36*
X6940947Y-2029528D02*
G01*
X6980317Y-2029528D01*
X6980317Y-1986220D01*
X6940947Y-1986220D01*
G37*
G36*
X6877956Y-2029528D02*
G01*
X6917326Y-2029528D01*
X6917326Y-1986220D01*
X6877956Y-1986220D01*
G37*
G36*
X7807089Y-2029528D02*
G01*
X7846459Y-2029528D01*
X7846459Y-1986220D01*
X7807089Y-1986220D01*
G37*
G36*
X7744098Y-2029528D02*
G01*
X7783468Y-2029528D01*
X7783468Y-1986220D01*
X7744098Y-1986220D01*
G37*
G36*
X854326Y-2852356D02*
G01*
X814956Y-2852356D01*
X814956Y-2895664D01*
X854326Y-2895664D01*
G37*
G36*
X917317Y-2852356D02*
G01*
X877947Y-2852356D01*
X877947Y-2895664D01*
X917317Y-2895664D01*
G37*
G36*
X1720465Y-2852356D02*
G01*
X1681095Y-2852356D01*
X1681095Y-2895664D01*
X1720465Y-2895664D01*
G37*
G36*
X1783458Y-2852356D02*
G01*
X1744088Y-2852356D01*
X1744088Y-2895664D01*
X1783458Y-2895664D01*
G37*
G36*
X2586606Y-2852356D02*
G01*
X2547236Y-2852356D01*
X2547236Y-2895664D01*
X2586606Y-2895664D01*
G37*
G36*
X2649597Y-2852356D02*
G01*
X2610227Y-2852356D01*
X2610227Y-2895664D01*
X2649597Y-2895664D01*
G37*
G36*
X3452745Y-2852356D02*
G01*
X3413375Y-2852356D01*
X3413375Y-2895664D01*
X3452745Y-2895664D01*
G37*
G36*
X3515738Y-2852356D02*
G01*
X3476368Y-2852356D01*
X3476368Y-2895664D01*
X3515738Y-2895664D01*
G37*
G36*
X4515744Y-2852361D02*
G01*
X4476374Y-2852361D01*
X4476374Y-2895670D01*
X4515744Y-2895670D01*
G37*
G36*
X4578737Y-2852361D02*
G01*
X4539367Y-2852361D01*
X4539367Y-2895670D01*
X4578737Y-2895670D01*
G37*
G36*
X5185037Y-2852361D02*
G01*
X5145667Y-2852361D01*
X5145667Y-2895670D01*
X5185037Y-2895670D01*
G37*
G36*
X5248028Y-2852361D02*
G01*
X5208658Y-2852361D01*
X5208658Y-2895670D01*
X5248028Y-2895670D01*
G37*
G36*
X6051178Y-2852361D02*
G01*
X6011808Y-2852361D01*
X6011808Y-2895670D01*
X6051178Y-2895670D01*
G37*
G36*
X6114170Y-2852361D02*
G01*
X6074799Y-2852361D01*
X6074799Y-2895670D01*
X6114170Y-2895670D01*
G37*
G36*
X6917320Y-2852361D02*
G01*
X6877950Y-2852361D01*
X6877950Y-2895670D01*
X6917320Y-2895670D01*
G37*
G36*
X6980312Y-2852361D02*
G01*
X6940941Y-2852361D01*
X6940941Y-2895670D01*
X6980312Y-2895670D01*
G37*
G36*
X7783462Y-2852361D02*
G01*
X7744092Y-2852361D01*
X7744092Y-2895670D01*
X7783462Y-2895670D01*
G37*
G36*
X7846454Y-2852361D02*
G01*
X7807084Y-2852361D01*
X7807084Y-2895670D01*
X7846454Y-2895670D01*
G37*
G36*
X877953Y-3761804D02*
G01*
X917323Y-3761804D01*
X917323Y-3718496D01*
X877953Y-3718496D01*
G37*
G36*
X814961Y-3761804D02*
G01*
X854332Y-3761804D01*
X854332Y-3718496D01*
X814961Y-3718496D01*
G37*
G36*
X1744093Y-3761804D02*
G01*
X1783464Y-3761804D01*
X1783464Y-3718496D01*
X1744093Y-3718496D01*
G37*
G36*
X1681102Y-3761804D02*
G01*
X1720471Y-3761804D01*
X1720471Y-3718496D01*
X1681102Y-3718496D01*
G37*
G36*
X2610234Y-3761804D02*
G01*
X2649603Y-3761804D01*
X2649603Y-3718496D01*
X2610234Y-3718496D01*
G37*
G36*
X2547241Y-3761804D02*
G01*
X2586611Y-3761804D01*
X2586611Y-3718496D01*
X2547241Y-3718496D01*
G37*
G36*
X3476373Y-3761804D02*
G01*
X3515744Y-3761804D01*
X3515744Y-3718496D01*
X3476373Y-3718496D01*
G37*
G36*
X3413382Y-3761804D02*
G01*
X3452752Y-3761804D01*
X3452752Y-3718496D01*
X3413382Y-3718496D01*
G37*
G36*
X4539372Y-3761812D02*
G01*
X4578743Y-3761812D01*
X4578743Y-3718503D01*
X4539372Y-3718503D01*
G37*
G36*
X4476381Y-3761812D02*
G01*
X4515751Y-3761812D01*
X4515751Y-3718503D01*
X4476381Y-3718503D01*
G37*
G36*
X5208665Y-3761812D02*
G01*
X5248035Y-3761812D01*
X5248035Y-3718503D01*
X5208665Y-3718503D01*
G37*
G36*
X5145672Y-3761812D02*
G01*
X5185042Y-3761812D01*
X5185042Y-3718503D01*
X5145672Y-3718503D01*
G37*
G36*
X6074805Y-3761812D02*
G01*
X6114175Y-3761812D01*
X6114175Y-3718503D01*
X6074805Y-3718503D01*
G37*
G36*
X6011814Y-3761812D02*
G01*
X6051184Y-3761812D01*
X6051184Y-3718503D01*
X6011814Y-3718503D01*
G37*
G36*
X6940947Y-3761812D02*
G01*
X6980317Y-3761812D01*
X6980317Y-3718503D01*
X6940947Y-3718503D01*
G37*
G36*
X6877956Y-3761812D02*
G01*
X6917326Y-3761812D01*
X6917326Y-3718503D01*
X6877956Y-3718503D01*
G37*
G36*
X7807089Y-3761812D02*
G01*
X7846459Y-3761812D01*
X7846459Y-3718503D01*
X7807089Y-3718503D01*
G37*
G36*
X7744098Y-3761812D02*
G01*
X7783468Y-3761812D01*
X7783468Y-3718503D01*
X7744098Y-3718503D01*
G37*
G36*
X854326Y-4584636D02*
G01*
X814956Y-4584636D01*
X814956Y-4627944D01*
X854326Y-4627944D01*
G37*
G36*
X917317Y-4584636D02*
G01*
X877947Y-4584636D01*
X877947Y-4627944D01*
X917317Y-4627944D01*
G37*
G36*
X1720465Y-4584636D02*
G01*
X1681095Y-4584636D01*
X1681095Y-4627944D01*
X1720465Y-4627944D01*
G37*
G36*
X1783458Y-4584636D02*
G01*
X1744088Y-4584636D01*
X1744088Y-4627944D01*
X1783458Y-4627944D01*
G37*
G36*
X2586606Y-4584636D02*
G01*
X2547236Y-4584636D01*
X2547236Y-4627944D01*
X2586606Y-4627944D01*
G37*
G36*
X2649597Y-4584636D02*
G01*
X2610227Y-4584636D01*
X2610227Y-4627944D01*
X2649597Y-4627944D01*
G37*
G36*
X3452745Y-4584636D02*
G01*
X3413375Y-4584636D01*
X3413375Y-4627944D01*
X3452745Y-4627944D01*
G37*
G36*
X3515738Y-4584636D02*
G01*
X3476368Y-4584636D01*
X3476368Y-4627944D01*
X3515738Y-4627944D01*
G37*
G36*
X4515744Y-4584645D02*
G01*
X4476374Y-4584645D01*
X4476374Y-4627953D01*
X4515744Y-4627953D01*
G37*
G36*
X4578737Y-4584645D02*
G01*
X4539367Y-4584645D01*
X4539367Y-4627953D01*
X4578737Y-4627953D01*
G37*
G36*
X5185037Y-4584645D02*
G01*
X5145667Y-4584645D01*
X5145667Y-4627953D01*
X5185037Y-4627953D01*
G37*
G36*
X5248028Y-4584645D02*
G01*
X5208658Y-4584645D01*
X5208658Y-4627953D01*
X5248028Y-4627953D01*
G37*
G36*
X6051178Y-4584645D02*
G01*
X6011808Y-4584645D01*
X6011808Y-4627953D01*
X6051178Y-4627953D01*
G37*
G36*
X6114170Y-4584645D02*
G01*
X6074799Y-4584645D01*
X6074799Y-4627953D01*
X6114170Y-4627953D01*
G37*
G36*
X6917320Y-4584645D02*
G01*
X6877950Y-4584645D01*
X6877950Y-4627953D01*
X6917320Y-4627953D01*
G37*
G36*
X6980312Y-4584645D02*
G01*
X6940941Y-4584645D01*
X6940941Y-4627953D01*
X6980312Y-4627953D01*
G37*
G36*
X7783462Y-4584645D02*
G01*
X7744092Y-4584645D01*
X7744092Y-4627953D01*
X7783462Y-4627953D01*
G37*
G36*
X7846454Y-4584645D02*
G01*
X7807084Y-4584645D01*
X7807084Y-4627953D01*
X7846454Y-4627953D01*
G37*
G36*
X877953Y-5494083D02*
G01*
X917323Y-5494083D01*
X917323Y-5450776D01*
X877953Y-5450776D01*
G37*
G36*
X814961Y-5494083D02*
G01*
X854332Y-5494083D01*
X854332Y-5450776D01*
X814961Y-5450776D01*
G37*
G36*
X1744093Y-5494083D02*
G01*
X1783464Y-5494083D01*
X1783464Y-5450776D01*
X1744093Y-5450776D01*
G37*
G36*
X1681102Y-5494083D02*
G01*
X1720471Y-5494083D01*
X1720471Y-5450776D01*
X1681102Y-5450776D01*
G37*
G36*
X2610234Y-5494083D02*
G01*
X2649603Y-5494083D01*
X2649603Y-5450776D01*
X2610234Y-5450776D01*
G37*
G36*
X2547241Y-5494083D02*
G01*
X2586611Y-5494083D01*
X2586611Y-5450776D01*
X2547241Y-5450776D01*
G37*
G36*
X3476373Y-5494083D02*
G01*
X3515744Y-5494083D01*
X3515744Y-5450776D01*
X3476373Y-5450776D01*
G37*
G36*
X3413382Y-5494083D02*
G01*
X3452752Y-5494083D01*
X3452752Y-5450776D01*
X3413382Y-5450776D01*
G37*
G36*
X4539372Y-5494095D02*
G01*
X4578743Y-5494095D01*
X4578743Y-5450787D01*
X4539372Y-5450787D01*
G37*
G36*
X4476381Y-5494095D02*
G01*
X4515751Y-5494095D01*
X4515751Y-5450787D01*
X4476381Y-5450787D01*
G37*
G36*
X5208665Y-5494095D02*
G01*
X5248035Y-5494095D01*
X5248035Y-5450787D01*
X5208665Y-5450787D01*
G37*
G36*
X5145672Y-5494095D02*
G01*
X5185042Y-5494095D01*
X5185042Y-5450787D01*
X5145672Y-5450787D01*
G37*
G36*
X6074805Y-5494095D02*
G01*
X6114175Y-5494095D01*
X6114175Y-5450787D01*
X6074805Y-5450787D01*
G37*
G36*
X6011814Y-5494095D02*
G01*
X6051184Y-5494095D01*
X6051184Y-5450787D01*
X6011814Y-5450787D01*
G37*
G36*
X6940947Y-5494095D02*
G01*
X6980317Y-5494095D01*
X6980317Y-5450787D01*
X6940947Y-5450787D01*
G37*
G36*
X6877956Y-5494095D02*
G01*
X6917326Y-5494095D01*
X6917326Y-5450787D01*
X6877956Y-5450787D01*
G37*
G36*
X7807089Y-5494095D02*
G01*
X7846459Y-5494095D01*
X7846459Y-5450787D01*
X7807089Y-5450787D01*
G37*
G36*
X7744098Y-5494095D02*
G01*
X7783468Y-5494095D01*
X7783468Y-5450787D01*
X7744098Y-5450787D01*
G37*
G36*
X854326Y-6316916D02*
G01*
X814956Y-6316916D01*
X814956Y-6360223D01*
X854326Y-6360223D01*
G37*
G36*
X917317Y-6316916D02*
G01*
X877947Y-6316916D01*
X877947Y-6360223D01*
X917317Y-6360223D01*
G37*
G36*
X1720465Y-6316916D02*
G01*
X1681095Y-6316916D01*
X1681095Y-6360223D01*
X1720465Y-6360223D01*
G37*
G36*
X1783458Y-6316916D02*
G01*
X1744088Y-6316916D01*
X1744088Y-6360223D01*
X1783458Y-6360223D01*
G37*
G36*
X2586606Y-6316916D02*
G01*
X2547236Y-6316916D01*
X2547236Y-6360223D01*
X2586606Y-6360223D01*
G37*
G36*
X2649597Y-6316916D02*
G01*
X2610227Y-6316916D01*
X2610227Y-6360223D01*
X2649597Y-6360223D01*
G37*
G36*
X3452745Y-6316916D02*
G01*
X3413375Y-6316916D01*
X3413375Y-6360223D01*
X3452745Y-6360223D01*
G37*
G36*
X3515738Y-6316916D02*
G01*
X3476368Y-6316916D01*
X3476368Y-6360223D01*
X3515738Y-6360223D01*
G37*
G36*
X4515744Y-6316929D02*
G01*
X4476374Y-6316929D01*
X4476374Y-6360236D01*
X4515744Y-6360236D01*
G37*
G36*
X4578737Y-6316929D02*
G01*
X4539367Y-6316929D01*
X4539367Y-6360236D01*
X4578737Y-6360236D01*
G37*
G36*
X5185037Y-6316929D02*
G01*
X5145667Y-6316929D01*
X5145667Y-6360236D01*
X5185037Y-6360236D01*
G37*
G36*
X5248028Y-6316929D02*
G01*
X5208658Y-6316929D01*
X5208658Y-6360236D01*
X5248028Y-6360236D01*
G37*
G36*
X6051178Y-6316929D02*
G01*
X6011808Y-6316929D01*
X6011808Y-6360236D01*
X6051178Y-6360236D01*
G37*
G36*
X6114170Y-6316929D02*
G01*
X6074799Y-6316929D01*
X6074799Y-6360236D01*
X6114170Y-6360236D01*
G37*
G36*
X6917320Y-6316929D02*
G01*
X6877950Y-6316929D01*
X6877950Y-6360236D01*
X6917320Y-6360236D01*
G37*
G36*
X6980312Y-6316929D02*
G01*
X6940941Y-6316929D01*
X6940941Y-6360236D01*
X6980312Y-6360236D01*
G37*
G36*
X7783462Y-6316929D02*
G01*
X7744092Y-6316929D01*
X7744092Y-6360236D01*
X7783462Y-6360236D01*
G37*
G36*
X7846454Y-6316929D02*
G01*
X7807084Y-6316929D01*
X7807084Y-6360236D01*
X7846454Y-6360236D01*
G37*
G36*
X877953Y-7226364D02*
G01*
X917323Y-7226364D01*
X917323Y-7183056D01*
X877953Y-7183056D01*
G37*
G36*
X814961Y-7226364D02*
G01*
X854332Y-7226364D01*
X854332Y-7183056D01*
X814961Y-7183056D01*
G37*
G36*
X1744093Y-7226364D02*
G01*
X1783464Y-7226364D01*
X1783464Y-7183056D01*
X1744093Y-7183056D01*
G37*
G36*
X1681102Y-7226364D02*
G01*
X1720471Y-7226364D01*
X1720471Y-7183056D01*
X1681102Y-7183056D01*
G37*
G36*
X2610234Y-7226364D02*
G01*
X2649603Y-7226364D01*
X2649603Y-7183056D01*
X2610234Y-7183056D01*
G37*
G36*
X2547241Y-7226364D02*
G01*
X2586611Y-7226364D01*
X2586611Y-7183056D01*
X2547241Y-7183056D01*
G37*
G36*
X3476373Y-7226364D02*
G01*
X3515744Y-7226364D01*
X3515744Y-7183056D01*
X3476373Y-7183056D01*
G37*
G36*
X3413382Y-7226364D02*
G01*
X3452752Y-7226364D01*
X3452752Y-7183056D01*
X3413382Y-7183056D01*
G37*
G36*
X4539372Y-7226379D02*
G01*
X4578743Y-7226379D01*
X4578743Y-7183071D01*
X4539372Y-7183071D01*
G37*
G36*
X4476381Y-7226379D02*
G01*
X4515751Y-7226379D01*
X4515751Y-7183071D01*
X4476381Y-7183071D01*
G37*
G36*
X5208665Y-7226379D02*
G01*
X5248035Y-7226379D01*
X5248035Y-7183071D01*
X5208665Y-7183071D01*
G37*
G36*
X5145672Y-7226379D02*
G01*
X5185042Y-7226379D01*
X5185042Y-7183071D01*
X5145672Y-7183071D01*
G37*
G36*
X6074805Y-7226379D02*
G01*
X6114175Y-7226379D01*
X6114175Y-7183071D01*
X6074805Y-7183071D01*
G37*
G36*
X6011814Y-7226379D02*
G01*
X6051184Y-7226379D01*
X6051184Y-7183071D01*
X6011814Y-7183071D01*
G37*
G36*
X6940947Y-7226379D02*
G01*
X6980317Y-7226379D01*
X6980317Y-7183071D01*
X6940947Y-7183071D01*
G37*
G36*
X6877956Y-7226379D02*
G01*
X6917326Y-7226379D01*
X6917326Y-7183071D01*
X6877956Y-7183071D01*
G37*
G36*
X7807089Y-7226379D02*
G01*
X7846459Y-7226379D01*
X7846459Y-7183071D01*
X7807089Y-7183071D01*
G37*
G36*
X7744098Y-7226379D02*
G01*
X7783468Y-7226379D01*
X7783468Y-7183071D01*
X7744098Y-7183071D01*
G37*
G36*
X854326Y-8049211D02*
G01*
X814956Y-8049211D01*
X814956Y-8092519D01*
X854326Y-8092519D01*
G37*
G36*
X917317Y-8049211D02*
G01*
X877947Y-8049211D01*
X877947Y-8092519D01*
X917317Y-8092519D01*
G37*
G36*
X1462599Y-7783461D02*
G01*
X1462599Y-7744090D01*
X1419291Y-7744090D01*
X1419291Y-7783461D01*
G37*
G36*
X1462599Y-7846453D02*
G01*
X1462599Y-7807082D01*
X1419291Y-7807082D01*
X1419291Y-7846453D01*
G37*
G36*
X2586606Y-8049211D02*
G01*
X2547236Y-8049211D01*
X2547236Y-8092519D01*
X2586606Y-8092519D01*
G37*
G36*
X2649597Y-8049211D02*
G01*
X2610227Y-8049211D01*
X2610227Y-8092519D01*
X2649597Y-8092519D01*
G37*
G36*
X3452745Y-8049196D02*
G01*
X3413375Y-8049196D01*
X3413375Y-8092503D01*
X3452745Y-8092503D01*
G37*
G36*
X3515738Y-8049196D02*
G01*
X3476368Y-8049196D01*
X3476368Y-8092503D01*
X3515738Y-8092503D01*
G37*
G36*
X4515744Y-8049211D02*
G01*
X4476374Y-8049211D01*
X4476374Y-8092519D01*
X4515744Y-8092519D01*
G37*
G36*
X4578737Y-8049211D02*
G01*
X4539367Y-8049211D01*
X4539367Y-8092519D01*
X4578737Y-8092519D01*
G37*
G36*
X5185036Y-8049211D02*
G01*
X5145666Y-8049211D01*
X5145666Y-8092519D01*
X5185036Y-8092519D01*
G37*
G36*
X5248028Y-8049211D02*
G01*
X5208657Y-8049211D01*
X5208657Y-8092519D01*
X5248028Y-8092519D01*
G37*
G36*
X6051178Y-8049211D02*
G01*
X6011808Y-8049211D01*
X6011808Y-8092519D01*
X6051178Y-8092519D01*
G37*
G36*
X6114170Y-8049211D02*
G01*
X6074799Y-8049211D01*
X6074799Y-8092519D01*
X6114170Y-8092519D01*
G37*
G36*
X6917347Y-8049396D02*
G01*
X6877977Y-8049396D01*
X6877977Y-8092703D01*
X6917347Y-8092703D01*
G37*
G36*
X6980339Y-8049396D02*
G01*
X6940968Y-8049396D01*
X6940968Y-8092703D01*
X6980339Y-8092703D01*
G37*
G36*
X7783462Y-8049196D02*
G01*
X7744092Y-8049196D01*
X7744092Y-8092503D01*
X7783462Y-8092503D01*
G37*
G36*
X7846454Y-8049196D02*
G01*
X7807084Y-8049196D01*
X7807084Y-8092503D01*
X7846454Y-8092503D01*
G37*
G36*
X657477Y-1120077D02*
G01*
X618107Y-1120077D01*
X618107Y-1163386D01*
X657477Y-1163386D01*
G37*
G36*
X720468Y-1120077D02*
G01*
X681098Y-1120077D01*
X681098Y-1163386D01*
X720468Y-1163386D01*
G37*
G36*
X1523618Y-1120078D02*
G01*
X1484248Y-1120078D01*
X1484248Y-1163386D01*
X1523618Y-1163386D01*
G37*
G36*
X1586611Y-1120078D02*
G01*
X1547241Y-1120078D01*
X1547241Y-1163386D01*
X1586611Y-1163386D01*
G37*
G36*
X2389760Y-1120077D02*
G01*
X2350390Y-1120077D01*
X2350390Y-1163386D01*
X2389760Y-1163386D01*
G37*
G36*
X2452753Y-1120077D02*
G01*
X2413383Y-1120077D01*
X2413383Y-1163386D01*
X2452753Y-1163386D01*
G37*
G36*
X3279530Y-1163386D02*
G01*
X3318900Y-1163386D01*
X3318900Y-1120077D01*
X3279530Y-1120077D01*
G37*
G36*
X3216539Y-1163386D02*
G01*
X3255909Y-1163386D01*
X3255909Y-1120077D01*
X3216539Y-1120077D01*
G37*
G36*
X4342523Y-1163386D02*
G01*
X4381893Y-1163386D01*
X4381893Y-1120077D01*
X4342523Y-1120077D01*
G37*
G36*
X4279530Y-1163386D02*
G01*
X4318900Y-1163386D01*
X4318900Y-1120077D01*
X4279530Y-1120077D01*
G37*
G36*
X5011814Y-1163386D02*
G01*
X5051184Y-1163386D01*
X5051184Y-1120077D01*
X5011814Y-1120077D01*
G37*
G36*
X4948822Y-1163386D02*
G01*
X4988191Y-1163386D01*
X4988191Y-1120077D01*
X4948822Y-1120077D01*
G37*
G36*
X5877956Y-1163386D02*
G01*
X5917326Y-1163386D01*
X5917326Y-1120077D01*
X5877956Y-1120077D01*
G37*
G36*
X5814964Y-1163386D02*
G01*
X5854333Y-1163386D01*
X5854333Y-1120077D01*
X5814964Y-1120077D01*
G37*
G36*
X6744098Y-1163386D02*
G01*
X6783468Y-1163386D01*
X6783468Y-1120077D01*
X6744098Y-1120077D01*
G37*
G36*
X6681106Y-1163386D02*
G01*
X6720475Y-1163386D01*
X6720475Y-1120077D01*
X6681106Y-1120077D01*
G37*
G36*
X7610239Y-1163386D02*
G01*
X7649609Y-1163386D01*
X7649609Y-1120077D01*
X7610239Y-1120077D01*
G37*
G36*
X7547246Y-1163386D02*
G01*
X7586616Y-1163386D01*
X7586616Y-1120077D01*
X7547246Y-1120077D01*
G37*
G36*
X657476Y-1986220D02*
G01*
X618105Y-1986220D01*
X618105Y-2029528D01*
X657476Y-2029528D01*
G37*
G36*
X720468Y-1986220D02*
G01*
X681098Y-1986220D01*
X681098Y-2029528D01*
X720468Y-2029528D01*
G37*
G36*
X1523620Y-1986220D02*
G01*
X1484250Y-1986220D01*
X1484250Y-2029528D01*
X1523620Y-2029528D01*
G37*
G36*
X1586611Y-1986220D02*
G01*
X1547241Y-1986220D01*
X1547241Y-2029528D01*
X1586611Y-2029528D01*
G37*
G36*
X2389760Y-1986219D02*
G01*
X2350390Y-1986219D01*
X2350390Y-2029526D01*
X2389760Y-2029526D01*
G37*
G36*
X2452753Y-1986219D02*
G01*
X2413383Y-1986219D01*
X2413383Y-2029526D01*
X2452753Y-2029526D01*
G37*
G36*
X3255896Y-1986215D02*
G01*
X3216526Y-1986215D01*
X3216526Y-2029524D01*
X3255896Y-2029524D01*
G37*
G36*
X3318887Y-1986215D02*
G01*
X3279517Y-1986215D01*
X3279517Y-2029524D01*
X3318887Y-2029524D01*
G37*
G36*
X4318895Y-1986220D02*
G01*
X4279525Y-1986220D01*
X4279525Y-2029528D01*
X4318895Y-2029528D01*
G37*
G36*
X4381886Y-1986220D02*
G01*
X4342516Y-1986220D01*
X4342516Y-2029528D01*
X4381886Y-2029528D01*
G37*
G36*
X4988185Y-1986220D02*
G01*
X4948815Y-1986220D01*
X4948815Y-2029528D01*
X4988185Y-2029528D01*
G37*
G36*
X5051178Y-1986220D02*
G01*
X5011808Y-1986220D01*
X5011808Y-2029528D01*
X5051178Y-2029528D01*
G37*
G36*
X5877956Y-2029528D02*
G01*
X5917326Y-2029528D01*
X5917326Y-1986220D01*
X5877956Y-1986220D01*
G37*
G36*
X5814964Y-2029528D02*
G01*
X5854333Y-2029528D01*
X5854333Y-1986220D01*
X5814964Y-1986220D01*
G37*
G36*
X6744098Y-2029528D02*
G01*
X6783468Y-2029528D01*
X6783468Y-1986220D01*
X6744098Y-1986220D01*
G37*
G36*
X6681106Y-2029528D02*
G01*
X6720475Y-2029528D01*
X6720475Y-1986220D01*
X6681106Y-1986220D01*
G37*
G36*
X7610239Y-2029528D02*
G01*
X7649609Y-2029528D01*
X7649609Y-1986220D01*
X7610239Y-1986220D01*
G37*
G36*
X7547246Y-2029528D02*
G01*
X7586616Y-2029528D01*
X7586616Y-1986220D01*
X7547246Y-1986220D01*
G37*
G36*
X657476Y-2852354D02*
G01*
X618105Y-2852354D01*
X618105Y-2895662D01*
X657476Y-2895662D01*
G37*
G36*
X720468Y-2852354D02*
G01*
X681098Y-2852354D01*
X681098Y-2895662D01*
X720468Y-2895662D01*
G37*
G36*
X1523616Y-2852356D02*
G01*
X1484246Y-2852356D01*
X1484246Y-2895664D01*
X1523616Y-2895664D01*
G37*
G36*
X1586607Y-2852356D02*
G01*
X1547237Y-2852356D01*
X1547237Y-2895664D01*
X1586607Y-2895664D01*
G37*
G36*
X2389755Y-2852356D02*
G01*
X2350385Y-2852356D01*
X2350385Y-2895664D01*
X2389755Y-2895664D01*
G37*
G36*
X2452748Y-2852356D02*
G01*
X2413378Y-2852356D01*
X2413378Y-2895664D01*
X2452748Y-2895664D01*
G37*
G36*
X3279524Y-2895664D02*
G01*
X3318894Y-2895664D01*
X3318894Y-2852356D01*
X3279524Y-2852356D01*
G37*
G36*
X3216531Y-2895664D02*
G01*
X3255901Y-2895664D01*
X3255901Y-2852356D01*
X3216531Y-2852356D01*
G37*
G36*
X4342523Y-2895670D02*
G01*
X4381893Y-2895670D01*
X4381893Y-2852361D01*
X4342523Y-2852361D01*
G37*
G36*
X4279530Y-2895670D02*
G01*
X4318900Y-2895670D01*
X4318900Y-2852361D01*
X4279530Y-2852361D01*
G37*
G36*
X5011814Y-2895670D02*
G01*
X5051184Y-2895670D01*
X5051184Y-2852361D01*
X5011814Y-2852361D01*
G37*
G36*
X4948822Y-2895670D02*
G01*
X4988191Y-2895670D01*
X4988191Y-2852361D01*
X4948822Y-2852361D01*
G37*
G36*
X5877956Y-2895670D02*
G01*
X5917326Y-2895670D01*
X5917326Y-2852361D01*
X5877956Y-2852361D01*
G37*
G36*
X5814964Y-2895670D02*
G01*
X5854333Y-2895670D01*
X5854333Y-2852361D01*
X5814964Y-2852361D01*
G37*
G36*
X6744098Y-2895670D02*
G01*
X6783468Y-2895670D01*
X6783468Y-2852361D01*
X6744098Y-2852361D01*
G37*
G36*
X6681106Y-2895670D02*
G01*
X6720475Y-2895670D01*
X6720475Y-2852361D01*
X6681106Y-2852361D01*
G37*
G36*
X7610239Y-2895670D02*
G01*
X7649609Y-2895670D01*
X7649609Y-2852361D01*
X7610239Y-2852361D01*
G37*
G36*
X7547246Y-2895670D02*
G01*
X7586616Y-2895670D01*
X7586616Y-2852361D01*
X7547246Y-2852361D01*
G37*
G36*
X657476Y-3718496D02*
G01*
X618105Y-3718496D01*
X618105Y-3761804D01*
X657476Y-3761804D01*
G37*
G36*
X720468Y-3718496D02*
G01*
X681098Y-3718496D01*
X681098Y-3761804D01*
X720468Y-3761804D01*
G37*
G36*
X1523616Y-3718496D02*
G01*
X1484246Y-3718496D01*
X1484246Y-3761804D01*
X1523616Y-3761804D01*
G37*
G36*
X1586607Y-3718496D02*
G01*
X1547237Y-3718496D01*
X1547237Y-3761804D01*
X1586607Y-3761804D01*
G37*
G36*
X2389755Y-3718496D02*
G01*
X2350385Y-3718496D01*
X2350385Y-3761804D01*
X2389755Y-3761804D01*
G37*
G36*
X2452748Y-3718496D02*
G01*
X2413378Y-3718496D01*
X2413378Y-3761804D01*
X2452748Y-3761804D01*
G37*
G36*
X3255896Y-3718496D02*
G01*
X3216526Y-3718496D01*
X3216526Y-3761804D01*
X3255896Y-3761804D01*
G37*
G36*
X3318887Y-3718496D02*
G01*
X3279517Y-3718496D01*
X3279517Y-3761804D01*
X3318887Y-3761804D01*
G37*
G36*
X4318895Y-3718503D02*
G01*
X4279525Y-3718503D01*
X4279525Y-3761812D01*
X4318895Y-3761812D01*
G37*
G36*
X4381886Y-3718503D02*
G01*
X4342516Y-3718503D01*
X4342516Y-3761812D01*
X4381886Y-3761812D01*
G37*
G36*
X4988185Y-3718503D02*
G01*
X4948815Y-3718503D01*
X4948815Y-3761812D01*
X4988185Y-3761812D01*
G37*
G36*
X5051178Y-3718503D02*
G01*
X5011808Y-3718503D01*
X5011808Y-3761812D01*
X5051178Y-3761812D01*
G37*
G36*
X5877956Y-3761812D02*
G01*
X5917326Y-3761812D01*
X5917326Y-3718503D01*
X5877956Y-3718503D01*
G37*
G36*
X5814964Y-3761812D02*
G01*
X5854333Y-3761812D01*
X5854333Y-3718503D01*
X5814964Y-3718503D01*
G37*
G36*
X6744098Y-3761812D02*
G01*
X6783468Y-3761812D01*
X6783468Y-3718503D01*
X6744098Y-3718503D01*
G37*
G36*
X6681106Y-3761812D02*
G01*
X6720475Y-3761812D01*
X6720475Y-3718503D01*
X6681106Y-3718503D01*
G37*
G36*
X7610239Y-3761812D02*
G01*
X7649609Y-3761812D01*
X7649609Y-3718503D01*
X7610239Y-3718503D01*
G37*
G36*
X7547246Y-3761812D02*
G01*
X7586616Y-3761812D01*
X7586616Y-3718503D01*
X7547246Y-3718503D01*
G37*
G36*
X657476Y-4584636D02*
G01*
X618105Y-4584636D01*
X618105Y-4627944D01*
X657476Y-4627944D01*
G37*
G36*
X720468Y-4584636D02*
G01*
X681098Y-4584636D01*
X681098Y-4627944D01*
X720468Y-4627944D01*
G37*
G36*
X1523616Y-4584636D02*
G01*
X1484246Y-4584636D01*
X1484246Y-4627944D01*
X1523616Y-4627944D01*
G37*
G36*
X1586607Y-4584636D02*
G01*
X1547237Y-4584636D01*
X1547237Y-4627944D01*
X1586607Y-4627944D01*
G37*
G36*
X2389755Y-4584636D02*
G01*
X2350385Y-4584636D01*
X2350385Y-4627944D01*
X2389755Y-4627944D01*
G37*
G36*
X2452748Y-4584636D02*
G01*
X2413378Y-4584636D01*
X2413378Y-4627944D01*
X2452748Y-4627944D01*
G37*
G36*
X3279524Y-4627944D02*
G01*
X3318894Y-4627944D01*
X3318894Y-4584636D01*
X3279524Y-4584636D01*
G37*
G36*
X3216531Y-4627944D02*
G01*
X3255901Y-4627944D01*
X3255901Y-4584636D01*
X3216531Y-4584636D01*
G37*
G36*
X4342523Y-4627953D02*
G01*
X4381893Y-4627953D01*
X4381893Y-4584645D01*
X4342523Y-4584645D01*
G37*
G36*
X4279530Y-4627953D02*
G01*
X4318900Y-4627953D01*
X4318900Y-4584645D01*
X4279530Y-4584645D01*
G37*
G36*
X5011814Y-4627953D02*
G01*
X5051184Y-4627953D01*
X5051184Y-4584645D01*
X5011814Y-4584645D01*
G37*
G36*
X4948822Y-4627953D02*
G01*
X4988191Y-4627953D01*
X4988191Y-4584645D01*
X4948822Y-4584645D01*
G37*
G36*
X5877956Y-4627953D02*
G01*
X5917326Y-4627953D01*
X5917326Y-4584645D01*
X5877956Y-4584645D01*
G37*
G36*
X5814964Y-4627953D02*
G01*
X5854333Y-4627953D01*
X5854333Y-4584645D01*
X5814964Y-4584645D01*
G37*
G36*
X6744098Y-4627953D02*
G01*
X6783468Y-4627953D01*
X6783468Y-4584645D01*
X6744098Y-4584645D01*
G37*
G36*
X6681106Y-4627953D02*
G01*
X6720475Y-4627953D01*
X6720475Y-4584645D01*
X6681106Y-4584645D01*
G37*
G36*
X7610239Y-4627953D02*
G01*
X7649609Y-4627953D01*
X7649609Y-4584645D01*
X7610239Y-4584645D01*
G37*
G36*
X7547246Y-4627953D02*
G01*
X7586616Y-4627953D01*
X7586616Y-4584645D01*
X7547246Y-4584645D01*
G37*
G36*
X657476Y-5450776D02*
G01*
X618105Y-5450776D01*
X618105Y-5494083D01*
X657476Y-5494083D01*
G37*
G36*
X720468Y-5450776D02*
G01*
X681098Y-5450776D01*
X681098Y-5494083D01*
X720468Y-5494083D01*
G37*
G36*
X1523616Y-5450776D02*
G01*
X1484246Y-5450776D01*
X1484246Y-5494083D01*
X1523616Y-5494083D01*
G37*
G36*
X1586607Y-5450776D02*
G01*
X1547237Y-5450776D01*
X1547237Y-5494083D01*
X1586607Y-5494083D01*
G37*
G36*
X2389755Y-5450776D02*
G01*
X2350385Y-5450776D01*
X2350385Y-5494083D01*
X2389755Y-5494083D01*
G37*
G36*
X2452748Y-5450776D02*
G01*
X2413378Y-5450776D01*
X2413378Y-5494083D01*
X2452748Y-5494083D01*
G37*
G36*
X3255896Y-5450776D02*
G01*
X3216526Y-5450776D01*
X3216526Y-5494083D01*
X3255896Y-5494083D01*
G37*
G36*
X3318887Y-5450776D02*
G01*
X3279517Y-5450776D01*
X3279517Y-5494083D01*
X3318887Y-5494083D01*
G37*
G36*
X4318895Y-5450787D02*
G01*
X4279525Y-5450787D01*
X4279525Y-5494095D01*
X4318895Y-5494095D01*
G37*
G36*
X4381886Y-5450787D02*
G01*
X4342516Y-5450787D01*
X4342516Y-5494095D01*
X4381886Y-5494095D01*
G37*
G36*
X4988185Y-5450787D02*
G01*
X4948815Y-5450787D01*
X4948815Y-5494095D01*
X4988185Y-5494095D01*
G37*
G36*
X5051178Y-5450787D02*
G01*
X5011808Y-5450787D01*
X5011808Y-5494095D01*
X5051178Y-5494095D01*
G37*
G36*
X5877956Y-5494095D02*
G01*
X5917326Y-5494095D01*
X5917326Y-5450787D01*
X5877956Y-5450787D01*
G37*
G36*
X5814964Y-5494095D02*
G01*
X5854333Y-5494095D01*
X5854333Y-5450787D01*
X5814964Y-5450787D01*
G37*
G36*
X6744098Y-5494095D02*
G01*
X6783468Y-5494095D01*
X6783468Y-5450787D01*
X6744098Y-5450787D01*
G37*
G36*
X6681106Y-5494095D02*
G01*
X6720475Y-5494095D01*
X6720475Y-5450787D01*
X6681106Y-5450787D01*
G37*
G36*
X7610239Y-5494095D02*
G01*
X7649609Y-5494095D01*
X7649609Y-5450787D01*
X7610239Y-5450787D01*
G37*
G36*
X7547246Y-5494095D02*
G01*
X7586616Y-5494095D01*
X7586616Y-5450787D01*
X7547246Y-5450787D01*
G37*
G36*
X657476Y-6316916D02*
G01*
X618105Y-6316916D01*
X618105Y-6360223D01*
X657476Y-6360223D01*
G37*
G36*
X720468Y-6316916D02*
G01*
X681098Y-6316916D01*
X681098Y-6360223D01*
X720468Y-6360223D01*
G37*
G36*
X1523616Y-6316916D02*
G01*
X1484246Y-6316916D01*
X1484246Y-6360223D01*
X1523616Y-6360223D01*
G37*
G36*
X1586607Y-6316916D02*
G01*
X1547237Y-6316916D01*
X1547237Y-6360223D01*
X1586607Y-6360223D01*
G37*
G36*
X2389755Y-6316916D02*
G01*
X2350385Y-6316916D01*
X2350385Y-6360223D01*
X2389755Y-6360223D01*
G37*
G36*
X2452748Y-6316916D02*
G01*
X2413378Y-6316916D01*
X2413378Y-6360223D01*
X2452748Y-6360223D01*
G37*
G36*
X3279524Y-6360223D02*
G01*
X3318894Y-6360223D01*
X3318894Y-6316916D01*
X3279524Y-6316916D01*
G37*
G36*
X3216531Y-6360223D02*
G01*
X3255901Y-6360223D01*
X3255901Y-6316916D01*
X3216531Y-6316916D01*
G37*
G36*
X4342523Y-6360236D02*
G01*
X4381893Y-6360236D01*
X4381893Y-6316929D01*
X4342523Y-6316929D01*
G37*
G36*
X4279530Y-6360236D02*
G01*
X4318900Y-6360236D01*
X4318900Y-6316929D01*
X4279530Y-6316929D01*
G37*
G36*
X5011814Y-6360236D02*
G01*
X5051184Y-6360236D01*
X5051184Y-6316929D01*
X5011814Y-6316929D01*
G37*
G36*
X4948822Y-6360236D02*
G01*
X4988191Y-6360236D01*
X4988191Y-6316929D01*
X4948822Y-6316929D01*
G37*
G36*
X5877956Y-6360236D02*
G01*
X5917326Y-6360236D01*
X5917326Y-6316929D01*
X5877956Y-6316929D01*
G37*
G36*
X5814964Y-6360236D02*
G01*
X5854333Y-6360236D01*
X5854333Y-6316929D01*
X5814964Y-6316929D01*
G37*
G36*
X6744098Y-6360236D02*
G01*
X6783468Y-6360236D01*
X6783468Y-6316929D01*
X6744098Y-6316929D01*
G37*
G36*
X6681106Y-6360236D02*
G01*
X6720475Y-6360236D01*
X6720475Y-6316929D01*
X6681106Y-6316929D01*
G37*
G36*
X7610239Y-6360236D02*
G01*
X7649609Y-6360236D01*
X7649609Y-6316929D01*
X7610239Y-6316929D01*
G37*
G36*
X7547246Y-6360236D02*
G01*
X7586616Y-6360236D01*
X7586616Y-6316929D01*
X7547246Y-6316929D01*
G37*
G36*
X657476Y-7183056D02*
G01*
X618105Y-7183056D01*
X618105Y-7226364D01*
X657476Y-7226364D01*
G37*
G36*
X720468Y-7183056D02*
G01*
X681098Y-7183056D01*
X681098Y-7226364D01*
X720468Y-7226364D01*
G37*
G36*
X1523616Y-7183056D02*
G01*
X1484246Y-7183056D01*
X1484246Y-7226364D01*
X1523616Y-7226364D01*
G37*
G36*
X1586607Y-7183056D02*
G01*
X1547237Y-7183056D01*
X1547237Y-7226364D01*
X1586607Y-7226364D01*
G37*
G36*
X2389755Y-7183056D02*
G01*
X2350385Y-7183056D01*
X2350385Y-7226364D01*
X2389755Y-7226364D01*
G37*
G36*
X2452748Y-7183056D02*
G01*
X2413378Y-7183056D01*
X2413378Y-7226364D01*
X2452748Y-7226364D01*
G37*
G36*
X3255896Y-7183056D02*
G01*
X3216526Y-7183056D01*
X3216526Y-7226364D01*
X3255896Y-7226364D01*
G37*
G36*
X3318887Y-7183056D02*
G01*
X3279517Y-7183056D01*
X3279517Y-7226364D01*
X3318887Y-7226364D01*
G37*
G36*
X4318895Y-7183071D02*
G01*
X4279525Y-7183071D01*
X4279525Y-7226379D01*
X4318895Y-7226379D01*
G37*
G36*
X4381886Y-7183071D02*
G01*
X4342516Y-7183071D01*
X4342516Y-7226379D01*
X4381886Y-7226379D01*
G37*
G36*
X4988185Y-7183071D02*
G01*
X4948815Y-7183071D01*
X4948815Y-7226379D01*
X4988185Y-7226379D01*
G37*
G36*
X5051178Y-7183071D02*
G01*
X5011808Y-7183071D01*
X5011808Y-7226379D01*
X5051178Y-7226379D01*
G37*
G36*
X5877956Y-7226379D02*
G01*
X5917326Y-7226379D01*
X5917326Y-7183071D01*
X5877956Y-7183071D01*
G37*
G36*
X5814964Y-7226379D02*
G01*
X5854333Y-7226379D01*
X5854333Y-7183071D01*
X5814964Y-7183071D01*
G37*
G36*
X6744098Y-7226379D02*
G01*
X6783468Y-7226379D01*
X6783468Y-7183071D01*
X6744098Y-7183071D01*
G37*
G36*
X6681106Y-7226379D02*
G01*
X6720475Y-7226379D01*
X6720475Y-7183071D01*
X6681106Y-7183071D01*
G37*
G36*
X7610239Y-7226379D02*
G01*
X7649609Y-7226379D01*
X7649609Y-7183071D01*
X7610239Y-7183071D01*
G37*
G36*
X7547246Y-7226379D02*
G01*
X7586616Y-7226379D01*
X7586616Y-7183071D01*
X7547246Y-7183071D01*
G37*
G36*
X657476Y-8049211D02*
G01*
X618105Y-8049211D01*
X618105Y-8092519D01*
X657476Y-8092519D01*
G37*
G36*
X720468Y-8049211D02*
G01*
X681098Y-8049211D01*
X681098Y-8092519D01*
X720468Y-8092519D01*
G37*
G36*
X1312989Y-7783445D02*
G01*
X1312989Y-7744076D01*
X1269682Y-7744076D01*
X1269682Y-7783445D01*
G37*
G36*
X1312989Y-7846437D02*
G01*
X1312989Y-7807067D01*
X1269682Y-7807067D01*
X1269682Y-7846437D01*
G37*
G36*
X3279524Y-8092503D02*
G01*
X3318894Y-8092503D01*
X3318894Y-8049196D01*
X3279524Y-8049196D01*
G37*
G36*
X3216531Y-8092503D02*
G01*
X3255901Y-8092503D01*
X3255901Y-8049196D01*
X3216531Y-8049196D01*
G37*
G36*
X4342523Y-8092519D02*
G01*
X4381893Y-8092519D01*
X4381893Y-8049211D01*
X4342523Y-8049211D01*
G37*
G36*
X4279530Y-8092519D02*
G01*
X4318900Y-8092519D01*
X4318900Y-8049211D01*
X4279530Y-8049211D01*
G37*
G36*
X5011810Y-8092519D02*
G01*
X5051180Y-8092519D01*
X5051180Y-8049211D01*
X5011810Y-8049211D01*
G37*
G36*
X4948819Y-8092519D02*
G01*
X4988189Y-8092519D01*
X4988189Y-8049211D01*
X4948819Y-8049211D01*
G37*
G36*
X5877956Y-8092519D02*
G01*
X5917326Y-8092519D01*
X5917326Y-8049211D01*
X5877956Y-8049211D01*
G37*
G36*
X5814964Y-8092519D02*
G01*
X5854333Y-8092519D01*
X5854333Y-8049211D01*
X5814964Y-8049211D01*
G37*
G36*
X6744097Y-8092519D02*
G01*
X6783467Y-8092519D01*
X6783467Y-8049211D01*
X6744097Y-8049211D01*
G37*
G36*
X6681104Y-8092519D02*
G01*
X6720474Y-8092519D01*
X6720474Y-8049211D01*
X6681104Y-8049211D01*
G37*
G36*
X7610223Y-8092502D02*
G01*
X7649593Y-8092502D01*
X7649593Y-8049194D01*
X7610223Y-8049194D01*
G37*
G36*
X7547232Y-8092502D02*
G01*
X7586602Y-8092502D01*
X7586602Y-8049194D01*
X7547232Y-8049194D01*
G37*
G36*
X1120078Y-877955D02*
G01*
X1120078Y-917326D01*
X1163386Y-917326D01*
X1163386Y-877955D01*
G37*
G36*
X1120078Y-814964D02*
G01*
X1120078Y-854333D01*
X1163386Y-854333D01*
X1163386Y-814964D01*
G37*
G36*
X1986220Y-877955D02*
G01*
X1986220Y-917326D01*
X2029528Y-917326D01*
X2029528Y-877955D01*
G37*
G36*
X1986220Y-814964D02*
G01*
X1986220Y-854333D01*
X2029528Y-854333D01*
X2029528Y-814964D01*
G37*
G36*
X2852362Y-877955D02*
G01*
X2852362Y-917326D01*
X2895670Y-917326D01*
X2895670Y-877955D01*
G37*
G36*
X2852362Y-814964D02*
G01*
X2852362Y-854333D01*
X2895670Y-854333D01*
X2895670Y-814964D01*
G37*
G36*
X3167322Y-877957D02*
G01*
X3167322Y-917327D01*
X3210630Y-917327D01*
X3210630Y-877957D01*
G37*
G36*
X3167322Y-814965D02*
G01*
X3167322Y-854335D01*
X3210630Y-854335D01*
X3210630Y-814965D01*
G37*
G36*
X4584645Y-877955D02*
G01*
X4584645Y-917326D01*
X4627952Y-917326D01*
X4627952Y-877955D01*
G37*
G36*
X4584645Y-814964D02*
G01*
X4584645Y-854333D01*
X4627952Y-854333D01*
X4627952Y-814964D01*
G37*
G36*
X5450787Y-877955D02*
G01*
X5450787Y-917326D01*
X5494094Y-917326D01*
X5494094Y-877955D01*
G37*
G36*
X5450787Y-814964D02*
G01*
X5450787Y-854333D01*
X5494094Y-854333D01*
X5494094Y-814964D01*
G37*
G36*
X6360236Y-854328D02*
G01*
X6360236Y-814958D01*
X6316929Y-814958D01*
X6316929Y-854328D01*
G37*
G36*
X6360236Y-917319D02*
G01*
X6360236Y-877950D01*
X6316929Y-877950D01*
X6316929Y-917319D01*
G37*
G36*
X7226378Y-854328D02*
G01*
X7226378Y-814958D01*
X7183071Y-814958D01*
X7183071Y-854328D01*
G37*
G36*
X7226378Y-917319D02*
G01*
X7226378Y-877950D01*
X7183071Y-877950D01*
X7183071Y-917319D01*
G37*
G36*
X8092520Y-854328D02*
G01*
X8092520Y-814958D01*
X8049211Y-814958D01*
X8049211Y-854328D01*
G37*
G36*
X8092520Y-917319D02*
G01*
X8092520Y-877950D01*
X8049211Y-877950D01*
X8049211Y-917319D01*
G37*
G36*
X1120075Y-1744094D02*
G01*
X1120075Y-1783464D01*
X1163383Y-1783464D01*
X1163383Y-1744094D01*
G37*
G36*
X1120075Y-1681102D02*
G01*
X1120075Y-1720471D01*
X1163383Y-1720471D01*
X1163383Y-1681102D01*
G37*
G36*
X1986216Y-1744094D02*
G01*
X1986216Y-1783464D01*
X2029524Y-1783464D01*
X2029524Y-1744094D01*
G37*
G36*
X1986216Y-1681102D02*
G01*
X1986216Y-1720471D01*
X2029524Y-1720471D01*
X2029524Y-1681102D01*
G37*
G36*
X2852356Y-1744094D02*
G01*
X2852356Y-1783464D01*
X2895663Y-1783464D01*
X2895663Y-1744094D01*
G37*
G36*
X2852356Y-1681102D02*
G01*
X2852356Y-1720471D01*
X2895663Y-1720471D01*
X2895663Y-1681102D01*
G37*
G36*
X3167316Y-1744094D02*
G01*
X3167316Y-1783464D01*
X3210623Y-1783464D01*
X3210623Y-1744094D01*
G37*
G36*
X3167316Y-1681102D02*
G01*
X3167316Y-1720471D01*
X3210623Y-1720471D01*
X3210623Y-1681102D01*
G37*
G36*
X4584645Y-1744097D02*
G01*
X4584645Y-1783467D01*
X4627952Y-1783467D01*
X4627952Y-1744097D01*
G37*
G36*
X4584645Y-1681105D02*
G01*
X4584645Y-1720475D01*
X4627952Y-1720475D01*
X4627952Y-1681105D01*
G37*
G36*
X5450787Y-1744097D02*
G01*
X5450787Y-1783467D01*
X5494094Y-1783467D01*
X5494094Y-1744097D01*
G37*
G36*
X5450787Y-1681105D02*
G01*
X5450787Y-1720475D01*
X5494094Y-1720475D01*
X5494094Y-1681105D01*
G37*
G36*
X6316929Y-1744097D02*
G01*
X6316929Y-1783467D01*
X6360236Y-1783467D01*
X6360236Y-1744097D01*
G37*
G36*
X6316929Y-1681105D02*
G01*
X6316929Y-1720475D01*
X6360236Y-1720475D01*
X6360236Y-1681105D01*
G37*
G36*
X7183071Y-1744097D02*
G01*
X7183071Y-1783467D01*
X7226378Y-1783467D01*
X7226378Y-1744097D01*
G37*
G36*
X7183071Y-1681105D02*
G01*
X7183071Y-1720475D01*
X7226378Y-1720475D01*
X7226378Y-1681105D01*
G37*
G36*
X8049211Y-1744097D02*
G01*
X8049211Y-1783467D01*
X8092520Y-1783467D01*
X8092520Y-1744097D01*
G37*
G36*
X8049211Y-1681105D02*
G01*
X8049211Y-1720475D01*
X8092520Y-1720475D01*
X8092520Y-1681105D01*
G37*
G36*
X1163383Y-2586606D02*
G01*
X1163383Y-2547235D01*
X1120075Y-2547235D01*
X1120075Y-2586606D01*
G37*
G36*
X1163383Y-2649597D02*
G01*
X1163383Y-2610228D01*
X1120075Y-2610228D01*
X1120075Y-2649597D01*
G37*
G36*
X2029524Y-2586606D02*
G01*
X2029524Y-2547235D01*
X1986216Y-2547235D01*
X1986216Y-2586606D01*
G37*
G36*
X2029524Y-2649597D02*
G01*
X2029524Y-2610228D01*
X1986216Y-2610228D01*
X1986216Y-2649597D01*
G37*
G36*
X2895663Y-2586606D02*
G01*
X2895663Y-2547235D01*
X2852356Y-2547235D01*
X2852356Y-2586606D01*
G37*
G36*
X2895663Y-2649597D02*
G01*
X2895663Y-2610228D01*
X2852356Y-2610228D01*
X2852356Y-2649597D01*
G37*
G36*
X3210623Y-2586606D02*
G01*
X3210623Y-2547235D01*
X3167316Y-2547235D01*
X3167316Y-2586606D01*
G37*
G36*
X3210623Y-2649597D02*
G01*
X3210623Y-2610228D01*
X3167316Y-2610228D01*
X3167316Y-2649597D01*
G37*
G36*
X4627952Y-2586610D02*
G01*
X4627952Y-2547240D01*
X4584645Y-2547240D01*
X4584645Y-2586610D01*
G37*
G36*
X4627952Y-2649603D02*
G01*
X4627952Y-2610232D01*
X4584645Y-2610232D01*
X4584645Y-2649603D01*
G37*
G36*
X5494094Y-2586610D02*
G01*
X5494094Y-2547240D01*
X5450787Y-2547240D01*
X5450787Y-2586610D01*
G37*
G36*
X5494094Y-2649603D02*
G01*
X5494094Y-2610232D01*
X5450787Y-2610232D01*
X5450787Y-2649603D01*
G37*
G36*
X6360236Y-2586610D02*
G01*
X6360236Y-2547240D01*
X6316929Y-2547240D01*
X6316929Y-2586610D01*
G37*
G36*
X6360236Y-2649603D02*
G01*
X6360236Y-2610232D01*
X6316929Y-2610232D01*
X6316929Y-2649603D01*
G37*
G36*
X7226378Y-2586610D02*
G01*
X7226378Y-2547240D01*
X7183071Y-2547240D01*
X7183071Y-2586610D01*
G37*
G36*
X7226378Y-2649603D02*
G01*
X7226378Y-2610232D01*
X7183071Y-2610232D01*
X7183071Y-2649603D01*
G37*
G36*
X8092520Y-2586610D02*
G01*
X8092520Y-2547240D01*
X8049211Y-2547240D01*
X8049211Y-2586610D01*
G37*
G36*
X8092520Y-2649603D02*
G01*
X8092520Y-2610232D01*
X8049211Y-2610232D01*
X8049211Y-2649603D01*
G37*
G36*
X1120075Y-3476374D02*
G01*
X1120075Y-3515743D01*
X1163383Y-3515743D01*
X1163383Y-3476374D01*
G37*
G36*
X1120075Y-3413382D02*
G01*
X1120075Y-3452752D01*
X1163383Y-3452752D01*
X1163383Y-3413382D01*
G37*
G36*
X1986216Y-3476374D02*
G01*
X1986216Y-3515743D01*
X2029524Y-3515743D01*
X2029524Y-3476374D01*
G37*
G36*
X1986216Y-3413382D02*
G01*
X1986216Y-3452752D01*
X2029524Y-3452752D01*
X2029524Y-3413382D01*
G37*
G36*
X2852356Y-3476374D02*
G01*
X2852356Y-3515743D01*
X2895663Y-3515743D01*
X2895663Y-3476374D01*
G37*
G36*
X2852356Y-3413382D02*
G01*
X2852356Y-3452752D01*
X2895663Y-3452752D01*
X2895663Y-3413382D01*
G37*
G36*
X3167316Y-3476374D02*
G01*
X3167316Y-3515743D01*
X3210623Y-3515743D01*
X3210623Y-3476374D01*
G37*
G36*
X3167316Y-3413382D02*
G01*
X3167316Y-3452752D01*
X3210623Y-3452752D01*
X3210623Y-3413382D01*
G37*
G36*
X4584645Y-3476381D02*
G01*
X4584645Y-3515751D01*
X4627952Y-3515751D01*
X4627952Y-3476381D01*
G37*
G36*
X4584645Y-3413389D02*
G01*
X4584645Y-3452759D01*
X4627952Y-3452759D01*
X4627952Y-3413389D01*
G37*
G36*
X5450787Y-3476381D02*
G01*
X5450787Y-3515751D01*
X5494094Y-3515751D01*
X5494094Y-3476381D01*
G37*
G36*
X5450787Y-3413389D02*
G01*
X5450787Y-3452759D01*
X5494094Y-3452759D01*
X5494094Y-3413389D01*
G37*
G36*
X6316929Y-3476381D02*
G01*
X6316929Y-3515751D01*
X6360236Y-3515751D01*
X6360236Y-3476381D01*
G37*
G36*
X6316929Y-3413389D02*
G01*
X6316929Y-3452759D01*
X6360236Y-3452759D01*
X6360236Y-3413389D01*
G37*
G36*
X7183071Y-3476381D02*
G01*
X7183071Y-3515751D01*
X7226378Y-3515751D01*
X7226378Y-3476381D01*
G37*
G36*
X7183071Y-3413389D02*
G01*
X7183071Y-3452759D01*
X7226378Y-3452759D01*
X7226378Y-3413389D01*
G37*
G36*
X8049211Y-3476381D02*
G01*
X8049211Y-3515751D01*
X8092520Y-3515751D01*
X8092520Y-3476381D01*
G37*
G36*
X8049211Y-3413389D02*
G01*
X8049211Y-3452759D01*
X8092520Y-3452759D01*
X8092520Y-3413389D01*
G37*
G36*
X1163383Y-4318886D02*
G01*
X1163383Y-4279515D01*
X1120075Y-4279515D01*
X1120075Y-4318886D01*
G37*
G36*
X1163383Y-4381878D02*
G01*
X1163383Y-4342507D01*
X1120075Y-4342507D01*
X1120075Y-4381878D01*
G37*
G36*
X2029524Y-4318886D02*
G01*
X2029524Y-4279515D01*
X1986216Y-4279515D01*
X1986216Y-4318886D01*
G37*
G36*
X2029524Y-4381878D02*
G01*
X2029524Y-4342507D01*
X1986216Y-4342507D01*
X1986216Y-4381878D01*
G37*
G36*
X2895663Y-4318886D02*
G01*
X2895663Y-4279515D01*
X2852356Y-4279515D01*
X2852356Y-4318886D01*
G37*
G36*
X2895663Y-4381878D02*
G01*
X2895663Y-4342507D01*
X2852356Y-4342507D01*
X2852356Y-4381878D01*
G37*
G36*
X3210623Y-4318886D02*
G01*
X3210623Y-4279515D01*
X3167316Y-4279515D01*
X3167316Y-4318886D01*
G37*
G36*
X3210623Y-4381878D02*
G01*
X3210623Y-4342507D01*
X3167316Y-4342507D01*
X3167316Y-4381878D01*
G37*
G36*
X4627952Y-4318895D02*
G01*
X4627952Y-4279524D01*
X4584645Y-4279524D01*
X4584645Y-4318895D01*
G37*
G36*
X4627952Y-4381887D02*
G01*
X4627952Y-4342516D01*
X4584645Y-4342516D01*
X4584645Y-4381887D01*
G37*
G36*
X5494094Y-4318895D02*
G01*
X5494094Y-4279524D01*
X5450787Y-4279524D01*
X5450787Y-4318895D01*
G37*
G36*
X5494094Y-4381887D02*
G01*
X5494094Y-4342516D01*
X5450787Y-4342516D01*
X5450787Y-4381887D01*
G37*
G36*
X6360236Y-4318895D02*
G01*
X6360236Y-4279524D01*
X6316929Y-4279524D01*
X6316929Y-4318895D01*
G37*
G36*
X6360236Y-4381887D02*
G01*
X6360236Y-4342516D01*
X6316929Y-4342516D01*
X6316929Y-4381887D01*
G37*
G36*
X7226378Y-4318895D02*
G01*
X7226378Y-4279524D01*
X7183071Y-4279524D01*
X7183071Y-4318895D01*
G37*
G36*
X7226378Y-4381887D02*
G01*
X7226378Y-4342516D01*
X7183071Y-4342516D01*
X7183071Y-4381887D01*
G37*
G36*
X8092520Y-4318895D02*
G01*
X8092520Y-4279524D01*
X8049211Y-4279524D01*
X8049211Y-4318895D01*
G37*
G36*
X8092520Y-4381887D02*
G01*
X8092520Y-4342516D01*
X8049211Y-4342516D01*
X8049211Y-4381887D01*
G37*
G36*
X1120075Y-5208654D02*
G01*
X1120075Y-5248024D01*
X1163383Y-5248024D01*
X1163383Y-5208654D01*
G37*
G36*
X1120075Y-5145661D02*
G01*
X1120075Y-5185032D01*
X1163383Y-5185032D01*
X1163383Y-5145661D01*
G37*
G36*
X1986216Y-5208654D02*
G01*
X1986216Y-5248024D01*
X2029524Y-5248024D01*
X2029524Y-5208654D01*
G37*
G36*
X1986216Y-5145661D02*
G01*
X1986216Y-5185032D01*
X2029524Y-5185032D01*
X2029524Y-5145661D01*
G37*
G36*
X2852356Y-5208654D02*
G01*
X2852356Y-5248024D01*
X2895663Y-5248024D01*
X2895663Y-5208654D01*
G37*
G36*
X2852356Y-5145661D02*
G01*
X2852356Y-5185032D01*
X2895663Y-5185032D01*
X2895663Y-5145661D01*
G37*
G36*
X3167316Y-5208654D02*
G01*
X3167316Y-5248024D01*
X3210623Y-5248024D01*
X3210623Y-5208654D01*
G37*
G36*
X3167316Y-5145661D02*
G01*
X3167316Y-5185032D01*
X3210623Y-5185032D01*
X3210623Y-5145661D01*
G37*
G36*
X4584645Y-5208665D02*
G01*
X4584645Y-5248035D01*
X4627952Y-5248035D01*
X4627952Y-5208665D01*
G37*
G36*
X4584645Y-5145673D02*
G01*
X4584645Y-5185043D01*
X4627952Y-5185043D01*
X4627952Y-5145673D01*
G37*
G36*
X5450787Y-5208665D02*
G01*
X5450787Y-5248035D01*
X5494094Y-5248035D01*
X5494094Y-5208665D01*
G37*
G36*
X5450787Y-5145673D02*
G01*
X5450787Y-5185043D01*
X5494094Y-5185043D01*
X5494094Y-5145673D01*
G37*
G36*
X6316929Y-5208665D02*
G01*
X6316929Y-5248035D01*
X6360236Y-5248035D01*
X6360236Y-5208665D01*
G37*
G36*
X6316929Y-5145673D02*
G01*
X6316929Y-5185043D01*
X6360236Y-5185043D01*
X6360236Y-5145673D01*
G37*
G36*
X7183071Y-5208665D02*
G01*
X7183071Y-5248035D01*
X7226378Y-5248035D01*
X7226378Y-5208665D01*
G37*
G36*
X7183071Y-5145673D02*
G01*
X7183071Y-5185043D01*
X7226378Y-5185043D01*
X7226378Y-5145673D01*
G37*
G36*
X8049211Y-5208665D02*
G01*
X8049211Y-5248035D01*
X8092520Y-5248035D01*
X8092520Y-5208665D01*
G37*
G36*
X8049211Y-5145673D02*
G01*
X8049211Y-5185043D01*
X8092520Y-5185043D01*
X8092520Y-5145673D01*
G37*
G36*
X1163383Y-6051165D02*
G01*
X1163383Y-6011796D01*
X1120075Y-6011796D01*
X1120075Y-6051165D01*
G37*
G36*
X1163383Y-6114158D02*
G01*
X1163383Y-6074787D01*
X1120075Y-6074787D01*
X1120075Y-6114158D01*
G37*
G36*
X2029524Y-6051165D02*
G01*
X2029524Y-6011796D01*
X1986216Y-6011796D01*
X1986216Y-6051165D01*
G37*
G36*
X2029524Y-6114158D02*
G01*
X2029524Y-6074787D01*
X1986216Y-6074787D01*
X1986216Y-6114158D01*
G37*
G36*
X2895663Y-6051165D02*
G01*
X2895663Y-6011796D01*
X2852356Y-6011796D01*
X2852356Y-6051165D01*
G37*
G36*
X2895663Y-6114158D02*
G01*
X2895663Y-6074787D01*
X2852356Y-6074787D01*
X2852356Y-6114158D01*
G37*
G36*
X3210623Y-6051165D02*
G01*
X3210623Y-6011796D01*
X3167316Y-6011796D01*
X3167316Y-6051165D01*
G37*
G36*
X3210623Y-6114158D02*
G01*
X3210623Y-6074787D01*
X3167316Y-6074787D01*
X3167316Y-6114158D01*
G37*
G36*
X4627952Y-6051178D02*
G01*
X4627952Y-6011808D01*
X4584645Y-6011808D01*
X4584645Y-6051178D01*
G37*
G36*
X4627952Y-6114169D02*
G01*
X4627952Y-6074800D01*
X4584645Y-6074800D01*
X4584645Y-6114169D01*
G37*
G36*
X5494094Y-6051178D02*
G01*
X5494094Y-6011808D01*
X5450787Y-6011808D01*
X5450787Y-6051178D01*
G37*
G36*
X5494094Y-6114169D02*
G01*
X5494094Y-6074800D01*
X5450787Y-6074800D01*
X5450787Y-6114169D01*
G37*
G36*
X6360236Y-6051178D02*
G01*
X6360236Y-6011808D01*
X6316929Y-6011808D01*
X6316929Y-6051178D01*
G37*
G36*
X6360236Y-6114169D02*
G01*
X6360236Y-6074800D01*
X6316929Y-6074800D01*
X6316929Y-6114169D01*
G37*
G36*
X7226378Y-6051178D02*
G01*
X7226378Y-6011808D01*
X7183071Y-6011808D01*
X7183071Y-6051178D01*
G37*
G36*
X7226378Y-6114169D02*
G01*
X7226378Y-6074800D01*
X7183071Y-6074800D01*
X7183071Y-6114169D01*
G37*
G36*
X8092520Y-6051178D02*
G01*
X8092520Y-6011808D01*
X8049211Y-6011808D01*
X8049211Y-6051178D01*
G37*
G36*
X8092520Y-6114169D02*
G01*
X8092520Y-6074800D01*
X8049211Y-6074800D01*
X8049211Y-6114169D01*
G37*
G36*
X1120075Y-6940934D02*
G01*
X1120075Y-6980304D01*
X1163383Y-6980304D01*
X1163383Y-6940934D01*
G37*
G36*
X1120075Y-6877941D02*
G01*
X1120075Y-6917312D01*
X1163383Y-6917312D01*
X1163383Y-6877941D01*
G37*
G36*
X1986216Y-6940934D02*
G01*
X1986216Y-6980304D01*
X2029524Y-6980304D01*
X2029524Y-6940934D01*
G37*
G36*
X1986216Y-6877941D02*
G01*
X1986216Y-6917312D01*
X2029524Y-6917312D01*
X2029524Y-6877941D01*
G37*
G36*
X2852356Y-6940934D02*
G01*
X2852356Y-6980304D01*
X2895663Y-6980304D01*
X2895663Y-6940934D01*
G37*
G36*
X2852356Y-6877941D02*
G01*
X2852356Y-6917312D01*
X2895663Y-6917312D01*
X2895663Y-6877941D01*
G37*
G36*
X3167316Y-6940934D02*
G01*
X3167316Y-6980304D01*
X3210623Y-6980304D01*
X3210623Y-6940934D01*
G37*
G36*
X3167316Y-6877941D02*
G01*
X3167316Y-6917312D01*
X3210623Y-6917312D01*
X3210623Y-6877941D01*
G37*
G36*
X4584645Y-6940947D02*
G01*
X4584645Y-6980317D01*
X4627952Y-6980317D01*
X4627952Y-6940947D01*
G37*
G36*
X4584645Y-6877955D02*
G01*
X4584645Y-6917326D01*
X4627952Y-6917326D01*
X4627952Y-6877955D01*
G37*
G36*
X5450787Y-6940947D02*
G01*
X5450787Y-6980317D01*
X5494094Y-6980317D01*
X5494094Y-6940947D01*
G37*
G36*
X5450787Y-6877955D02*
G01*
X5450787Y-6917326D01*
X5494094Y-6917326D01*
X5494094Y-6877955D01*
G37*
G36*
X6316929Y-6940947D02*
G01*
X6316929Y-6980317D01*
X6360236Y-6980317D01*
X6360236Y-6940947D01*
G37*
G36*
X6316929Y-6877955D02*
G01*
X6316929Y-6917326D01*
X6360236Y-6917326D01*
X6360236Y-6877955D01*
G37*
G36*
X7183071Y-6940947D02*
G01*
X7183071Y-6980317D01*
X7226378Y-6980317D01*
X7226378Y-6940947D01*
G37*
G36*
X7183071Y-6877955D02*
G01*
X7183071Y-6917326D01*
X7226378Y-6917326D01*
X7226378Y-6877955D01*
G37*
G36*
X8049211Y-6940947D02*
G01*
X8049211Y-6980317D01*
X8092520Y-6980317D01*
X8092520Y-6940947D01*
G37*
G36*
X8049211Y-6877955D02*
G01*
X8049211Y-6917326D01*
X8092520Y-6917326D01*
X8092520Y-6877955D01*
G37*
G36*
X1163383Y-7783445D02*
G01*
X1163383Y-7744076D01*
X1120075Y-7744076D01*
X1120075Y-7783445D01*
G37*
G36*
X1163383Y-7846437D02*
G01*
X1163383Y-7807067D01*
X1120075Y-7807067D01*
X1120075Y-7846437D01*
G37*
G36*
X2029524Y-7783462D02*
G01*
X2029524Y-7744092D01*
X1986216Y-7744092D01*
X1986216Y-7783462D01*
G37*
G36*
X2029524Y-7846453D02*
G01*
X2029524Y-7807084D01*
X1986216Y-7807084D01*
X1986216Y-7846453D01*
G37*
G36*
X2895663Y-7783463D02*
G01*
X2895663Y-7744092D01*
X2852356Y-7744092D01*
X2852356Y-7783463D01*
G37*
G36*
X2895663Y-7846455D02*
G01*
X2895663Y-7807085D01*
X2852356Y-7807085D01*
X2852356Y-7846455D01*
G37*
G36*
X3210623Y-7783463D02*
G01*
X3210623Y-7744092D01*
X3167316Y-7744092D01*
X3167316Y-7783463D01*
G37*
G36*
X3210623Y-7846455D02*
G01*
X3210623Y-7807085D01*
X3167316Y-7807085D01*
X3167316Y-7846455D01*
G37*
G36*
X4627952Y-7783462D02*
G01*
X4627952Y-7744092D01*
X4584645Y-7744092D01*
X4584645Y-7783462D01*
G37*
G36*
X4627952Y-7846453D02*
G01*
X4627952Y-7807084D01*
X4584645Y-7807084D01*
X4584645Y-7846453D01*
G37*
G36*
X5494094Y-7783462D02*
G01*
X5494094Y-7744092D01*
X5450787Y-7744092D01*
X5450787Y-7783462D01*
G37*
G36*
X5494094Y-7846453D02*
G01*
X5494094Y-7807084D01*
X5450787Y-7807084D01*
X5450787Y-7846453D01*
G37*
G36*
X6360236Y-7783462D02*
G01*
X6360236Y-7744092D01*
X6316929Y-7744092D01*
X6316929Y-7783462D01*
G37*
G36*
X6360236Y-7846453D02*
G01*
X6360236Y-7807084D01*
X6316929Y-7807084D01*
X6316929Y-7846453D01*
G37*
G36*
X7226378Y-7783462D02*
G01*
X7226378Y-7744092D01*
X7183071Y-7744092D01*
X7183071Y-7783462D01*
G37*
G36*
X7226378Y-7846453D02*
G01*
X7226378Y-7807084D01*
X7183071Y-7807084D01*
X7183071Y-7846453D01*
G37*
G36*
X8092520Y-7783462D02*
G01*
X8092520Y-7744092D01*
X8049211Y-7744092D01*
X8049211Y-7783462D01*
G37*
G36*
X8092520Y-7846453D02*
G01*
X8092520Y-7807084D01*
X8049211Y-7807084D01*
X8049211Y-7846453D01*
G37*
G36*
X610513Y-1468809D02*
G01*
X610513Y-1429439D01*
X567206Y-1429439D01*
X567206Y-1468809D01*
G37*
G36*
X610513Y-1531801D02*
G01*
X610513Y-1492431D01*
X567206Y-1492431D01*
X567206Y-1531801D01*
G37*
G36*
X8210680Y-1476342D02*
G01*
X8210680Y-1436972D01*
X8167371Y-1436972D01*
X8167371Y-1476342D01*
G37*
G36*
X8210680Y-1539335D02*
G01*
X8210680Y-1499965D01*
X8167371Y-1499965D01*
X8167371Y-1539335D01*
G37*
G36*
X612179Y-3200770D02*
G01*
X612179Y-3161399D01*
X568872Y-3161399D01*
X568872Y-3200770D01*
G37*
G36*
X612179Y-3263762D02*
G01*
X612179Y-3224391D01*
X568872Y-3224391D01*
X568872Y-3263762D01*
G37*
G36*
X8214602Y-3212573D02*
G01*
X8214602Y-3173203D01*
X8171293Y-3173203D01*
X8171293Y-3212573D01*
G37*
G36*
X8214602Y-3275565D02*
G01*
X8214602Y-3236196D01*
X8171293Y-3236196D01*
X8171293Y-3275565D01*
G37*
G36*
X612179Y-4940943D02*
G01*
X612179Y-4901574D01*
X568872Y-4901574D01*
X568872Y-4940943D01*
G37*
G36*
X612179Y-5003935D02*
G01*
X612179Y-4964565D01*
X568872Y-4964565D01*
X568872Y-5003935D01*
G37*
G36*
X8226361Y-4948806D02*
G01*
X8226361Y-4909436D01*
X8183054Y-4909436D01*
X8183054Y-4948806D01*
G37*
G36*
X8226361Y-5011797D02*
G01*
X8226361Y-4972428D01*
X8183054Y-4972428D01*
X8183054Y-5011797D01*
G37*
G36*
X612179Y-6665369D02*
G01*
X612179Y-6625999D01*
X568872Y-6625999D01*
X568872Y-6665369D01*
G37*
G36*
X612179Y-6728361D02*
G01*
X612179Y-6688991D01*
X568872Y-6688991D01*
X568872Y-6728361D01*
G37*
G36*
X8234236Y-6673211D02*
G01*
X8234236Y-6633842D01*
X8190928Y-6633842D01*
X8190928Y-6673211D01*
G37*
G36*
X8234236Y-6736203D02*
G01*
X8234236Y-6696833D01*
X8190928Y-6696833D01*
X8190928Y-6736203D01*
G37*
G36*
X612179Y-7665385D02*
G01*
X612179Y-7626016D01*
X568872Y-7626016D01*
X568872Y-7665385D01*
G37*
G36*
X612179Y-7728377D02*
G01*
X612179Y-7689008D01*
X568872Y-7689008D01*
X568872Y-7728377D01*
G37*
G36*
X135426Y-4390738D02*
G01*
X189756Y-4390738D01*
X189756Y-4373020D01*
X135426Y-4373020D01*
G37*
G36*
X135426Y-4365147D02*
G01*
X189756Y-4365147D01*
X189756Y-4347431D01*
X135426Y-4347431D01*
G37*
G36*
X135412Y-4339557D02*
G01*
X189742Y-4339557D01*
X189742Y-4321840D01*
X135412Y-4321840D01*
G37*
G36*
X135426Y-4313968D02*
G01*
X189756Y-4313968D01*
X189756Y-4296251D01*
X135426Y-4296251D01*
G37*
G36*
X135426Y-4288377D02*
G01*
X189756Y-4288377D01*
X189756Y-4270661D01*
X135426Y-4270661D01*
G37*
G36*
X107082Y-4456685D02*
G01*
X189760Y-4456685D01*
X189760Y-4398613D01*
X107082Y-4398613D01*
G37*
G36*
X107082Y-4262784D02*
G01*
X189760Y-4262784D01*
X189760Y-4204714D01*
X107082Y-4204714D01*
G37*
G36*
X20470Y-4492022D02*
G01*
X95273Y-4492022D01*
X95273Y-4398517D01*
X20470Y-4398517D01*
G37*
G36*
X20470Y-4262882D02*
G01*
X95273Y-4262882D01*
X95273Y-4169378D01*
X20470Y-4169378D01*
G37*
G36*
X20470Y-4386900D02*
G01*
X95273Y-4386900D01*
X95273Y-4340639D01*
X20470Y-4340639D01*
G37*
G36*
X20470Y-4320759D02*
G01*
X95273Y-4320759D01*
X95273Y-4274499D01*
X20470Y-4274499D01*
G37*
G36*
X623032Y-1346455D02*
G01*
X573820Y-1346455D01*
X573820Y-1374015D01*
X623032Y-1374015D01*
G37*
G36*
X623032Y-1271655D02*
G01*
X573820Y-1271655D01*
X573820Y-1299214D01*
X623032Y-1299214D01*
G37*
G36*
X701772Y-1309056D02*
G01*
X652559Y-1309056D01*
X652559Y-1336615D01*
X701772Y-1336615D01*
G37*
G36*
X8156500Y-1307089D02*
G01*
X8205712Y-1307089D01*
X8205712Y-1279529D01*
X8156500Y-1279529D01*
G37*
G36*
X8156500Y-1381887D02*
G01*
X8205712Y-1381887D01*
X8205712Y-1354328D01*
X8156500Y-1354328D01*
G37*
G36*
X8077761Y-1344488D02*
G01*
X8126972Y-1344488D01*
X8126972Y-1316929D01*
X8077761Y-1316929D01*
G37*
G36*
X623032Y-3078739D02*
G01*
X573820Y-3078739D01*
X573820Y-3106300D01*
X623032Y-3106300D01*
G37*
G36*
X623032Y-3003940D02*
G01*
X573820Y-3003940D01*
X573820Y-3031500D01*
X623032Y-3031500D01*
G37*
G36*
X701772Y-3041341D02*
G01*
X652559Y-3041341D01*
X652559Y-3068899D01*
X701772Y-3068899D01*
G37*
G36*
X8156480Y-3039365D02*
G01*
X8205691Y-3039365D01*
X8205691Y-3011806D01*
X8156480Y-3011806D01*
G37*
G36*
X8156480Y-3114164D02*
G01*
X8205691Y-3114164D01*
X8205691Y-3086606D01*
X8156480Y-3086606D01*
G37*
G36*
X8077740Y-3076765D02*
G01*
X8126952Y-3076765D01*
X8126952Y-3049205D01*
X8077740Y-3049205D01*
G37*
G36*
X623032Y-4811024D02*
G01*
X573820Y-4811024D01*
X573820Y-4838584D01*
X623032Y-4838584D01*
G37*
G36*
X623032Y-4736224D02*
G01*
X573820Y-4736224D01*
X573820Y-4763784D01*
X623032Y-4763784D01*
G37*
G36*
X701772Y-4773625D02*
G01*
X652559Y-4773625D01*
X652559Y-4801183D01*
X701772Y-4801183D01*
G37*
G36*
X8156480Y-4771646D02*
G01*
X8205691Y-4771646D01*
X8205691Y-4744086D01*
X8156480Y-4744086D01*
G37*
G36*
X8156480Y-4846445D02*
G01*
X8205691Y-4846445D01*
X8205691Y-4818886D01*
X8156480Y-4818886D01*
G37*
G36*
X8077740Y-4809045D02*
G01*
X8126952Y-4809045D01*
X8126952Y-4781486D01*
X8077740Y-4781486D01*
G37*
G36*
X623032Y-6543308D02*
G01*
X573820Y-6543308D01*
X573820Y-6570869D01*
X623032Y-6570869D01*
G37*
G36*
X623032Y-6468510D02*
G01*
X573820Y-6468510D01*
X573820Y-6496069D01*
X623032Y-6496069D01*
G37*
G36*
X701772Y-6505909D02*
G01*
X652559Y-6505909D01*
X652559Y-6533469D01*
X701772Y-6533469D01*
G37*
G36*
X8156480Y-6503926D02*
G01*
X8205691Y-6503926D01*
X8205691Y-6476365D01*
X8156480Y-6476365D01*
G37*
G36*
X8156480Y-6578724D02*
G01*
X8205691Y-6578724D01*
X8205691Y-6551165D01*
X8156480Y-6551165D01*
G37*
G36*
X8077740Y-6541325D02*
G01*
X8126952Y-6541325D01*
X8126952Y-6513766D01*
X8077740Y-6513766D01*
G37*
G36*
X623032Y-7543308D02*
G01*
X573820Y-7543308D01*
X573820Y-7570869D01*
X623032Y-7570869D01*
G37*
G36*
X623032Y-7468510D02*
G01*
X573820Y-7468510D01*
X573820Y-7496069D01*
X623032Y-7496069D01*
G37*
G36*
X701772Y-7505909D02*
G01*
X652559Y-7505909D01*
X652559Y-7533469D01*
X701772Y-7533469D01*
G37*
G36*
X2328735Y-7783461D02*
G01*
X2328735Y-7744090D01*
X2285428Y-7744090D01*
X2285428Y-7783461D01*
G37*
G36*
X2328735Y-7846453D02*
G01*
X2328735Y-7807082D01*
X2285428Y-7807082D01*
X2285428Y-7846453D01*
G37*
M02*
