G04 Layer: TopSolderMaskLayer*
G04 EasyEDA v6.4.19.5, 2021-05-16T17:52:14+02:00*
G04 c7de764b28da46dab1ebef90a77263ec,763424db4a57434484c59f209b4bf891,10*
G04 Gerber Generator version 0.2*
G04 Scale: 100 percent, Rotated: No, Reflected: No *
G04 Dimensions in inches *
G04 leading zeros omitted , absolute positions ,3 integer and 6 decimal *
%FSLAX36Y36*%
%MOIN*%

%ADD43C,0.0660*%
%ADD45C,0.0709*%
%ADD46C,0.0640*%

%LPD*%
G36*
X625700Y-8261300D02*
G01*
X625700Y-8195300D01*
X691700Y-8195300D01*
X691700Y-8261300D01*
G37*
D43*
G01*
X758659Y-8228330D03*
G36*
X347699Y-3418800D02*
G01*
X347699Y-3352800D01*
X413699Y-3352800D01*
X413699Y-3418800D01*
G37*
G01*
X280709Y-3385819D03*
G36*
X8279499Y-7679200D02*
G01*
X8279499Y-7608200D01*
X8350400Y-7608200D01*
X8350400Y-7679200D01*
G37*
D45*
G01*
X8314939Y-7543690D03*
G01*
X8314939Y-7443690D03*
G01*
X8314939Y-7343690D03*
G01*
X8314939Y-7243690D03*
G01*
X8314939Y-7143690D03*
D46*
G01*
X811030Y-7746070D03*
G01*
X921270Y-7746070D03*
G01*
X811030Y-7844490D03*
G01*
X921270Y-7844490D03*
G01*
X1677169Y-7746070D03*
G01*
X1787409Y-7746070D03*
G01*
X1677169Y-7844490D03*
G01*
X1787409Y-7844490D03*
G01*
X2543320Y-7746070D03*
G01*
X2653559Y-7746070D03*
G01*
X2543320Y-7844490D03*
G01*
X2653559Y-7844490D03*
G01*
X3409449Y-7746070D03*
G01*
X3519690Y-7746070D03*
G01*
X3409449Y-7844490D03*
G01*
X3519690Y-7844490D03*
G01*
X4275600Y-7746070D03*
G01*
X4385839Y-7746070D03*
G01*
X4275600Y-7844490D03*
G01*
X4385839Y-7844490D03*
G01*
X5141729Y-7746070D03*
G01*
X5251970Y-7746070D03*
G01*
X5141729Y-7844490D03*
G01*
X5251970Y-7844490D03*
G01*
X6007879Y-7746070D03*
G01*
X6118119Y-7746070D03*
G01*
X6007879Y-7844490D03*
G01*
X6118119Y-7844490D03*
G01*
X6874020Y-7746070D03*
G01*
X6984260Y-7746070D03*
G01*
X6874020Y-7844490D03*
G01*
X6984260Y-7844490D03*
G01*
X7740159Y-7746070D03*
G01*
X7850400Y-7746070D03*
G01*
X7740159Y-7844490D03*
G01*
X7850400Y-7844490D03*
G01*
X933069Y-655509D03*
G01*
X799210Y-655509D03*
G01*
X1799210Y-655509D03*
G01*
X1665349Y-655509D03*
G01*
X2665360Y-655509D03*
G01*
X2531499Y-655509D03*
G01*
X3531499Y-655509D03*
G01*
X3397640Y-655509D03*
G01*
X4397640Y-655509D03*
G01*
X4263779Y-655509D03*
G01*
X5263779Y-655509D03*
G01*
X5129920Y-655509D03*
G01*
X6129920Y-655509D03*
G01*
X5996059Y-655509D03*
G01*
X6996059Y-655509D03*
G01*
X6862200Y-655509D03*
G01*
X7862209Y-655509D03*
G01*
X7728350Y-655509D03*
G01*
X933069Y-1521649D03*
G01*
X799210Y-1521649D03*
G01*
X1799200Y-1521680D03*
G01*
X1665339Y-1521680D03*
G01*
X2665330Y-1521680D03*
G01*
X2531469Y-1521680D03*
G01*
X3531499Y-1521680D03*
G01*
X3397640Y-1521680D03*
G01*
X4397629Y-1521680D03*
G01*
X4263770Y-1521680D03*
G01*
X5263770Y-1521680D03*
G01*
X5129910Y-1521680D03*
G01*
X6129899Y-1521680D03*
G01*
X5996040Y-1521680D03*
G01*
X6996030Y-1521680D03*
G01*
X6862169Y-1521680D03*
G01*
X7862200Y-1521680D03*
G01*
X7728339Y-1521680D03*
G01*
X933059Y-2387800D03*
G01*
X799200Y-2387800D03*
G01*
X1799200Y-2387809D03*
G01*
X1665339Y-2387809D03*
G01*
X2665330Y-2387809D03*
G01*
X2531469Y-2387809D03*
G01*
X3531499Y-2387809D03*
G01*
X3397640Y-2387809D03*
G01*
X4397629Y-2387809D03*
G01*
X4263770Y-2387809D03*
G01*
X5263770Y-2387809D03*
G01*
X5129910Y-2387809D03*
G01*
X6129899Y-2387809D03*
G01*
X5996040Y-2387809D03*
G01*
X6996030Y-2387809D03*
G01*
X6862169Y-2387809D03*
G01*
X7862200Y-2387809D03*
G01*
X7728339Y-2387809D03*
G01*
X933059Y-3253939D03*
G01*
X799200Y-3253939D03*
G01*
X1799200Y-3253950D03*
G01*
X1665339Y-3253950D03*
G01*
X2665330Y-3253950D03*
G01*
X2531469Y-3253950D03*
G01*
X3531499Y-3253950D03*
G01*
X3397640Y-3253950D03*
G01*
X4397629Y-3253950D03*
G01*
X4263770Y-3253950D03*
G01*
X5263770Y-3253950D03*
G01*
X5129910Y-3253950D03*
G01*
X6129899Y-3253950D03*
G01*
X5996040Y-3253950D03*
G01*
X6996030Y-3253950D03*
G01*
X6862169Y-3253950D03*
G01*
X7862200Y-3253950D03*
G01*
X7728339Y-3253950D03*
G01*
X933059Y-4120079D03*
G01*
X799200Y-4120079D03*
G01*
X1799200Y-4120079D03*
G01*
X1665339Y-4120079D03*
G01*
X2665330Y-4120079D03*
G01*
X2531469Y-4120079D03*
G01*
X3531499Y-4120079D03*
G01*
X3397640Y-4120079D03*
G01*
X4397629Y-4120079D03*
G01*
X4263770Y-4120079D03*
G01*
X5263770Y-4120079D03*
G01*
X5129910Y-4120079D03*
G01*
X6129899Y-4120079D03*
G01*
X5996040Y-4120079D03*
G01*
X6996030Y-4120079D03*
G01*
X6862169Y-4120079D03*
G01*
X7862200Y-4120079D03*
G01*
X7728339Y-4120079D03*
G01*
X933059Y-4986219D03*
G01*
X799200Y-4986219D03*
G01*
X1799200Y-4986250D03*
G01*
X1665339Y-4986250D03*
G01*
X2665330Y-4986250D03*
G01*
X2531469Y-4986250D03*
G01*
X3531499Y-4986250D03*
G01*
X3397640Y-4986250D03*
G01*
X4397629Y-4986250D03*
G01*
X4263770Y-4986250D03*
G01*
X5263770Y-4986250D03*
G01*
X5129910Y-4986250D03*
G01*
X6129899Y-4986250D03*
G01*
X5996040Y-4986250D03*
G01*
X6996030Y-4986250D03*
G01*
X6862169Y-4986250D03*
G01*
X7862200Y-4986250D03*
G01*
X7728339Y-4986250D03*
G01*
X933059Y-5852359D03*
G01*
X799200Y-5852359D03*
G01*
X1799200Y-5852379D03*
G01*
X1665339Y-5852379D03*
G01*
X2665330Y-5852379D03*
G01*
X2531469Y-5852379D03*
G01*
X3531499Y-5852379D03*
G01*
X3397640Y-5852379D03*
G01*
X4397629Y-5852379D03*
G01*
X4263770Y-5852379D03*
G01*
X5263770Y-5852379D03*
G01*
X5129910Y-5852379D03*
G01*
X6129899Y-5852379D03*
G01*
X5996040Y-5852379D03*
G01*
X6996030Y-5852379D03*
G01*
X6862169Y-5852379D03*
G01*
X7862200Y-5852379D03*
G01*
X7728339Y-5852379D03*
G01*
X933059Y-6718499D03*
G01*
X799200Y-6718499D03*
G01*
X1799200Y-6718519D03*
G01*
X1665339Y-6718519D03*
G01*
X2665330Y-6718519D03*
G01*
X2531469Y-6718519D03*
G01*
X3531499Y-6718519D03*
G01*
X3397640Y-6718519D03*
G01*
X4397629Y-6718519D03*
G01*
X4263770Y-6718519D03*
G01*
X5263770Y-6718519D03*
G01*
X5129910Y-6718519D03*
G01*
X6129899Y-6718519D03*
G01*
X5996040Y-6718519D03*
G01*
X6996030Y-6718519D03*
G01*
X6862169Y-6718519D03*
G01*
X7862200Y-6718519D03*
G01*
X7728339Y-6718519D03*
G01*
X933059Y-7584650D03*
G01*
X799200Y-7584650D03*
G01*
X1799200Y-7584650D03*
G01*
X1665339Y-7584650D03*
G01*
X2665330Y-7584650D03*
G01*
X2531469Y-7584650D03*
G01*
X3531499Y-7584650D03*
G01*
X3397640Y-7584650D03*
G01*
X4397629Y-7584650D03*
G01*
X4263770Y-7584650D03*
G01*
X5263770Y-7584650D03*
G01*
X5129910Y-7584650D03*
G01*
X6129899Y-7584650D03*
G01*
X5996040Y-7584650D03*
G01*
X6996030Y-7584650D03*
G01*
X6862169Y-7584650D03*
G01*
X7862200Y-7584650D03*
G01*
X7728339Y-7584650D03*
G01*
X811019Y-816930D03*
G01*
X921260Y-816930D03*
G01*
X811019Y-915349D03*
G01*
X921260Y-915349D03*
G01*
X1677169Y-816930D03*
G01*
X1787409Y-816930D03*
G01*
X1677169Y-915349D03*
G01*
X1787409Y-915349D03*
G01*
X2543310Y-816939D03*
G01*
X2653549Y-816939D03*
G01*
X2543310Y-915360D03*
G01*
X2653549Y-915360D03*
G01*
X3409449Y-816939D03*
G01*
X3519690Y-816939D03*
G01*
X3409449Y-915360D03*
G01*
X3519690Y-915360D03*
G01*
X4275590Y-816939D03*
G01*
X4385829Y-816939D03*
G01*
X4275590Y-915360D03*
G01*
X4385829Y-915360D03*
G01*
X5141729Y-816939D03*
G01*
X5251970Y-816939D03*
G01*
X5141729Y-915360D03*
G01*
X5251970Y-915360D03*
G01*
X6007870Y-816939D03*
G01*
X6118109Y-816939D03*
G01*
X6007870Y-915360D03*
G01*
X6118109Y-915360D03*
G01*
X6874020Y-816939D03*
G01*
X6984260Y-816939D03*
G01*
X6874020Y-915360D03*
G01*
X6984260Y-915360D03*
G01*
X7740159Y-816939D03*
G01*
X7850400Y-816939D03*
G01*
X7740159Y-915360D03*
G01*
X7850400Y-915360D03*
G01*
X811019Y-1683080D03*
G01*
X921260Y-1683080D03*
G01*
X811019Y-1781500D03*
G01*
X921260Y-1781500D03*
G01*
X1677169Y-1683080D03*
G01*
X1787409Y-1683080D03*
G01*
X1677169Y-1781500D03*
G01*
X1787409Y-1781500D03*
G01*
X2543310Y-1683080D03*
G01*
X2653549Y-1683080D03*
G01*
X2543310Y-1781500D03*
G01*
X2653549Y-1781500D03*
G01*
X3409449Y-1683080D03*
G01*
X3519690Y-1683080D03*
G01*
X3409449Y-1781500D03*
G01*
X3519690Y-1781500D03*
G01*
X4275600Y-1683080D03*
G01*
X4385839Y-1683080D03*
G01*
X4275600Y-1781500D03*
G01*
X4385839Y-1781500D03*
G01*
X5141729Y-1683080D03*
G01*
X5251970Y-1683080D03*
G01*
X5141729Y-1781500D03*
G01*
X5251970Y-1781500D03*
G01*
X6007879Y-1683080D03*
G01*
X6118119Y-1683080D03*
G01*
X6007879Y-1781500D03*
G01*
X6118119Y-1781500D03*
G01*
X6874020Y-1683080D03*
G01*
X6984260Y-1683080D03*
G01*
X6874020Y-1781500D03*
G01*
X6984260Y-1781500D03*
G01*
X7740159Y-1683080D03*
G01*
X7850400Y-1683080D03*
G01*
X7740159Y-1781500D03*
G01*
X7850400Y-1781500D03*
G01*
X811030Y-4281500D03*
G01*
X921270Y-4281500D03*
G01*
X811030Y-4379920D03*
G01*
X921270Y-4379920D03*
G01*
X1677169Y-4281500D03*
G01*
X1787409Y-4281500D03*
G01*
X1677169Y-4379920D03*
G01*
X1787409Y-4379920D03*
G01*
X2543320Y-4281500D03*
G01*
X2653559Y-4281500D03*
G01*
X2543320Y-4379920D03*
G01*
X2653559Y-4379920D03*
G01*
X3409449Y-4281500D03*
G01*
X3519690Y-4281500D03*
G01*
X3409449Y-4379920D03*
G01*
X3519690Y-4379920D03*
G01*
X4275600Y-4281500D03*
G01*
X4385839Y-4281500D03*
G01*
X4275600Y-4379920D03*
G01*
X4385839Y-4379920D03*
G01*
X5141729Y-4281500D03*
G01*
X5251970Y-4281500D03*
G01*
X5141729Y-4379920D03*
G01*
X5251970Y-4379920D03*
G01*
X6007879Y-4281500D03*
G01*
X6118119Y-4281500D03*
G01*
X6007879Y-4379920D03*
G01*
X6118119Y-4379920D03*
G01*
X6874020Y-4281500D03*
G01*
X6984260Y-4281500D03*
G01*
X6874020Y-4379920D03*
G01*
X6984260Y-4379920D03*
G01*
X7740159Y-4281500D03*
G01*
X7850400Y-4281500D03*
G01*
X7740159Y-4379920D03*
G01*
X7850400Y-4379920D03*
G01*
X811030Y-5147640D03*
G01*
X921270Y-5147640D03*
G01*
X811030Y-5246060D03*
G01*
X921270Y-5246060D03*
G01*
X1677169Y-5147640D03*
G01*
X1787409Y-5147640D03*
G01*
X1677169Y-5246060D03*
G01*
X1787409Y-5246060D03*
G01*
X2543320Y-5147640D03*
G01*
X2653559Y-5147640D03*
G01*
X2543320Y-5246060D03*
G01*
X2653559Y-5246060D03*
G01*
X3409449Y-5147640D03*
G01*
X3519690Y-5147640D03*
G01*
X3409449Y-5246060D03*
G01*
X3519690Y-5246060D03*
G01*
X4275600Y-5147640D03*
G01*
X4385839Y-5147640D03*
G01*
X4275600Y-5246060D03*
G01*
X4385839Y-5246060D03*
G01*
X5141729Y-5147640D03*
G01*
X5251970Y-5147640D03*
G01*
X5141729Y-5246060D03*
G01*
X5251970Y-5246060D03*
G01*
X6007879Y-5147640D03*
G01*
X6118119Y-5147640D03*
G01*
X6007879Y-5246060D03*
G01*
X6118119Y-5246060D03*
G01*
X6874020Y-5147640D03*
G01*
X6984260Y-5147640D03*
G01*
X6874020Y-5246060D03*
G01*
X6984260Y-5246060D03*
G01*
X7740159Y-5147640D03*
G01*
X7850400Y-5147640D03*
G01*
X7740159Y-5246060D03*
G01*
X7850400Y-5246060D03*
G01*
X811030Y-2549220D03*
G01*
X921270Y-2549220D03*
G01*
X811030Y-2647640D03*
G01*
X921270Y-2647640D03*
G01*
X1677169Y-2549220D03*
G01*
X1787409Y-2549220D03*
G01*
X1677169Y-2647640D03*
G01*
X1787409Y-2647640D03*
G01*
X2543320Y-2549220D03*
G01*
X2653559Y-2549220D03*
G01*
X2543320Y-2647640D03*
G01*
X2653559Y-2647640D03*
G01*
X3409449Y-2549220D03*
G01*
X3519690Y-2549220D03*
G01*
X3409449Y-2647640D03*
G01*
X3519690Y-2647640D03*
G01*
X4275600Y-2549220D03*
G01*
X4385839Y-2549220D03*
G01*
X4275600Y-2647640D03*
G01*
X4385839Y-2647640D03*
G01*
X5141729Y-2549220D03*
G01*
X5251970Y-2549220D03*
G01*
X5141729Y-2647640D03*
G01*
X5251970Y-2647640D03*
G01*
X6007879Y-2549220D03*
G01*
X6118119Y-2549220D03*
G01*
X6007879Y-2647640D03*
G01*
X6118119Y-2647640D03*
G01*
X6874020Y-2549220D03*
G01*
X6984260Y-2549220D03*
G01*
X6874020Y-2647640D03*
G01*
X6984260Y-2647640D03*
G01*
X7740159Y-2549220D03*
G01*
X7850400Y-2549220D03*
G01*
X7740159Y-2647640D03*
G01*
X7850400Y-2647640D03*
G01*
X811019Y-3415360D03*
G01*
X921260Y-3415360D03*
G01*
X811019Y-3513780D03*
G01*
X921260Y-3513780D03*
G01*
X1677169Y-3415360D03*
G01*
X1787409Y-3415360D03*
G01*
X1677169Y-3513780D03*
G01*
X1787409Y-3513780D03*
G01*
X2543320Y-3415360D03*
G01*
X2653559Y-3415360D03*
G01*
X2543320Y-3513780D03*
G01*
X2653559Y-3513780D03*
G01*
X3409449Y-3415360D03*
G01*
X3519690Y-3415360D03*
G01*
X3409449Y-3513780D03*
G01*
X3519690Y-3513780D03*
G01*
X4275600Y-3415360D03*
G01*
X4385839Y-3415360D03*
G01*
X4275600Y-3513780D03*
G01*
X4385839Y-3513780D03*
G01*
X5141729Y-3415360D03*
G01*
X5251970Y-3415360D03*
G01*
X5141729Y-3513780D03*
G01*
X5251970Y-3513780D03*
G01*
X6007879Y-3415360D03*
G01*
X6118119Y-3415360D03*
G01*
X6007879Y-3513780D03*
G01*
X6118119Y-3513780D03*
G01*
X6874020Y-3415360D03*
G01*
X6984260Y-3415360D03*
G01*
X6874020Y-3513780D03*
G01*
X6984260Y-3513780D03*
G01*
X7740159Y-3415360D03*
G01*
X7850400Y-3415360D03*
G01*
X7740159Y-3513780D03*
G01*
X7850400Y-3513780D03*
G01*
X811030Y-6013780D03*
G01*
X921270Y-6013780D03*
G01*
X811030Y-6112199D03*
G01*
X921270Y-6112199D03*
G01*
X1677169Y-6013789D03*
G01*
X1787409Y-6013789D03*
G01*
X1677169Y-6112210D03*
G01*
X1787409Y-6112210D03*
G01*
X2543320Y-6013789D03*
G01*
X2653559Y-6013789D03*
G01*
X2543320Y-6112210D03*
G01*
X2653559Y-6112210D03*
G01*
X3409449Y-6013789D03*
G01*
X3519690Y-6013789D03*
G01*
X3409449Y-6112210D03*
G01*
X3519690Y-6112210D03*
G01*
X4275600Y-6013789D03*
G01*
X4385839Y-6013789D03*
G01*
X4275600Y-6112210D03*
G01*
X4385839Y-6112210D03*
G01*
X5141729Y-6013789D03*
G01*
X5251970Y-6013789D03*
G01*
X5141729Y-6112210D03*
G01*
X5251970Y-6112210D03*
G01*
X6007879Y-6013789D03*
G01*
X6118119Y-6013789D03*
G01*
X6007879Y-6112210D03*
G01*
X6118119Y-6112210D03*
G01*
X6874020Y-6013789D03*
G01*
X6984260Y-6013789D03*
G01*
X6874020Y-6112210D03*
G01*
X6984260Y-6112210D03*
G01*
X7740159Y-6013789D03*
G01*
X7850400Y-6013789D03*
G01*
X7740159Y-6112210D03*
G01*
X7850400Y-6112210D03*
G01*
X811030Y-6879929D03*
G01*
X921270Y-6879929D03*
G01*
X811030Y-6978350D03*
G01*
X921270Y-6978350D03*
G01*
X1677169Y-6879929D03*
G01*
X1787409Y-6879929D03*
G01*
X1677169Y-6978350D03*
G01*
X1787409Y-6978350D03*
G01*
X2543320Y-6879929D03*
G01*
X2653559Y-6879929D03*
G01*
X2543320Y-6978350D03*
G01*
X2653559Y-6978350D03*
G01*
X3409449Y-6879929D03*
G01*
X3519690Y-6879929D03*
G01*
X3409449Y-6978350D03*
G01*
X3519690Y-6978350D03*
G01*
X4275600Y-6879929D03*
G01*
X4385839Y-6879929D03*
G01*
X4275600Y-6978350D03*
G01*
X4385839Y-6978350D03*
G01*
X5141729Y-6879929D03*
G01*
X5251970Y-6879929D03*
G01*
X5141729Y-6978350D03*
G01*
X5251970Y-6978350D03*
G01*
X6007879Y-6879929D03*
G01*
X6118119Y-6879929D03*
G01*
X6007879Y-6978350D03*
G01*
X6118119Y-6978350D03*
G01*
X6874020Y-6879929D03*
G01*
X6984260Y-6879929D03*
G01*
X6874020Y-6978350D03*
G01*
X6984260Y-6978350D03*
G01*
X7740159Y-6879929D03*
G01*
X7850400Y-6879929D03*
G01*
X7740159Y-6978350D03*
G01*
X7850400Y-6978350D03*
M02*
