G04 Layer: BottomSolderMaskLayer*
G04 EasyEDA v6.4.19.5, 2021-05-16T17:52:14+02:00*
G04 c7de764b28da46dab1ebef90a77263ec,763424db4a57434484c59f209b4bf891,10*
G04 Gerber Generator version 0.2*
G04 Scale: 100 percent, Rotated: No, Reflected: No *
G04 Dimensions in inches *
G04 leading zeros omitted , absolute positions ,3 integer and 6 decimal *
%FSLAX36Y36*%
%MOIN*%

%ADD43C,0.0660*%
%ADD45C,0.0709*%
%ADD46C,0.0640*%
%ADD47C,0.0276*%
%ADD48C,0.0257*%
%ADD53R,0.0394X0.0434*%

%LPD*%
D47*
X3631031Y-8387600D02*
G01*
X3583788Y-8387600D01*
X3631031Y-8337600D02*
G01*
X3583788Y-8337600D01*
X3631031Y-8287600D02*
G01*
X3583788Y-8287600D01*
X3631031Y-8237600D02*
G01*
X3583788Y-8237600D01*
X3631031Y-8187600D02*
G01*
X3583788Y-8187600D01*
X3631031Y-8137600D02*
G01*
X3583788Y-8137600D01*
X3631031Y-8087600D02*
G01*
X3583788Y-8087600D01*
X3631031Y-8037600D02*
G01*
X3583788Y-8037600D01*
X3865032Y-8387600D02*
G01*
X3817788Y-8387600D01*
X3865032Y-8337600D02*
G01*
X3817788Y-8337600D01*
X3865032Y-8287600D02*
G01*
X3817788Y-8287600D01*
X3865032Y-8237600D02*
G01*
X3817788Y-8237600D01*
X3865032Y-8187600D02*
G01*
X3817788Y-8187600D01*
X3865032Y-8137600D02*
G01*
X3817788Y-8137600D01*
X3865032Y-8087600D02*
G01*
X3817788Y-8087600D01*
X3865032Y-8037600D02*
G01*
X3817788Y-8037600D01*
X3977492Y-8387600D02*
G01*
X3930248Y-8387600D01*
X3977492Y-8337600D02*
G01*
X3930248Y-8337600D01*
X3977492Y-8287600D02*
G01*
X3930248Y-8287600D01*
X3977492Y-8237600D02*
G01*
X3930248Y-8237600D01*
X3977492Y-8187600D02*
G01*
X3930248Y-8187600D01*
X3977492Y-8137600D02*
G01*
X3930248Y-8137600D01*
X3977492Y-8087600D02*
G01*
X3930248Y-8087600D01*
X3977492Y-8037600D02*
G01*
X3930248Y-8037600D01*
X4211491Y-8387600D02*
G01*
X4164247Y-8387600D01*
X4211491Y-8337600D02*
G01*
X4164247Y-8337600D01*
X4211491Y-8287600D02*
G01*
X4164247Y-8287600D01*
X4211491Y-8237600D02*
G01*
X4164247Y-8237600D01*
X4211491Y-8187600D02*
G01*
X4164247Y-8187600D01*
X4211491Y-8137600D02*
G01*
X4164247Y-8137600D01*
X4211491Y-8087600D02*
G01*
X4164247Y-8087600D01*
X4211491Y-8037600D02*
G01*
X4164247Y-8037600D01*
X3991018Y-139960D02*
G01*
X4038262Y-139960D01*
X3991018Y-189960D02*
G01*
X4038262Y-189960D01*
X3991018Y-239960D02*
G01*
X4038262Y-239960D01*
X3991018Y-289960D02*
G01*
X4038262Y-289960D01*
X3991018Y-339960D02*
G01*
X4038262Y-339960D01*
X3991018Y-389960D02*
G01*
X4038262Y-389960D01*
X3991018Y-439960D02*
G01*
X4038262Y-439960D01*
X3991018Y-489960D02*
G01*
X4038262Y-489960D01*
X3757017Y-139960D02*
G01*
X3804261Y-139960D01*
X3757017Y-189960D02*
G01*
X3804261Y-189960D01*
X3757017Y-239960D02*
G01*
X3804261Y-239960D01*
X3757017Y-289960D02*
G01*
X3804261Y-289960D01*
X3757017Y-339960D02*
G01*
X3804261Y-339960D01*
X3757017Y-389960D02*
G01*
X3804261Y-389960D01*
X3757017Y-439960D02*
G01*
X3804261Y-439960D01*
X3757017Y-489960D02*
G01*
X3804261Y-489960D01*
X3991008Y-1006100D02*
G01*
X4038252Y-1006100D01*
X3991008Y-1056100D02*
G01*
X4038252Y-1056100D01*
X3991008Y-1106100D02*
G01*
X4038252Y-1106100D01*
X3991008Y-1156100D02*
G01*
X4038252Y-1156100D01*
X3991008Y-1206100D02*
G01*
X4038252Y-1206100D01*
X3991008Y-1256100D02*
G01*
X4038252Y-1256100D01*
X3991008Y-1306100D02*
G01*
X4038252Y-1306100D01*
X3991008Y-1356100D02*
G01*
X4038252Y-1356100D01*
X3757007Y-1006100D02*
G01*
X3804251Y-1006100D01*
X3757007Y-1056100D02*
G01*
X3804251Y-1056100D01*
X3757007Y-1106100D02*
G01*
X3804251Y-1106100D01*
X3757007Y-1156100D02*
G01*
X3804251Y-1156100D01*
X3757007Y-1206100D02*
G01*
X3804251Y-1206100D01*
X3757007Y-1256100D02*
G01*
X3804251Y-1256100D01*
X3757007Y-1306100D02*
G01*
X3804251Y-1306100D01*
X3757007Y-1356100D02*
G01*
X3804251Y-1356100D01*
X3990997Y-1872240D02*
G01*
X4038242Y-1872240D01*
X3990997Y-1922240D02*
G01*
X4038242Y-1922240D01*
X3990997Y-1972240D02*
G01*
X4038242Y-1972240D01*
X3990997Y-2022240D02*
G01*
X4038242Y-2022240D01*
X3990997Y-2072240D02*
G01*
X4038242Y-2072240D01*
X3990997Y-2122240D02*
G01*
X4038242Y-2122240D01*
X3990997Y-2172240D02*
G01*
X4038242Y-2172240D01*
X3990997Y-2222240D02*
G01*
X4038242Y-2222240D01*
X3756998Y-1872240D02*
G01*
X3804242Y-1872240D01*
X3756998Y-1922240D02*
G01*
X3804242Y-1922240D01*
X3756998Y-1972240D02*
G01*
X3804242Y-1972240D01*
X3756998Y-2022240D02*
G01*
X3804242Y-2022240D01*
X3756998Y-2072240D02*
G01*
X3804242Y-2072240D01*
X3756998Y-2122240D02*
G01*
X3804242Y-2122240D01*
X3756998Y-2172240D02*
G01*
X3804242Y-2172240D01*
X3756998Y-2222240D02*
G01*
X3804242Y-2222240D01*
X3991008Y-2738380D02*
G01*
X4038252Y-2738380D01*
X3991008Y-2788380D02*
G01*
X4038252Y-2788380D01*
X3991008Y-2838380D02*
G01*
X4038252Y-2838380D01*
X3991008Y-2888380D02*
G01*
X4038252Y-2888380D01*
X3991008Y-2938380D02*
G01*
X4038252Y-2938380D01*
X3991008Y-2988380D02*
G01*
X4038252Y-2988380D01*
X3991008Y-3038380D02*
G01*
X4038252Y-3038380D01*
X3991008Y-3088380D02*
G01*
X4038252Y-3088380D01*
X3757007Y-2738380D02*
G01*
X3804251Y-2738380D01*
X3757007Y-2788380D02*
G01*
X3804251Y-2788380D01*
X3757007Y-2838380D02*
G01*
X3804251Y-2838380D01*
X3757007Y-2888380D02*
G01*
X3804251Y-2888380D01*
X3757007Y-2938380D02*
G01*
X3804251Y-2938380D01*
X3757007Y-2988380D02*
G01*
X3804251Y-2988380D01*
X3757007Y-3038380D02*
G01*
X3804251Y-3038380D01*
X3757007Y-3088380D02*
G01*
X3804251Y-3088380D01*
X3991008Y-3604520D02*
G01*
X4038252Y-3604520D01*
X3991008Y-3654520D02*
G01*
X4038252Y-3654520D01*
X3991008Y-3704520D02*
G01*
X4038252Y-3704520D01*
X3991008Y-3754520D02*
G01*
X4038252Y-3754520D01*
X3991008Y-3804520D02*
G01*
X4038252Y-3804520D01*
X3991008Y-3854520D02*
G01*
X4038252Y-3854520D01*
X3991008Y-3904520D02*
G01*
X4038252Y-3904520D01*
X3991008Y-3954520D02*
G01*
X4038252Y-3954520D01*
X3757007Y-3604520D02*
G01*
X3804251Y-3604520D01*
X3757007Y-3654520D02*
G01*
X3804251Y-3654520D01*
X3757007Y-3704520D02*
G01*
X3804251Y-3704520D01*
X3757007Y-3754520D02*
G01*
X3804251Y-3754520D01*
X3757007Y-3804520D02*
G01*
X3804251Y-3804520D01*
X3757007Y-3854520D02*
G01*
X3804251Y-3854520D01*
X3757007Y-3904520D02*
G01*
X3804251Y-3904520D01*
X3757007Y-3954520D02*
G01*
X3804251Y-3954520D01*
X3991008Y-4470659D02*
G01*
X4038252Y-4470659D01*
X3991008Y-4520659D02*
G01*
X4038252Y-4520659D01*
X3991008Y-4570659D02*
G01*
X4038252Y-4570659D01*
X3991008Y-4620659D02*
G01*
X4038252Y-4620659D01*
X3991008Y-4670659D02*
G01*
X4038252Y-4670659D01*
X3991008Y-4720659D02*
G01*
X4038252Y-4720659D01*
X3991008Y-4770659D02*
G01*
X4038252Y-4770659D01*
X3991008Y-4820659D02*
G01*
X4038252Y-4820659D01*
X3757007Y-4470659D02*
G01*
X3804251Y-4470659D01*
X3757007Y-4520659D02*
G01*
X3804251Y-4520659D01*
X3757007Y-4570659D02*
G01*
X3804251Y-4570659D01*
X3757007Y-4620659D02*
G01*
X3804251Y-4620659D01*
X3757007Y-4670659D02*
G01*
X3804251Y-4670659D01*
X3757007Y-4720659D02*
G01*
X3804251Y-4720659D01*
X3757007Y-4770659D02*
G01*
X3804251Y-4770659D01*
X3757007Y-4820659D02*
G01*
X3804251Y-4820659D01*
X3991008Y-5336799D02*
G01*
X4038252Y-5336799D01*
X3991008Y-5386799D02*
G01*
X4038252Y-5386799D01*
X3991008Y-5436799D02*
G01*
X4038252Y-5436799D01*
X3991008Y-5486799D02*
G01*
X4038252Y-5486799D01*
X3991008Y-5536799D02*
G01*
X4038252Y-5536799D01*
X3991008Y-5586799D02*
G01*
X4038252Y-5586799D01*
X3991008Y-5636799D02*
G01*
X4038252Y-5636799D01*
X3991008Y-5686799D02*
G01*
X4038252Y-5686799D01*
X3757007Y-5336799D02*
G01*
X3804251Y-5336799D01*
X3757007Y-5386799D02*
G01*
X3804251Y-5386799D01*
X3757007Y-5436799D02*
G01*
X3804251Y-5436799D01*
X3757007Y-5486799D02*
G01*
X3804251Y-5486799D01*
X3757007Y-5536799D02*
G01*
X3804251Y-5536799D01*
X3757007Y-5586799D02*
G01*
X3804251Y-5586799D01*
X3757007Y-5636799D02*
G01*
X3804251Y-5636799D01*
X3757007Y-5686799D02*
G01*
X3804251Y-5686799D01*
X3991008Y-6202939D02*
G01*
X4038252Y-6202939D01*
X3991008Y-6252939D02*
G01*
X4038252Y-6252939D01*
X3991008Y-6302939D02*
G01*
X4038252Y-6302939D01*
X3991008Y-6352939D02*
G01*
X4038252Y-6352939D01*
X3991008Y-6402939D02*
G01*
X4038252Y-6402939D01*
X3991008Y-6452939D02*
G01*
X4038252Y-6452939D01*
X3991008Y-6502939D02*
G01*
X4038252Y-6502939D01*
X3991008Y-6552939D02*
G01*
X4038252Y-6552939D01*
X3757007Y-6202939D02*
G01*
X3804251Y-6202939D01*
X3757007Y-6252939D02*
G01*
X3804251Y-6252939D01*
X3757007Y-6302939D02*
G01*
X3804251Y-6302939D01*
X3757007Y-6352939D02*
G01*
X3804251Y-6352939D01*
X3757007Y-6402939D02*
G01*
X3804251Y-6402939D01*
X3757007Y-6452939D02*
G01*
X3804251Y-6452939D01*
X3757007Y-6502939D02*
G01*
X3804251Y-6502939D01*
X3757007Y-6552939D02*
G01*
X3804251Y-6552939D01*
X3991008Y-7069079D02*
G01*
X4038252Y-7069079D01*
X3991008Y-7119079D02*
G01*
X4038252Y-7119079D01*
X3991008Y-7169079D02*
G01*
X4038252Y-7169079D01*
X3991008Y-7219079D02*
G01*
X4038252Y-7219079D01*
X3991008Y-7269079D02*
G01*
X4038252Y-7269079D01*
X3991008Y-7319079D02*
G01*
X4038252Y-7319079D01*
X3991008Y-7369079D02*
G01*
X4038252Y-7369079D01*
X3991008Y-7419079D02*
G01*
X4038252Y-7419079D01*
X3757007Y-7069079D02*
G01*
X3804251Y-7069079D01*
X3757007Y-7119079D02*
G01*
X3804251Y-7119079D01*
X3757007Y-7169079D02*
G01*
X3804251Y-7169079D01*
X3757007Y-7219079D02*
G01*
X3804251Y-7219079D01*
X3757007Y-7269079D02*
G01*
X3804251Y-7269079D01*
X3757007Y-7319079D02*
G01*
X3804251Y-7319079D01*
X3757007Y-7369079D02*
G01*
X3804251Y-7369079D01*
X3757007Y-7419079D02*
G01*
X3804251Y-7419079D01*
X8363980Y-3892588D02*
G01*
X8363980Y-3939832D01*
X8313980Y-3892588D02*
G01*
X8313980Y-3939832D01*
X8263980Y-3892588D02*
G01*
X8263980Y-3939832D01*
X8213980Y-3892588D02*
G01*
X8213980Y-3939832D01*
X8163980Y-3892588D02*
G01*
X8163980Y-3939832D01*
X8113980Y-3892588D02*
G01*
X8113980Y-3939832D01*
X8063980Y-3892588D02*
G01*
X8063980Y-3939832D01*
X8013980Y-3892588D02*
G01*
X8013980Y-3939832D01*
X8363980Y-3658587D02*
G01*
X8363980Y-3705832D01*
X8313980Y-3658587D02*
G01*
X8313980Y-3705832D01*
X8263980Y-3658587D02*
G01*
X8263980Y-3705832D01*
X8213980Y-3658587D02*
G01*
X8213980Y-3705832D01*
X8163980Y-3658587D02*
G01*
X8163980Y-3705832D01*
X8113980Y-3658587D02*
G01*
X8113980Y-3705832D01*
X8063980Y-3658587D02*
G01*
X8063980Y-3705832D01*
X8013980Y-3658587D02*
G01*
X8013980Y-3705832D01*
X3991008Y-573029D02*
G01*
X4038252Y-573029D01*
X3991008Y-623029D02*
G01*
X4038252Y-623029D01*
X3991008Y-673029D02*
G01*
X4038252Y-673029D01*
X3991008Y-723029D02*
G01*
X4038252Y-723029D01*
X3991008Y-773029D02*
G01*
X4038252Y-773029D01*
X3991008Y-823029D02*
G01*
X4038252Y-823029D01*
X3991008Y-873029D02*
G01*
X4038252Y-873029D01*
X3991008Y-923029D02*
G01*
X4038252Y-923029D01*
X3757007Y-573029D02*
G01*
X3804251Y-573029D01*
X3757007Y-623029D02*
G01*
X3804251Y-623029D01*
X3757007Y-673029D02*
G01*
X3804251Y-673029D01*
X3757007Y-723029D02*
G01*
X3804251Y-723029D01*
X3757007Y-773029D02*
G01*
X3804251Y-773029D01*
X3757007Y-823029D02*
G01*
X3804251Y-823029D01*
X3757007Y-873029D02*
G01*
X3804251Y-873029D01*
X3757007Y-923029D02*
G01*
X3804251Y-923029D01*
X3990997Y-1439169D02*
G01*
X4038242Y-1439169D01*
X3990997Y-1489169D02*
G01*
X4038242Y-1489169D01*
X3990997Y-1539169D02*
G01*
X4038242Y-1539169D01*
X3990997Y-1589169D02*
G01*
X4038242Y-1589169D01*
X3990997Y-1639169D02*
G01*
X4038242Y-1639169D01*
X3990997Y-1689169D02*
G01*
X4038242Y-1689169D01*
X3990997Y-1739169D02*
G01*
X4038242Y-1739169D01*
X3990997Y-1789169D02*
G01*
X4038242Y-1789169D01*
X3756998Y-1439169D02*
G01*
X3804242Y-1439169D01*
X3756998Y-1489169D02*
G01*
X3804242Y-1489169D01*
X3756998Y-1539169D02*
G01*
X3804242Y-1539169D01*
X3756998Y-1589169D02*
G01*
X3804242Y-1589169D01*
X3756998Y-1639169D02*
G01*
X3804242Y-1639169D01*
X3756998Y-1689169D02*
G01*
X3804242Y-1689169D01*
X3756998Y-1739169D02*
G01*
X3804242Y-1739169D01*
X3756998Y-1789169D02*
G01*
X3804242Y-1789169D01*
X3990997Y-2305300D02*
G01*
X4038242Y-2305300D01*
X3990997Y-2355300D02*
G01*
X4038242Y-2355300D01*
X3990997Y-2405300D02*
G01*
X4038242Y-2405300D01*
X3990997Y-2455300D02*
G01*
X4038242Y-2455300D01*
X3990997Y-2505300D02*
G01*
X4038242Y-2505300D01*
X3990997Y-2555300D02*
G01*
X4038242Y-2555300D01*
X3990997Y-2605300D02*
G01*
X4038242Y-2605300D01*
X3990997Y-2655300D02*
G01*
X4038242Y-2655300D01*
X3756998Y-2305300D02*
G01*
X3804242Y-2305300D01*
X3756998Y-2355300D02*
G01*
X3804242Y-2355300D01*
X3756998Y-2405300D02*
G01*
X3804242Y-2405300D01*
X3756998Y-2455300D02*
G01*
X3804242Y-2455300D01*
X3756998Y-2505300D02*
G01*
X3804242Y-2505300D01*
X3756998Y-2555300D02*
G01*
X3804242Y-2555300D01*
X3756998Y-2605300D02*
G01*
X3804242Y-2605300D01*
X3756998Y-2655300D02*
G01*
X3804242Y-2655300D01*
X3991008Y-3171450D02*
G01*
X4038252Y-3171450D01*
X3991008Y-3221450D02*
G01*
X4038252Y-3221450D01*
X3991008Y-3271450D02*
G01*
X4038252Y-3271450D01*
X3991008Y-3321450D02*
G01*
X4038252Y-3321450D01*
X3991008Y-3371450D02*
G01*
X4038252Y-3371450D01*
X3991008Y-3421450D02*
G01*
X4038252Y-3421450D01*
X3991008Y-3471450D02*
G01*
X4038252Y-3471450D01*
X3991008Y-3521450D02*
G01*
X4038252Y-3521450D01*
X3757007Y-3171450D02*
G01*
X3804251Y-3171450D01*
X3757007Y-3221450D02*
G01*
X3804251Y-3221450D01*
X3757007Y-3271450D02*
G01*
X3804251Y-3271450D01*
X3757007Y-3321450D02*
G01*
X3804251Y-3321450D01*
X3757007Y-3371450D02*
G01*
X3804251Y-3371450D01*
X3757007Y-3421450D02*
G01*
X3804251Y-3421450D01*
X3757007Y-3471450D02*
G01*
X3804251Y-3471450D01*
X3757007Y-3521450D02*
G01*
X3804251Y-3521450D01*
X3991008Y-4037590D02*
G01*
X4038252Y-4037590D01*
X3991008Y-4087590D02*
G01*
X4038252Y-4087590D01*
X3991008Y-4137590D02*
G01*
X4038252Y-4137590D01*
X3991008Y-4187590D02*
G01*
X4038252Y-4187590D01*
X3991008Y-4237590D02*
G01*
X4038252Y-4237590D01*
X3991008Y-4287590D02*
G01*
X4038252Y-4287590D01*
X3991008Y-4337590D02*
G01*
X4038252Y-4337590D01*
X3991008Y-4387590D02*
G01*
X4038252Y-4387590D01*
X3757007Y-4037590D02*
G01*
X3804251Y-4037590D01*
X3757007Y-4087590D02*
G01*
X3804251Y-4087590D01*
X3757007Y-4137590D02*
G01*
X3804251Y-4137590D01*
X3757007Y-4187590D02*
G01*
X3804251Y-4187590D01*
X3757007Y-4237590D02*
G01*
X3804251Y-4237590D01*
X3757007Y-4287590D02*
G01*
X3804251Y-4287590D01*
X3757007Y-4337590D02*
G01*
X3804251Y-4337590D01*
X3757007Y-4387590D02*
G01*
X3804251Y-4387590D01*
X3991008Y-4903730D02*
G01*
X4038252Y-4903730D01*
X3991008Y-4953730D02*
G01*
X4038252Y-4953730D01*
X3991008Y-5003730D02*
G01*
X4038252Y-5003730D01*
X3991008Y-5053730D02*
G01*
X4038252Y-5053730D01*
X3991008Y-5103730D02*
G01*
X4038252Y-5103730D01*
X3991008Y-5153730D02*
G01*
X4038252Y-5153730D01*
X3991008Y-5203730D02*
G01*
X4038252Y-5203730D01*
X3991008Y-5253730D02*
G01*
X4038252Y-5253730D01*
X3757007Y-4903730D02*
G01*
X3804251Y-4903730D01*
X3757007Y-4953730D02*
G01*
X3804251Y-4953730D01*
X3757007Y-5003730D02*
G01*
X3804251Y-5003730D01*
X3757007Y-5053730D02*
G01*
X3804251Y-5053730D01*
X3757007Y-5103730D02*
G01*
X3804251Y-5103730D01*
X3757007Y-5153730D02*
G01*
X3804251Y-5153730D01*
X3757007Y-5203730D02*
G01*
X3804251Y-5203730D01*
X3757007Y-5253730D02*
G01*
X3804251Y-5253730D01*
X3991008Y-5769870D02*
G01*
X4038252Y-5769870D01*
X3991008Y-5819870D02*
G01*
X4038252Y-5819870D01*
X3991008Y-5869870D02*
G01*
X4038252Y-5869870D01*
X3991008Y-5919870D02*
G01*
X4038252Y-5919870D01*
X3991008Y-5969870D02*
G01*
X4038252Y-5969870D01*
X3991008Y-6019870D02*
G01*
X4038252Y-6019870D01*
X3991008Y-6069870D02*
G01*
X4038252Y-6069870D01*
X3991008Y-6119870D02*
G01*
X4038252Y-6119870D01*
X3757007Y-5769870D02*
G01*
X3804251Y-5769870D01*
X3757007Y-5819870D02*
G01*
X3804251Y-5819870D01*
X3757007Y-5869870D02*
G01*
X3804251Y-5869870D01*
X3757007Y-5919870D02*
G01*
X3804251Y-5919870D01*
X3757007Y-5969870D02*
G01*
X3804251Y-5969870D01*
X3757007Y-6019870D02*
G01*
X3804251Y-6019870D01*
X3757007Y-6069870D02*
G01*
X3804251Y-6069870D01*
X3757007Y-6119870D02*
G01*
X3804251Y-6119870D01*
X3991008Y-6636010D02*
G01*
X4038252Y-6636010D01*
X3991008Y-6686010D02*
G01*
X4038252Y-6686010D01*
X3991008Y-6736010D02*
G01*
X4038252Y-6736010D01*
X3991008Y-6786010D02*
G01*
X4038252Y-6786010D01*
X3991008Y-6836010D02*
G01*
X4038252Y-6836010D01*
X3991008Y-6886010D02*
G01*
X4038252Y-6886010D01*
X3991008Y-6936010D02*
G01*
X4038252Y-6936010D01*
X3991008Y-6986010D02*
G01*
X4038252Y-6986010D01*
X3757007Y-6636010D02*
G01*
X3804251Y-6636010D01*
X3757007Y-6686010D02*
G01*
X3804251Y-6686010D01*
X3757007Y-6736010D02*
G01*
X3804251Y-6736010D01*
X3757007Y-6786010D02*
G01*
X3804251Y-6786010D01*
X3757007Y-6836010D02*
G01*
X3804251Y-6836010D01*
X3757007Y-6886010D02*
G01*
X3804251Y-6886010D01*
X3757007Y-6936010D02*
G01*
X3804251Y-6936010D01*
X3757007Y-6986010D02*
G01*
X3804251Y-6986010D01*
X3991008Y-7502150D02*
G01*
X4038252Y-7502150D01*
X3991008Y-7552150D02*
G01*
X4038252Y-7552150D01*
X3991008Y-7602150D02*
G01*
X4038252Y-7602150D01*
X3991008Y-7652150D02*
G01*
X4038252Y-7652150D01*
X3991008Y-7702150D02*
G01*
X4038252Y-7702150D01*
X3991008Y-7752150D02*
G01*
X4038252Y-7752150D01*
X3991008Y-7802150D02*
G01*
X4038252Y-7802150D01*
X3991008Y-7852150D02*
G01*
X4038252Y-7852150D01*
X3757007Y-7502150D02*
G01*
X3804251Y-7502150D01*
X3757007Y-7552150D02*
G01*
X3804251Y-7552150D01*
X3757007Y-7602150D02*
G01*
X3804251Y-7602150D01*
X3757007Y-7652150D02*
G01*
X3804251Y-7652150D01*
X3757007Y-7702150D02*
G01*
X3804251Y-7702150D01*
X3757007Y-7752150D02*
G01*
X3804251Y-7752150D01*
X3757007Y-7802150D02*
G01*
X3804251Y-7802150D01*
X3757007Y-7852150D02*
G01*
X3804251Y-7852150D01*
X7478149Y-3892588D02*
G01*
X7478149Y-3939832D01*
X7428149Y-3892588D02*
G01*
X7428149Y-3939832D01*
X7378149Y-3892588D02*
G01*
X7378149Y-3939832D01*
X7328149Y-3892588D02*
G01*
X7328149Y-3939832D01*
X7278149Y-3892588D02*
G01*
X7278149Y-3939832D01*
X7228149Y-3892588D02*
G01*
X7228149Y-3939832D01*
X7178149Y-3892588D02*
G01*
X7178149Y-3939832D01*
X7128149Y-3892588D02*
G01*
X7128149Y-3939832D01*
X7478149Y-3658587D02*
G01*
X7478149Y-3705832D01*
X7428149Y-3658587D02*
G01*
X7428149Y-3705832D01*
X7378149Y-3658587D02*
G01*
X7378149Y-3705832D01*
X7328149Y-3658587D02*
G01*
X7328149Y-3705832D01*
X7278149Y-3658587D02*
G01*
X7278149Y-3705832D01*
X7228149Y-3658587D02*
G01*
X7228149Y-3705832D01*
X7178149Y-3658587D02*
G01*
X7178149Y-3705832D01*
X7128149Y-3658587D02*
G01*
X7128149Y-3705832D01*
D48*
X1999979Y-7977610D02*
G01*
X1999979Y-8028791D01*
X2031480Y-7977610D02*
G01*
X2031480Y-8028791D01*
X2062979Y-7977610D02*
G01*
X2062979Y-8028791D01*
X2094480Y-7977610D02*
G01*
X2094480Y-8028791D01*
X2125979Y-7977610D02*
G01*
X2125979Y-8028791D01*
X2157479Y-7977610D02*
G01*
X2157479Y-8028791D01*
X2188980Y-7977610D02*
G01*
X2188980Y-8028791D01*
X2220479Y-7977610D02*
G01*
X2220479Y-8028791D01*
X2251980Y-7977610D02*
G01*
X2251980Y-8028791D01*
X2283479Y-7977610D02*
G01*
X2283479Y-8028791D01*
X2314979Y-7977610D02*
G01*
X2314979Y-8028791D01*
X2365389Y-8079200D02*
G01*
X2416571Y-8079200D01*
X2365389Y-8110700D02*
G01*
X2416571Y-8110700D01*
X2365389Y-8142199D02*
G01*
X2416571Y-8142199D01*
X2365389Y-8173699D02*
G01*
X2416571Y-8173699D01*
X2365389Y-8205200D02*
G01*
X2416571Y-8205200D01*
X2365389Y-8236700D02*
G01*
X2416571Y-8236700D01*
X2365389Y-8268200D02*
G01*
X2416571Y-8268200D01*
X2365389Y-8299699D02*
G01*
X2416571Y-8299699D01*
X2365389Y-8331199D02*
G01*
X2416571Y-8331199D01*
X2365389Y-8362700D02*
G01*
X2416571Y-8362700D01*
X2365389Y-8394200D02*
G01*
X2416571Y-8394200D01*
X2314979Y-8443609D02*
G01*
X2314979Y-8494791D01*
X2283479Y-8443609D02*
G01*
X2283479Y-8494791D01*
X2251980Y-8443609D02*
G01*
X2251980Y-8494791D01*
X2220479Y-8443609D02*
G01*
X2220479Y-8494791D01*
X2188980Y-8443609D02*
G01*
X2188980Y-8494791D01*
X2157479Y-8443609D02*
G01*
X2157479Y-8494791D01*
X2125979Y-8443609D02*
G01*
X2125979Y-8494791D01*
X2094480Y-8443609D02*
G01*
X2094480Y-8494791D01*
X2062979Y-8443609D02*
G01*
X2062979Y-8494791D01*
X2031480Y-8443609D02*
G01*
X2031480Y-8494791D01*
X1999979Y-8443609D02*
G01*
X1999979Y-8494791D01*
X1898389Y-8394200D02*
G01*
X1949570Y-8394200D01*
X1898389Y-8362700D02*
G01*
X1949570Y-8362700D01*
X1898389Y-8331199D02*
G01*
X1949570Y-8331199D01*
X1898389Y-8299699D02*
G01*
X1949570Y-8299699D01*
X1898389Y-8268200D02*
G01*
X1949570Y-8268200D01*
X1898389Y-8236700D02*
G01*
X1949570Y-8236700D01*
X1898389Y-8205200D02*
G01*
X1949570Y-8205200D01*
X1898389Y-8173699D02*
G01*
X1949570Y-8173699D01*
X1898389Y-8142199D02*
G01*
X1949570Y-8142199D01*
X1898389Y-8110700D02*
G01*
X1949570Y-8110700D01*
X1898389Y-8079200D02*
G01*
X1949570Y-8079200D01*
G36*
X625700Y-8261300D02*
G01*
X625700Y-8195300D01*
X691700Y-8195300D01*
X691700Y-8261300D01*
G37*
D43*
G01*
X758659Y-8228330D03*
G36*
X905500Y-8305100D02*
G01*
X905500Y-8261799D01*
X952799Y-8261799D01*
X952799Y-8305100D01*
G37*
G36*
X905500Y-8242100D02*
G01*
X905500Y-8198800D01*
X952799Y-8198800D01*
X952799Y-8242100D01*
G37*
G36*
X8230299Y-7826799D02*
G01*
X8230299Y-7779499D01*
X8273599Y-7779499D01*
X8273599Y-7826799D01*
G37*
G36*
X8293299Y-7826799D02*
G01*
X8293299Y-7779499D01*
X8336599Y-7779499D01*
X8336599Y-7826799D01*
G37*
G36*
X2114099Y-7923299D02*
G01*
X2114099Y-7871999D01*
X2161499Y-7871999D01*
X2161499Y-7923299D01*
G37*
G36*
X2185000Y-7923299D02*
G01*
X2185000Y-7871999D01*
X2232299Y-7871999D01*
X2232299Y-7923299D01*
G37*
G36*
X2153500Y-8600400D02*
G01*
X2153500Y-8549099D01*
X2200799Y-8549099D01*
X2200799Y-8600400D01*
G37*
G36*
X2082600Y-8600400D02*
G01*
X2082600Y-8549099D01*
X2130000Y-8549099D01*
X2130000Y-8600400D01*
G37*
G36*
X347699Y-3418800D02*
G01*
X347699Y-3352800D01*
X413699Y-3352800D01*
X413699Y-3418800D01*
G37*
G01*
X280709Y-3385819D03*
G36*
X8279499Y-7679200D02*
G01*
X8279499Y-7608200D01*
X8350400Y-7608200D01*
X8350400Y-7679200D01*
G37*
D45*
G01*
X8314939Y-7543690D03*
G01*
X8314939Y-7443690D03*
G01*
X8314939Y-7343690D03*
G01*
X8314939Y-7243690D03*
G01*
X8314939Y-7143690D03*
G36*
X90500Y-4592600D02*
G01*
X90500Y-4541300D01*
X137899Y-4541300D01*
X137899Y-4592600D01*
G37*
G36*
X161399Y-4592600D02*
G01*
X161399Y-4541300D01*
X208699Y-4541300D01*
X208699Y-4592600D01*
G37*
G36*
X74699Y-7915400D02*
G01*
X74699Y-7864099D01*
X122100Y-7864099D01*
X122100Y-7915400D01*
G37*
G36*
X145599Y-7915400D02*
G01*
X145599Y-7864099D01*
X193000Y-7864099D01*
X193000Y-7915400D01*
G37*
G36*
X1509799Y-8342600D02*
G01*
X1509799Y-8295200D01*
X1561099Y-8295200D01*
X1561099Y-8342600D01*
G37*
G36*
X1509799Y-8413400D02*
G01*
X1509799Y-8366100D01*
X1561099Y-8366100D01*
X1561099Y-8413400D01*
G37*
G36*
X234200Y-4815000D02*
G01*
X234200Y-4767600D01*
X285500Y-4767600D01*
X285500Y-4815000D01*
G37*
G36*
X234200Y-4885900D02*
G01*
X234200Y-4838499D01*
X285500Y-4838499D01*
X285500Y-4885900D01*
G37*
G36*
X1505900Y-8234299D02*
G01*
X1505900Y-8190900D01*
X1545299Y-8190900D01*
X1545299Y-8234299D01*
G37*
D53*
G01*
X1592520Y-8212579D03*
G36*
X244099Y-7746100D02*
G01*
X244099Y-7702700D01*
X291399Y-7702700D01*
X291399Y-7746100D01*
G37*
G36*
X244099Y-7809099D02*
G01*
X244099Y-7765700D01*
X291399Y-7765700D01*
X291399Y-7809099D01*
G37*
G36*
X1598400Y-8407500D02*
G01*
X1598400Y-8364099D01*
X1645699Y-8364099D01*
X1645699Y-8407500D01*
G37*
G36*
X1598400Y-8344499D02*
G01*
X1598400Y-8301100D01*
X1645699Y-8301100D01*
X1645699Y-8344499D01*
G37*
G36*
X159400Y-5000000D02*
G01*
X159400Y-4952700D01*
X202800Y-4952700D01*
X202800Y-5000000D01*
G37*
G36*
X96399Y-5000000D02*
G01*
X96399Y-4952700D01*
X139800Y-4952700D01*
X139800Y-5000000D01*
G37*
G36*
X98400Y-4691999D02*
G01*
X98400Y-4644600D01*
X141799Y-4644600D01*
X141799Y-4691999D01*
G37*
G36*
X161399Y-4691999D02*
G01*
X161399Y-4644600D01*
X204699Y-4644600D01*
X204699Y-4691999D01*
G37*
G36*
X97399Y-4795300D02*
G01*
X97399Y-4745999D01*
X126999Y-4745999D01*
X126999Y-4795300D01*
G37*
G36*
X134800Y-4795300D02*
G01*
X134800Y-4745999D01*
X164400Y-4745999D01*
X164400Y-4795300D01*
G37*
G36*
X172199Y-4795300D02*
G01*
X172199Y-4745999D01*
X201799Y-4745999D01*
X201799Y-4795300D01*
G37*
G36*
X172199Y-4897700D02*
G01*
X172199Y-4848400D01*
X201799Y-4848400D01*
X201799Y-4897700D01*
G37*
G36*
X97399Y-4897700D02*
G01*
X97399Y-4848400D01*
X126999Y-4848400D01*
X126999Y-4897700D01*
G37*
G36*
X149499Y-7818899D02*
G01*
X149499Y-7771599D01*
X181199Y-7771599D01*
X181199Y-7818899D01*
G37*
G36*
X78699Y-7818899D02*
G01*
X78699Y-7771599D01*
X110300Y-7771599D01*
X110300Y-7818899D01*
G37*
G36*
X114099Y-7748099D02*
G01*
X114099Y-7700700D01*
X145700Y-7700700D01*
X145700Y-7748099D01*
G37*
G36*
X1045200Y-8486300D02*
G01*
X1045200Y-8450700D01*
X1112299Y-8450700D01*
X1112299Y-8486300D01*
G37*
G36*
X1120000Y-8238200D02*
G01*
X1120000Y-8171199D01*
X1155600Y-8171199D01*
X1155600Y-8238200D01*
G37*
G36*
X1399499Y-8297300D02*
G01*
X1399499Y-8261700D01*
X1466599Y-8261700D01*
X1466599Y-8297300D01*
G37*
G36*
X1045200Y-8297300D02*
G01*
X1045200Y-8261700D01*
X1112299Y-8261700D01*
X1112299Y-8297300D01*
G37*
G36*
X1045200Y-8344499D02*
G01*
X1045200Y-8309000D01*
X1112299Y-8309000D01*
X1112299Y-8344499D01*
G37*
G36*
X1045200Y-8391799D02*
G01*
X1045200Y-8356199D01*
X1112299Y-8356199D01*
X1112299Y-8391799D01*
G37*
G36*
X1045200Y-8439000D02*
G01*
X1045200Y-8403500D01*
X1112299Y-8403500D01*
X1112299Y-8439000D01*
G37*
G36*
X1356199Y-8238200D02*
G01*
X1356199Y-8171199D01*
X1391800Y-8171199D01*
X1391800Y-8238200D01*
G37*
G36*
X1308999Y-8238200D02*
G01*
X1308999Y-8171199D01*
X1344499Y-8171199D01*
X1344499Y-8238200D01*
G37*
G36*
X1261700Y-8238200D02*
G01*
X1261700Y-8171199D01*
X1297299Y-8171199D01*
X1297299Y-8238200D01*
G37*
G36*
X1214499Y-8238200D02*
G01*
X1214499Y-8171199D01*
X1250100Y-8171199D01*
X1250100Y-8238200D01*
G37*
G36*
X1167299Y-8238200D02*
G01*
X1167299Y-8171199D01*
X1202799Y-8171199D01*
X1202799Y-8238200D01*
G37*
G36*
X1399499Y-8486300D02*
G01*
X1399499Y-8450700D01*
X1466599Y-8450700D01*
X1466599Y-8486300D01*
G37*
G36*
X1399499Y-8439000D02*
G01*
X1399499Y-8403500D01*
X1466599Y-8403500D01*
X1466599Y-8439000D01*
G37*
G36*
X1399499Y-8391799D02*
G01*
X1399499Y-8356199D01*
X1466599Y-8356199D01*
X1466599Y-8391799D01*
G37*
G36*
X1399499Y-8344499D02*
G01*
X1399499Y-8309000D01*
X1466599Y-8309000D01*
X1466599Y-8344499D01*
G37*
G36*
X876000Y-1165399D02*
G01*
X876000Y-1118099D01*
X919300Y-1118099D01*
X919300Y-1165399D01*
G37*
G36*
X813000Y-1165399D02*
G01*
X813000Y-1118099D01*
X856300Y-1118099D01*
X856300Y-1165399D01*
G37*
G36*
X1742100Y-1165399D02*
G01*
X1742100Y-1118099D01*
X1785500Y-1118099D01*
X1785500Y-1165399D01*
G37*
G36*
X1679099Y-1165399D02*
G01*
X1679099Y-1118099D01*
X1722500Y-1118099D01*
X1722500Y-1165399D01*
G37*
G36*
X2608199Y-1165399D02*
G01*
X2608199Y-1118099D01*
X2651599Y-1118099D01*
X2651599Y-1165399D01*
G37*
G36*
X2545200Y-1165399D02*
G01*
X2545200Y-1118099D01*
X2588599Y-1118099D01*
X2588599Y-1165399D01*
G37*
G36*
X3411400Y-1165399D02*
G01*
X3411400Y-1118099D01*
X3454799Y-1118099D01*
X3454799Y-1165399D01*
G37*
G36*
X3474399Y-1165399D02*
G01*
X3474399Y-1118099D01*
X3517700Y-1118099D01*
X3517700Y-1165399D01*
G37*
G36*
X4474399Y-1165399D02*
G01*
X4474399Y-1118099D01*
X4517700Y-1118099D01*
X4517700Y-1165399D01*
G37*
G36*
X4537399Y-1165399D02*
G01*
X4537399Y-1118099D01*
X4580699Y-1118099D01*
X4580699Y-1165399D01*
G37*
G36*
X5143699Y-1165399D02*
G01*
X5143699Y-1118099D01*
X5186999Y-1118099D01*
X5186999Y-1165399D01*
G37*
G36*
X5206700Y-1165399D02*
G01*
X5206700Y-1118099D01*
X5250000Y-1118099D01*
X5250000Y-1165399D01*
G37*
G36*
X6009799Y-1165399D02*
G01*
X6009799Y-1118099D01*
X6053199Y-1118099D01*
X6053199Y-1165399D01*
G37*
G36*
X6072799Y-1165399D02*
G01*
X6072799Y-1118099D01*
X6116199Y-1118099D01*
X6116199Y-1165399D01*
G37*
G36*
X6876000Y-1165399D02*
G01*
X6876000Y-1118099D01*
X6919300Y-1118099D01*
X6919300Y-1165399D01*
G37*
G36*
X6938900Y-1165399D02*
G01*
X6938900Y-1118099D01*
X6982299Y-1118099D01*
X6982299Y-1165399D01*
G37*
G36*
X7742100Y-1165399D02*
G01*
X7742100Y-1118099D01*
X7785500Y-1118099D01*
X7785500Y-1165399D01*
G37*
G36*
X7805100Y-1165399D02*
G01*
X7805100Y-1118099D01*
X7848500Y-1118099D01*
X7848500Y-1165399D01*
G37*
G36*
X876000Y-2031500D02*
G01*
X876000Y-1984200D01*
X919300Y-1984200D01*
X919300Y-2031500D01*
G37*
G36*
X813000Y-2031500D02*
G01*
X813000Y-1984200D01*
X856300Y-1984200D01*
X856300Y-2031500D01*
G37*
G36*
X1742100Y-2031500D02*
G01*
X1742100Y-1984200D01*
X1785500Y-1984200D01*
X1785500Y-2031500D01*
G37*
G36*
X1679099Y-2031500D02*
G01*
X1679099Y-1984200D01*
X1722500Y-1984200D01*
X1722500Y-2031500D01*
G37*
G36*
X2608199Y-2031500D02*
G01*
X2608199Y-1984200D01*
X2651599Y-1984200D01*
X2651599Y-2031500D01*
G37*
G36*
X2545200Y-2031500D02*
G01*
X2545200Y-1984200D01*
X2588599Y-1984200D01*
X2588599Y-2031500D01*
G37*
G36*
X3474399Y-2031500D02*
G01*
X3474399Y-1984200D01*
X3517700Y-1984200D01*
X3517700Y-2031500D01*
G37*
G36*
X3411400Y-2031500D02*
G01*
X3411400Y-1984200D01*
X3454799Y-1984200D01*
X3454799Y-2031500D01*
G37*
G36*
X4537399Y-2031500D02*
G01*
X4537399Y-1984200D01*
X4580699Y-1984200D01*
X4580699Y-2031500D01*
G37*
G36*
X4474399Y-2031500D02*
G01*
X4474399Y-1984200D01*
X4517799Y-1984200D01*
X4517799Y-2031500D01*
G37*
G36*
X5206700Y-2031500D02*
G01*
X5206700Y-1984200D01*
X5250000Y-1984200D01*
X5250000Y-2031500D01*
G37*
G36*
X5143699Y-2031500D02*
G01*
X5143699Y-1984200D01*
X5186999Y-1984200D01*
X5186999Y-2031500D01*
G37*
G36*
X6072799Y-2031500D02*
G01*
X6072799Y-1984200D01*
X6116199Y-1984200D01*
X6116199Y-2031500D01*
G37*
G36*
X6009799Y-2031500D02*
G01*
X6009799Y-1984200D01*
X6053199Y-1984200D01*
X6053199Y-2031500D01*
G37*
G36*
X6938900Y-2031500D02*
G01*
X6938900Y-1984200D01*
X6982299Y-1984200D01*
X6982299Y-2031500D01*
G37*
G36*
X6876000Y-2031500D02*
G01*
X6876000Y-1984200D01*
X6919300Y-1984200D01*
X6919300Y-2031500D01*
G37*
G36*
X7805100Y-2031500D02*
G01*
X7805100Y-1984200D01*
X7848500Y-1984200D01*
X7848500Y-2031500D01*
G37*
G36*
X7742100Y-2031500D02*
G01*
X7742100Y-1984200D01*
X7785500Y-1984200D01*
X7785500Y-2031500D01*
G37*
G36*
X813000Y-2897700D02*
G01*
X813000Y-2850399D01*
X856300Y-2850399D01*
X856300Y-2897700D01*
G37*
G36*
X875900Y-2897700D02*
G01*
X875900Y-2850399D01*
X919300Y-2850399D01*
X919300Y-2897700D01*
G37*
G36*
X1679099Y-2897700D02*
G01*
X1679099Y-2850399D01*
X1722500Y-2850399D01*
X1722500Y-2897700D01*
G37*
G36*
X1742100Y-2897700D02*
G01*
X1742100Y-2850399D01*
X1785500Y-2850399D01*
X1785500Y-2897700D01*
G37*
G36*
X2545200Y-2897700D02*
G01*
X2545200Y-2850399D01*
X2588599Y-2850399D01*
X2588599Y-2897700D01*
G37*
G36*
X2608199Y-2897700D02*
G01*
X2608199Y-2850399D01*
X2651599Y-2850399D01*
X2651599Y-2897700D01*
G37*
G36*
X3411400Y-2897700D02*
G01*
X3411400Y-2850399D01*
X3454700Y-2850399D01*
X3454700Y-2897700D01*
G37*
G36*
X3474399Y-2897700D02*
G01*
X3474399Y-2850399D01*
X3517700Y-2850399D01*
X3517700Y-2897700D01*
G37*
G36*
X4474399Y-2897700D02*
G01*
X4474399Y-2850399D01*
X4517700Y-2850399D01*
X4517700Y-2897700D01*
G37*
G36*
X4537399Y-2897700D02*
G01*
X4537399Y-2850399D01*
X4580699Y-2850399D01*
X4580699Y-2897700D01*
G37*
G36*
X5143699Y-2897700D02*
G01*
X5143699Y-2850399D01*
X5186999Y-2850399D01*
X5186999Y-2897700D01*
G37*
G36*
X5206700Y-2897700D02*
G01*
X5206700Y-2850399D01*
X5250000Y-2850399D01*
X5250000Y-2897700D01*
G37*
G36*
X6009799Y-2897700D02*
G01*
X6009799Y-2850399D01*
X6053199Y-2850399D01*
X6053199Y-2897700D01*
G37*
G36*
X6072799Y-2897700D02*
G01*
X6072799Y-2850399D01*
X6116199Y-2850399D01*
X6116199Y-2897700D01*
G37*
G36*
X6876000Y-2897700D02*
G01*
X6876000Y-2850399D01*
X6919300Y-2850399D01*
X6919300Y-2897700D01*
G37*
G36*
X6938900Y-2897700D02*
G01*
X6938900Y-2850399D01*
X6982299Y-2850399D01*
X6982299Y-2897700D01*
G37*
G36*
X7742100Y-2897700D02*
G01*
X7742100Y-2850399D01*
X7785500Y-2850399D01*
X7785500Y-2897700D01*
G37*
G36*
X7805100Y-2897700D02*
G01*
X7805100Y-2850399D01*
X7848500Y-2850399D01*
X7848500Y-2897700D01*
G37*
G36*
X876000Y-3763800D02*
G01*
X876000Y-3716500D01*
X919300Y-3716500D01*
X919300Y-3763800D01*
G37*
G36*
X813000Y-3763800D02*
G01*
X813000Y-3716500D01*
X856300Y-3716500D01*
X856300Y-3763800D01*
G37*
G36*
X1742100Y-3763800D02*
G01*
X1742100Y-3716500D01*
X1785500Y-3716500D01*
X1785500Y-3763800D01*
G37*
G36*
X1679099Y-3763800D02*
G01*
X1679099Y-3716500D01*
X1722500Y-3716500D01*
X1722500Y-3763800D01*
G37*
G36*
X2608199Y-3763800D02*
G01*
X2608199Y-3716500D01*
X2651599Y-3716500D01*
X2651599Y-3763800D01*
G37*
G36*
X2545200Y-3763800D02*
G01*
X2545200Y-3716500D01*
X2588599Y-3716500D01*
X2588599Y-3763800D01*
G37*
G36*
X3474399Y-3763800D02*
G01*
X3474399Y-3716500D01*
X3517700Y-3716500D01*
X3517700Y-3763800D01*
G37*
G36*
X3411400Y-3763800D02*
G01*
X3411400Y-3716500D01*
X3454799Y-3716500D01*
X3454799Y-3763800D01*
G37*
G36*
X4537399Y-3763800D02*
G01*
X4537399Y-3716500D01*
X4580699Y-3716500D01*
X4580699Y-3763800D01*
G37*
G36*
X4474399Y-3763800D02*
G01*
X4474399Y-3716500D01*
X4517799Y-3716500D01*
X4517799Y-3763800D01*
G37*
G36*
X5206700Y-3763800D02*
G01*
X5206700Y-3716500D01*
X5250000Y-3716500D01*
X5250000Y-3763800D01*
G37*
G36*
X5143699Y-3763800D02*
G01*
X5143699Y-3716500D01*
X5186999Y-3716500D01*
X5186999Y-3763800D01*
G37*
G36*
X6072799Y-3763800D02*
G01*
X6072799Y-3716500D01*
X6116199Y-3716500D01*
X6116199Y-3763800D01*
G37*
G36*
X6009799Y-3763800D02*
G01*
X6009799Y-3716500D01*
X6053199Y-3716500D01*
X6053199Y-3763800D01*
G37*
G36*
X6938900Y-3763800D02*
G01*
X6938900Y-3716500D01*
X6982299Y-3716500D01*
X6982299Y-3763800D01*
G37*
G36*
X6876000Y-3763800D02*
G01*
X6876000Y-3716500D01*
X6919300Y-3716500D01*
X6919300Y-3763800D01*
G37*
G36*
X7805100Y-3763800D02*
G01*
X7805100Y-3716500D01*
X7848500Y-3716500D01*
X7848500Y-3763800D01*
G37*
G36*
X7742100Y-3763800D02*
G01*
X7742100Y-3716500D01*
X7785500Y-3716500D01*
X7785500Y-3763800D01*
G37*
G36*
X813000Y-4629899D02*
G01*
X813000Y-4582600D01*
X856300Y-4582600D01*
X856300Y-4629899D01*
G37*
G36*
X875900Y-4629899D02*
G01*
X875900Y-4582600D01*
X919300Y-4582600D01*
X919300Y-4629899D01*
G37*
G36*
X1679099Y-4629899D02*
G01*
X1679099Y-4582600D01*
X1722500Y-4582600D01*
X1722500Y-4629899D01*
G37*
G36*
X1742100Y-4629899D02*
G01*
X1742100Y-4582600D01*
X1785500Y-4582600D01*
X1785500Y-4629899D01*
G37*
G36*
X2545200Y-4629899D02*
G01*
X2545200Y-4582600D01*
X2588599Y-4582600D01*
X2588599Y-4629899D01*
G37*
G36*
X2608199Y-4629899D02*
G01*
X2608199Y-4582600D01*
X2651599Y-4582600D01*
X2651599Y-4629899D01*
G37*
G36*
X3411400Y-4629899D02*
G01*
X3411400Y-4582600D01*
X3454700Y-4582600D01*
X3454700Y-4629899D01*
G37*
G36*
X3474399Y-4629899D02*
G01*
X3474399Y-4582600D01*
X3517700Y-4582600D01*
X3517700Y-4629899D01*
G37*
G36*
X4474399Y-4630000D02*
G01*
X4474399Y-4582600D01*
X4517700Y-4582600D01*
X4517700Y-4630000D01*
G37*
G36*
X4537399Y-4630000D02*
G01*
X4537399Y-4582600D01*
X4580699Y-4582600D01*
X4580699Y-4630000D01*
G37*
G36*
X5143699Y-4630000D02*
G01*
X5143699Y-4582600D01*
X5186999Y-4582600D01*
X5186999Y-4630000D01*
G37*
G36*
X5206700Y-4630000D02*
G01*
X5206700Y-4582600D01*
X5250000Y-4582600D01*
X5250000Y-4630000D01*
G37*
G36*
X6009799Y-4630000D02*
G01*
X6009799Y-4582600D01*
X6053199Y-4582600D01*
X6053199Y-4630000D01*
G37*
G36*
X6072799Y-4630000D02*
G01*
X6072799Y-4582600D01*
X6116199Y-4582600D01*
X6116199Y-4630000D01*
G37*
G36*
X6876000Y-4630000D02*
G01*
X6876000Y-4582600D01*
X6919300Y-4582600D01*
X6919300Y-4630000D01*
G37*
G36*
X6938900Y-4630000D02*
G01*
X6938900Y-4582600D01*
X6982299Y-4582600D01*
X6982299Y-4630000D01*
G37*
G36*
X7742100Y-4630000D02*
G01*
X7742100Y-4582600D01*
X7785500Y-4582600D01*
X7785500Y-4630000D01*
G37*
G36*
X7805100Y-4630000D02*
G01*
X7805100Y-4582600D01*
X7848500Y-4582600D01*
X7848500Y-4630000D01*
G37*
G36*
X876000Y-5496100D02*
G01*
X876000Y-5448800D01*
X919300Y-5448800D01*
X919300Y-5496100D01*
G37*
G36*
X813000Y-5496100D02*
G01*
X813000Y-5448800D01*
X856300Y-5448800D01*
X856300Y-5496100D01*
G37*
G36*
X1742100Y-5496100D02*
G01*
X1742100Y-5448800D01*
X1785500Y-5448800D01*
X1785500Y-5496100D01*
G37*
G36*
X1679099Y-5496100D02*
G01*
X1679099Y-5448800D01*
X1722500Y-5448800D01*
X1722500Y-5496100D01*
G37*
G36*
X2608199Y-5496100D02*
G01*
X2608199Y-5448800D01*
X2651599Y-5448800D01*
X2651599Y-5496100D01*
G37*
G36*
X2545200Y-5496100D02*
G01*
X2545200Y-5448800D01*
X2588599Y-5448800D01*
X2588599Y-5496100D01*
G37*
G36*
X3474399Y-5496100D02*
G01*
X3474399Y-5448800D01*
X3517700Y-5448800D01*
X3517700Y-5496100D01*
G37*
G36*
X3411400Y-5496100D02*
G01*
X3411400Y-5448800D01*
X3454799Y-5448800D01*
X3454799Y-5496100D01*
G37*
G36*
X4537399Y-5496100D02*
G01*
X4537399Y-5448800D01*
X4580699Y-5448800D01*
X4580699Y-5496100D01*
G37*
G36*
X4474399Y-5496100D02*
G01*
X4474399Y-5448800D01*
X4517799Y-5448800D01*
X4517799Y-5496100D01*
G37*
G36*
X5206700Y-5496100D02*
G01*
X5206700Y-5448800D01*
X5250000Y-5448800D01*
X5250000Y-5496100D01*
G37*
G36*
X5143699Y-5496100D02*
G01*
X5143699Y-5448800D01*
X5186999Y-5448800D01*
X5186999Y-5496100D01*
G37*
G36*
X6072799Y-5496100D02*
G01*
X6072799Y-5448800D01*
X6116199Y-5448800D01*
X6116199Y-5496100D01*
G37*
G36*
X6009799Y-5496100D02*
G01*
X6009799Y-5448800D01*
X6053199Y-5448800D01*
X6053199Y-5496100D01*
G37*
G36*
X6938900Y-5496100D02*
G01*
X6938900Y-5448800D01*
X6982299Y-5448800D01*
X6982299Y-5496100D01*
G37*
G36*
X6876000Y-5496100D02*
G01*
X6876000Y-5448800D01*
X6919300Y-5448800D01*
X6919300Y-5496100D01*
G37*
G36*
X7805100Y-5496100D02*
G01*
X7805100Y-5448800D01*
X7848500Y-5448800D01*
X7848500Y-5496100D01*
G37*
G36*
X7742100Y-5496100D02*
G01*
X7742100Y-5448800D01*
X7785500Y-5448800D01*
X7785500Y-5496100D01*
G37*
G36*
X813000Y-6362199D02*
G01*
X813000Y-6314899D01*
X856300Y-6314899D01*
X856300Y-6362199D01*
G37*
G36*
X875900Y-6362199D02*
G01*
X875900Y-6314899D01*
X919300Y-6314899D01*
X919300Y-6362199D01*
G37*
G36*
X1679099Y-6362199D02*
G01*
X1679099Y-6314899D01*
X1722500Y-6314899D01*
X1722500Y-6362199D01*
G37*
G36*
X1742100Y-6362199D02*
G01*
X1742100Y-6314899D01*
X1785500Y-6314899D01*
X1785500Y-6362199D01*
G37*
G36*
X2545200Y-6362199D02*
G01*
X2545200Y-6314899D01*
X2588599Y-6314899D01*
X2588599Y-6362199D01*
G37*
G36*
X2608199Y-6362199D02*
G01*
X2608199Y-6314899D01*
X2651599Y-6314899D01*
X2651599Y-6362199D01*
G37*
G36*
X3411400Y-6362199D02*
G01*
X3411400Y-6314899D01*
X3454700Y-6314899D01*
X3454700Y-6362199D01*
G37*
G36*
X3474399Y-6362199D02*
G01*
X3474399Y-6314899D01*
X3517700Y-6314899D01*
X3517700Y-6362199D01*
G37*
G36*
X4474399Y-6362199D02*
G01*
X4474399Y-6314899D01*
X4517700Y-6314899D01*
X4517700Y-6362199D01*
G37*
G36*
X4537399Y-6362199D02*
G01*
X4537399Y-6314899D01*
X4580699Y-6314899D01*
X4580699Y-6362199D01*
G37*
G36*
X5143699Y-6362199D02*
G01*
X5143699Y-6314899D01*
X5186999Y-6314899D01*
X5186999Y-6362199D01*
G37*
G36*
X5206700Y-6362199D02*
G01*
X5206700Y-6314899D01*
X5250000Y-6314899D01*
X5250000Y-6362199D01*
G37*
G36*
X6009799Y-6362199D02*
G01*
X6009799Y-6314899D01*
X6053199Y-6314899D01*
X6053199Y-6362199D01*
G37*
G36*
X6072799Y-6362199D02*
G01*
X6072799Y-6314899D01*
X6116199Y-6314899D01*
X6116199Y-6362199D01*
G37*
G36*
X6876000Y-6362199D02*
G01*
X6876000Y-6314899D01*
X6919300Y-6314899D01*
X6919300Y-6362199D01*
G37*
G36*
X6938900Y-6362199D02*
G01*
X6938900Y-6314899D01*
X6982299Y-6314899D01*
X6982299Y-6362199D01*
G37*
G36*
X7742100Y-6362199D02*
G01*
X7742100Y-6314899D01*
X7785500Y-6314899D01*
X7785500Y-6362199D01*
G37*
G36*
X7805100Y-6362199D02*
G01*
X7805100Y-6314899D01*
X7848500Y-6314899D01*
X7848500Y-6362199D01*
G37*
G36*
X876000Y-7228400D02*
G01*
X876000Y-7181100D01*
X919300Y-7181100D01*
X919300Y-7228400D01*
G37*
G36*
X813000Y-7228400D02*
G01*
X813000Y-7181100D01*
X856300Y-7181100D01*
X856300Y-7228400D01*
G37*
G36*
X1742100Y-7228400D02*
G01*
X1742100Y-7181100D01*
X1785500Y-7181100D01*
X1785500Y-7228400D01*
G37*
G36*
X1679099Y-7228400D02*
G01*
X1679099Y-7181100D01*
X1722500Y-7181100D01*
X1722500Y-7228400D01*
G37*
G36*
X2608199Y-7228400D02*
G01*
X2608199Y-7181100D01*
X2651599Y-7181100D01*
X2651599Y-7228400D01*
G37*
G36*
X2545200Y-7228400D02*
G01*
X2545200Y-7181100D01*
X2588599Y-7181100D01*
X2588599Y-7228400D01*
G37*
G36*
X3474399Y-7228400D02*
G01*
X3474399Y-7181100D01*
X3517700Y-7181100D01*
X3517700Y-7228400D01*
G37*
G36*
X3411400Y-7228400D02*
G01*
X3411400Y-7181100D01*
X3454799Y-7181100D01*
X3454799Y-7228400D01*
G37*
G36*
X4537399Y-7228400D02*
G01*
X4537399Y-7181100D01*
X4580699Y-7181100D01*
X4580699Y-7228400D01*
G37*
G36*
X4474399Y-7228400D02*
G01*
X4474399Y-7181100D01*
X4517799Y-7181100D01*
X4517799Y-7228400D01*
G37*
G36*
X5206700Y-7228400D02*
G01*
X5206700Y-7181100D01*
X5250000Y-7181100D01*
X5250000Y-7228400D01*
G37*
G36*
X5143699Y-7228400D02*
G01*
X5143699Y-7181100D01*
X5186999Y-7181100D01*
X5186999Y-7228400D01*
G37*
G36*
X6072799Y-7228400D02*
G01*
X6072799Y-7181100D01*
X6116199Y-7181100D01*
X6116199Y-7228400D01*
G37*
G36*
X6009799Y-7228400D02*
G01*
X6009799Y-7181100D01*
X6053199Y-7181100D01*
X6053199Y-7228400D01*
G37*
G36*
X6938900Y-7228400D02*
G01*
X6938900Y-7181100D01*
X6982299Y-7181100D01*
X6982299Y-7228400D01*
G37*
G36*
X6876000Y-7228400D02*
G01*
X6876000Y-7181100D01*
X6919300Y-7181100D01*
X6919300Y-7228400D01*
G37*
G36*
X7805100Y-7228400D02*
G01*
X7805100Y-7181100D01*
X7848500Y-7181100D01*
X7848500Y-7228400D01*
G37*
G36*
X7742100Y-7228400D02*
G01*
X7742100Y-7181100D01*
X7785500Y-7181100D01*
X7785500Y-7228400D01*
G37*
G36*
X813000Y-8094499D02*
G01*
X813000Y-8047199D01*
X856300Y-8047199D01*
X856300Y-8094499D01*
G37*
G36*
X875900Y-8094499D02*
G01*
X875900Y-8047199D01*
X919300Y-8047199D01*
X919300Y-8094499D01*
G37*
G36*
X1417299Y-7785500D02*
G01*
X1417299Y-7742100D01*
X1464600Y-7742100D01*
X1464600Y-7785500D01*
G37*
G36*
X1417299Y-7848499D02*
G01*
X1417299Y-7805100D01*
X1464600Y-7805100D01*
X1464600Y-7848499D01*
G37*
G36*
X2545200Y-8094499D02*
G01*
X2545200Y-8047199D01*
X2588599Y-8047199D01*
X2588599Y-8094499D01*
G37*
G36*
X2608199Y-8094499D02*
G01*
X2608199Y-8047199D01*
X2651599Y-8047199D01*
X2651599Y-8094499D01*
G37*
G36*
X3411400Y-8094499D02*
G01*
X3411400Y-8047199D01*
X3454700Y-8047199D01*
X3454700Y-8094499D01*
G37*
G36*
X3474399Y-8094499D02*
G01*
X3474399Y-8047199D01*
X3517700Y-8047199D01*
X3517700Y-8094499D01*
G37*
G36*
X4474399Y-8094499D02*
G01*
X4474399Y-8047199D01*
X4517700Y-8047199D01*
X4517700Y-8094499D01*
G37*
G36*
X4537399Y-8094499D02*
G01*
X4537399Y-8047199D01*
X4580699Y-8047199D01*
X4580699Y-8094499D01*
G37*
G36*
X5143699Y-8094499D02*
G01*
X5143699Y-8047199D01*
X5186999Y-8047199D01*
X5186999Y-8094499D01*
G37*
G36*
X5206700Y-8094499D02*
G01*
X5206700Y-8047199D01*
X5250000Y-8047199D01*
X5250000Y-8094499D01*
G37*
G36*
X6009799Y-8094499D02*
G01*
X6009799Y-8047199D01*
X6053199Y-8047199D01*
X6053199Y-8094499D01*
G37*
G36*
X6072799Y-8094499D02*
G01*
X6072799Y-8047199D01*
X6116199Y-8047199D01*
X6116199Y-8094499D01*
G37*
G36*
X6876000Y-8094699D02*
G01*
X6876000Y-8047399D01*
X6919300Y-8047399D01*
X6919300Y-8094699D01*
G37*
G36*
X6938999Y-8094699D02*
G01*
X6938999Y-8047399D01*
X6982299Y-8047399D01*
X6982299Y-8094699D01*
G37*
G36*
X7742100Y-8094499D02*
G01*
X7742100Y-8047199D01*
X7785500Y-8047199D01*
X7785500Y-8094499D01*
G37*
G36*
X7805100Y-8094499D02*
G01*
X7805100Y-8047199D01*
X7848500Y-8047199D01*
X7848500Y-8094499D01*
G37*
G36*
X616100Y-1165399D02*
G01*
X616100Y-1118099D01*
X659499Y-1118099D01*
X659499Y-1165399D01*
G37*
G36*
X679099Y-1165399D02*
G01*
X679099Y-1118099D01*
X722500Y-1118099D01*
X722500Y-1165399D01*
G37*
G36*
X1482200Y-1165399D02*
G01*
X1482200Y-1118099D01*
X1525600Y-1118099D01*
X1525600Y-1165399D01*
G37*
G36*
X1545200Y-1165399D02*
G01*
X1545200Y-1118099D01*
X1588599Y-1118099D01*
X1588599Y-1165399D01*
G37*
G36*
X2348400Y-1165399D02*
G01*
X2348400Y-1118099D01*
X2391800Y-1118099D01*
X2391800Y-1165399D01*
G37*
G36*
X2411400Y-1165399D02*
G01*
X2411400Y-1118099D01*
X2454799Y-1118099D01*
X2454799Y-1165399D01*
G37*
G36*
X3277500Y-1165399D02*
G01*
X3277500Y-1118099D01*
X3320900Y-1118099D01*
X3320900Y-1165399D01*
G37*
G36*
X3214499Y-1165399D02*
G01*
X3214499Y-1118099D01*
X3257899Y-1118099D01*
X3257899Y-1165399D01*
G37*
G36*
X4340500Y-1165399D02*
G01*
X4340500Y-1118099D01*
X4383900Y-1118099D01*
X4383900Y-1165399D01*
G37*
G36*
X4277500Y-1165399D02*
G01*
X4277500Y-1118099D01*
X4320900Y-1118099D01*
X4320900Y-1165399D01*
G37*
G36*
X5009799Y-1165399D02*
G01*
X5009799Y-1118099D01*
X5053199Y-1118099D01*
X5053199Y-1165399D01*
G37*
G36*
X4946800Y-1165399D02*
G01*
X4946800Y-1118099D01*
X4990200Y-1118099D01*
X4990200Y-1165399D01*
G37*
G36*
X5876000Y-1165399D02*
G01*
X5876000Y-1118099D01*
X5919300Y-1118099D01*
X5919300Y-1165399D01*
G37*
G36*
X5813000Y-1165399D02*
G01*
X5813000Y-1118099D01*
X5856300Y-1118099D01*
X5856300Y-1165399D01*
G37*
G36*
X6742100Y-1165399D02*
G01*
X6742100Y-1118099D01*
X6785500Y-1118099D01*
X6785500Y-1165399D01*
G37*
G36*
X6679099Y-1165399D02*
G01*
X6679099Y-1118099D01*
X6722500Y-1118099D01*
X6722500Y-1165399D01*
G37*
G36*
X7608199Y-1165399D02*
G01*
X7608199Y-1118099D01*
X7651599Y-1118099D01*
X7651599Y-1165399D01*
G37*
G36*
X7545200Y-1165399D02*
G01*
X7545200Y-1118099D01*
X7588599Y-1118099D01*
X7588599Y-1165399D01*
G37*
G36*
X616100Y-2031500D02*
G01*
X616100Y-1984200D01*
X659499Y-1984200D01*
X659499Y-2031500D01*
G37*
G36*
X679099Y-2031500D02*
G01*
X679099Y-1984200D01*
X722500Y-1984200D01*
X722500Y-2031500D01*
G37*
G36*
X1482299Y-2031500D02*
G01*
X1482299Y-1984200D01*
X1525600Y-1984200D01*
X1525600Y-2031500D01*
G37*
G36*
X1545200Y-2031500D02*
G01*
X1545200Y-1984200D01*
X1588599Y-1984200D01*
X1588599Y-2031500D01*
G37*
G36*
X2348400Y-2031500D02*
G01*
X2348400Y-1984200D01*
X2391800Y-1984200D01*
X2391800Y-2031500D01*
G37*
G36*
X2411400Y-2031500D02*
G01*
X2411400Y-1984200D01*
X2454799Y-1984200D01*
X2454799Y-2031500D01*
G37*
G36*
X3214499Y-2031500D02*
G01*
X3214499Y-1984200D01*
X3257899Y-1984200D01*
X3257899Y-2031500D01*
G37*
G36*
X3277500Y-2031500D02*
G01*
X3277500Y-1984200D01*
X3320900Y-1984200D01*
X3320900Y-2031500D01*
G37*
G36*
X4277500Y-2031500D02*
G01*
X4277500Y-1984200D01*
X4320900Y-1984200D01*
X4320900Y-2031500D01*
G37*
G36*
X4340500Y-2031500D02*
G01*
X4340500Y-1984200D01*
X4383900Y-1984200D01*
X4383900Y-2031500D01*
G37*
G36*
X4946800Y-2031500D02*
G01*
X4946800Y-1984200D01*
X4990200Y-1984200D01*
X4990200Y-2031500D01*
G37*
G36*
X5009799Y-2031500D02*
G01*
X5009799Y-1984200D01*
X5053199Y-1984200D01*
X5053199Y-2031500D01*
G37*
G36*
X5876000Y-2031500D02*
G01*
X5876000Y-1984200D01*
X5919300Y-1984200D01*
X5919300Y-2031500D01*
G37*
G36*
X5813000Y-2031500D02*
G01*
X5813000Y-1984200D01*
X5856300Y-1984200D01*
X5856300Y-2031500D01*
G37*
G36*
X6742100Y-2031500D02*
G01*
X6742100Y-1984200D01*
X6785500Y-1984200D01*
X6785500Y-2031500D01*
G37*
G36*
X6679099Y-2031500D02*
G01*
X6679099Y-1984200D01*
X6722500Y-1984200D01*
X6722500Y-2031500D01*
G37*
G36*
X7608199Y-2031500D02*
G01*
X7608199Y-1984200D01*
X7651599Y-1984200D01*
X7651599Y-2031500D01*
G37*
G36*
X7545200Y-2031500D02*
G01*
X7545200Y-1984200D01*
X7588599Y-1984200D01*
X7588599Y-2031500D01*
G37*
G36*
X616100Y-2897700D02*
G01*
X616100Y-2850399D01*
X659499Y-2850399D01*
X659499Y-2897700D01*
G37*
G36*
X679099Y-2897700D02*
G01*
X679099Y-2850399D01*
X722500Y-2850399D01*
X722500Y-2897700D01*
G37*
G36*
X1482200Y-2897700D02*
G01*
X1482200Y-2850399D01*
X1525600Y-2850399D01*
X1525600Y-2897700D01*
G37*
G36*
X1545200Y-2897700D02*
G01*
X1545200Y-2850399D01*
X1588599Y-2850399D01*
X1588599Y-2897700D01*
G37*
G36*
X2348400Y-2897700D02*
G01*
X2348400Y-2850399D01*
X2391800Y-2850399D01*
X2391800Y-2897700D01*
G37*
G36*
X2411400Y-2897700D02*
G01*
X2411400Y-2850399D01*
X2454700Y-2850399D01*
X2454700Y-2897700D01*
G37*
G36*
X3277500Y-2897700D02*
G01*
X3277500Y-2850399D01*
X3320900Y-2850399D01*
X3320900Y-2897700D01*
G37*
G36*
X3214499Y-2897700D02*
G01*
X3214499Y-2850399D01*
X3257899Y-2850399D01*
X3257899Y-2897700D01*
G37*
G36*
X4340500Y-2897700D02*
G01*
X4340500Y-2850399D01*
X4383900Y-2850399D01*
X4383900Y-2897700D01*
G37*
G36*
X4277500Y-2897700D02*
G01*
X4277500Y-2850399D01*
X4320900Y-2850399D01*
X4320900Y-2897700D01*
G37*
G36*
X5009799Y-2897700D02*
G01*
X5009799Y-2850399D01*
X5053199Y-2850399D01*
X5053199Y-2897700D01*
G37*
G36*
X4946800Y-2897700D02*
G01*
X4946800Y-2850399D01*
X4990200Y-2850399D01*
X4990200Y-2897700D01*
G37*
G36*
X5876000Y-2897700D02*
G01*
X5876000Y-2850399D01*
X5919300Y-2850399D01*
X5919300Y-2897700D01*
G37*
G36*
X5813000Y-2897700D02*
G01*
X5813000Y-2850399D01*
X5856300Y-2850399D01*
X5856300Y-2897700D01*
G37*
G36*
X6742100Y-2897700D02*
G01*
X6742100Y-2850399D01*
X6785500Y-2850399D01*
X6785500Y-2897700D01*
G37*
G36*
X6679099Y-2897700D02*
G01*
X6679099Y-2850399D01*
X6722500Y-2850399D01*
X6722500Y-2897700D01*
G37*
G36*
X7608199Y-2897700D02*
G01*
X7608199Y-2850399D01*
X7651599Y-2850399D01*
X7651599Y-2897700D01*
G37*
G36*
X7545200Y-2897700D02*
G01*
X7545200Y-2850399D01*
X7588599Y-2850399D01*
X7588599Y-2897700D01*
G37*
G36*
X616100Y-3763800D02*
G01*
X616100Y-3716500D01*
X659499Y-3716500D01*
X659499Y-3763800D01*
G37*
G36*
X679099Y-3763800D02*
G01*
X679099Y-3716500D01*
X722500Y-3716500D01*
X722500Y-3763800D01*
G37*
G36*
X1482200Y-3763800D02*
G01*
X1482200Y-3716500D01*
X1525600Y-3716500D01*
X1525600Y-3763800D01*
G37*
G36*
X1545200Y-3763800D02*
G01*
X1545200Y-3716500D01*
X1588599Y-3716500D01*
X1588599Y-3763800D01*
G37*
G36*
X2348400Y-3763800D02*
G01*
X2348400Y-3716500D01*
X2391800Y-3716500D01*
X2391800Y-3763800D01*
G37*
G36*
X2411400Y-3763800D02*
G01*
X2411400Y-3716500D01*
X2454700Y-3716500D01*
X2454700Y-3763800D01*
G37*
G36*
X3214499Y-3763800D02*
G01*
X3214499Y-3716500D01*
X3257899Y-3716500D01*
X3257899Y-3763800D01*
G37*
G36*
X3277500Y-3763800D02*
G01*
X3277500Y-3716500D01*
X3320900Y-3716500D01*
X3320900Y-3763800D01*
G37*
G36*
X4277500Y-3763800D02*
G01*
X4277500Y-3716500D01*
X4320900Y-3716500D01*
X4320900Y-3763800D01*
G37*
G36*
X4340500Y-3763800D02*
G01*
X4340500Y-3716500D01*
X4383900Y-3716500D01*
X4383900Y-3763800D01*
G37*
G36*
X4946800Y-3763800D02*
G01*
X4946800Y-3716500D01*
X4990200Y-3716500D01*
X4990200Y-3763800D01*
G37*
G36*
X5009799Y-3763800D02*
G01*
X5009799Y-3716500D01*
X5053199Y-3716500D01*
X5053199Y-3763800D01*
G37*
G36*
X5876000Y-3763800D02*
G01*
X5876000Y-3716500D01*
X5919300Y-3716500D01*
X5919300Y-3763800D01*
G37*
G36*
X5813000Y-3763800D02*
G01*
X5813000Y-3716500D01*
X5856300Y-3716500D01*
X5856300Y-3763800D01*
G37*
G36*
X6742100Y-3763800D02*
G01*
X6742100Y-3716500D01*
X6785500Y-3716500D01*
X6785500Y-3763800D01*
G37*
G36*
X6679099Y-3763800D02*
G01*
X6679099Y-3716500D01*
X6722500Y-3716500D01*
X6722500Y-3763800D01*
G37*
G36*
X7608199Y-3763800D02*
G01*
X7608199Y-3716500D01*
X7651599Y-3716500D01*
X7651599Y-3763800D01*
G37*
G36*
X7545200Y-3763800D02*
G01*
X7545200Y-3716500D01*
X7588599Y-3716500D01*
X7588599Y-3763800D01*
G37*
G36*
X616100Y-4629899D02*
G01*
X616100Y-4582600D01*
X659499Y-4582600D01*
X659499Y-4629899D01*
G37*
G36*
X679099Y-4629899D02*
G01*
X679099Y-4582600D01*
X722500Y-4582600D01*
X722500Y-4629899D01*
G37*
G36*
X1482200Y-4629899D02*
G01*
X1482200Y-4582600D01*
X1525600Y-4582600D01*
X1525600Y-4629899D01*
G37*
G36*
X1545200Y-4629899D02*
G01*
X1545200Y-4582600D01*
X1588599Y-4582600D01*
X1588599Y-4629899D01*
G37*
G36*
X2348400Y-4629899D02*
G01*
X2348400Y-4582600D01*
X2391800Y-4582600D01*
X2391800Y-4629899D01*
G37*
G36*
X2411400Y-4629899D02*
G01*
X2411400Y-4582600D01*
X2454700Y-4582600D01*
X2454700Y-4629899D01*
G37*
G36*
X3277500Y-4629899D02*
G01*
X3277500Y-4582600D01*
X3320900Y-4582600D01*
X3320900Y-4629899D01*
G37*
G36*
X3214499Y-4629899D02*
G01*
X3214499Y-4582600D01*
X3257899Y-4582600D01*
X3257899Y-4629899D01*
G37*
G36*
X4340500Y-4630000D02*
G01*
X4340500Y-4582600D01*
X4383900Y-4582600D01*
X4383900Y-4630000D01*
G37*
G36*
X4277500Y-4630000D02*
G01*
X4277500Y-4582600D01*
X4320900Y-4582600D01*
X4320900Y-4630000D01*
G37*
G36*
X5009799Y-4630000D02*
G01*
X5009799Y-4582600D01*
X5053199Y-4582600D01*
X5053199Y-4630000D01*
G37*
G36*
X4946800Y-4630000D02*
G01*
X4946800Y-4582600D01*
X4990200Y-4582600D01*
X4990200Y-4630000D01*
G37*
G36*
X5876000Y-4630000D02*
G01*
X5876000Y-4582600D01*
X5919300Y-4582600D01*
X5919300Y-4630000D01*
G37*
G36*
X5813000Y-4630000D02*
G01*
X5813000Y-4582600D01*
X5856300Y-4582600D01*
X5856300Y-4630000D01*
G37*
G36*
X6742100Y-4630000D02*
G01*
X6742100Y-4582600D01*
X6785500Y-4582600D01*
X6785500Y-4630000D01*
G37*
G36*
X6679099Y-4630000D02*
G01*
X6679099Y-4582600D01*
X6722500Y-4582600D01*
X6722500Y-4630000D01*
G37*
G36*
X7608199Y-4630000D02*
G01*
X7608199Y-4582600D01*
X7651599Y-4582600D01*
X7651599Y-4630000D01*
G37*
G36*
X7545200Y-4630000D02*
G01*
X7545200Y-4582600D01*
X7588599Y-4582600D01*
X7588599Y-4630000D01*
G37*
G36*
X616100Y-5496100D02*
G01*
X616100Y-5448800D01*
X659499Y-5448800D01*
X659499Y-5496100D01*
G37*
G36*
X679099Y-5496100D02*
G01*
X679099Y-5448800D01*
X722500Y-5448800D01*
X722500Y-5496100D01*
G37*
G36*
X1482200Y-5496100D02*
G01*
X1482200Y-5448800D01*
X1525600Y-5448800D01*
X1525600Y-5496100D01*
G37*
G36*
X1545200Y-5496100D02*
G01*
X1545200Y-5448800D01*
X1588599Y-5448800D01*
X1588599Y-5496100D01*
G37*
G36*
X2348400Y-5496100D02*
G01*
X2348400Y-5448800D01*
X2391800Y-5448800D01*
X2391800Y-5496100D01*
G37*
G36*
X2411400Y-5496100D02*
G01*
X2411400Y-5448800D01*
X2454700Y-5448800D01*
X2454700Y-5496100D01*
G37*
G36*
X3214499Y-5496100D02*
G01*
X3214499Y-5448800D01*
X3257899Y-5448800D01*
X3257899Y-5496100D01*
G37*
G36*
X3277500Y-5496100D02*
G01*
X3277500Y-5448800D01*
X3320900Y-5448800D01*
X3320900Y-5496100D01*
G37*
G36*
X4277500Y-5496100D02*
G01*
X4277500Y-5448800D01*
X4320900Y-5448800D01*
X4320900Y-5496100D01*
G37*
G36*
X4340500Y-5496100D02*
G01*
X4340500Y-5448800D01*
X4383900Y-5448800D01*
X4383900Y-5496100D01*
G37*
G36*
X4946800Y-5496100D02*
G01*
X4946800Y-5448800D01*
X4990200Y-5448800D01*
X4990200Y-5496100D01*
G37*
G36*
X5009799Y-5496100D02*
G01*
X5009799Y-5448800D01*
X5053199Y-5448800D01*
X5053199Y-5496100D01*
G37*
G36*
X5876000Y-5496100D02*
G01*
X5876000Y-5448800D01*
X5919300Y-5448800D01*
X5919300Y-5496100D01*
G37*
G36*
X5813000Y-5496100D02*
G01*
X5813000Y-5448800D01*
X5856300Y-5448800D01*
X5856300Y-5496100D01*
G37*
G36*
X6742100Y-5496100D02*
G01*
X6742100Y-5448800D01*
X6785500Y-5448800D01*
X6785500Y-5496100D01*
G37*
G36*
X6679099Y-5496100D02*
G01*
X6679099Y-5448800D01*
X6722500Y-5448800D01*
X6722500Y-5496100D01*
G37*
G36*
X7608199Y-5496100D02*
G01*
X7608199Y-5448800D01*
X7651599Y-5448800D01*
X7651599Y-5496100D01*
G37*
G36*
X7545200Y-5496100D02*
G01*
X7545200Y-5448800D01*
X7588599Y-5448800D01*
X7588599Y-5496100D01*
G37*
G36*
X616100Y-6362199D02*
G01*
X616100Y-6314899D01*
X659499Y-6314899D01*
X659499Y-6362199D01*
G37*
G36*
X679099Y-6362199D02*
G01*
X679099Y-6314899D01*
X722500Y-6314899D01*
X722500Y-6362199D01*
G37*
G36*
X1482200Y-6362199D02*
G01*
X1482200Y-6314899D01*
X1525600Y-6314899D01*
X1525600Y-6362199D01*
G37*
G36*
X1545200Y-6362199D02*
G01*
X1545200Y-6314899D01*
X1588599Y-6314899D01*
X1588599Y-6362199D01*
G37*
G36*
X2348400Y-6362199D02*
G01*
X2348400Y-6314899D01*
X2391800Y-6314899D01*
X2391800Y-6362199D01*
G37*
G36*
X2411400Y-6362199D02*
G01*
X2411400Y-6314899D01*
X2454700Y-6314899D01*
X2454700Y-6362199D01*
G37*
G36*
X3277500Y-6362199D02*
G01*
X3277500Y-6314899D01*
X3320900Y-6314899D01*
X3320900Y-6362199D01*
G37*
G36*
X3214499Y-6362199D02*
G01*
X3214499Y-6314899D01*
X3257899Y-6314899D01*
X3257899Y-6362199D01*
G37*
G36*
X4340500Y-6362199D02*
G01*
X4340500Y-6314899D01*
X4383900Y-6314899D01*
X4383900Y-6362199D01*
G37*
G36*
X4277500Y-6362199D02*
G01*
X4277500Y-6314899D01*
X4320900Y-6314899D01*
X4320900Y-6362199D01*
G37*
G36*
X5009799Y-6362199D02*
G01*
X5009799Y-6314899D01*
X5053199Y-6314899D01*
X5053199Y-6362199D01*
G37*
G36*
X4946800Y-6362199D02*
G01*
X4946800Y-6314899D01*
X4990200Y-6314899D01*
X4990200Y-6362199D01*
G37*
G36*
X5876000Y-6362199D02*
G01*
X5876000Y-6314899D01*
X5919300Y-6314899D01*
X5919300Y-6362199D01*
G37*
G36*
X5813000Y-6362199D02*
G01*
X5813000Y-6314899D01*
X5856300Y-6314899D01*
X5856300Y-6362199D01*
G37*
G36*
X6742100Y-6362199D02*
G01*
X6742100Y-6314899D01*
X6785500Y-6314899D01*
X6785500Y-6362199D01*
G37*
G36*
X6679099Y-6362199D02*
G01*
X6679099Y-6314899D01*
X6722500Y-6314899D01*
X6722500Y-6362199D01*
G37*
G36*
X7608199Y-6362199D02*
G01*
X7608199Y-6314899D01*
X7651599Y-6314899D01*
X7651599Y-6362199D01*
G37*
G36*
X7545200Y-6362199D02*
G01*
X7545200Y-6314899D01*
X7588599Y-6314899D01*
X7588599Y-6362199D01*
G37*
G36*
X616100Y-7228400D02*
G01*
X616100Y-7181100D01*
X659499Y-7181100D01*
X659499Y-7228400D01*
G37*
G36*
X679099Y-7228400D02*
G01*
X679099Y-7181100D01*
X722500Y-7181100D01*
X722500Y-7228400D01*
G37*
G36*
X1482200Y-7228400D02*
G01*
X1482200Y-7181100D01*
X1525600Y-7181100D01*
X1525600Y-7228400D01*
G37*
G36*
X1545200Y-7228400D02*
G01*
X1545200Y-7181100D01*
X1588599Y-7181100D01*
X1588599Y-7228400D01*
G37*
G36*
X2348400Y-7228400D02*
G01*
X2348400Y-7181100D01*
X2391800Y-7181100D01*
X2391800Y-7228400D01*
G37*
G36*
X2411400Y-7228400D02*
G01*
X2411400Y-7181100D01*
X2454700Y-7181100D01*
X2454700Y-7228400D01*
G37*
G36*
X3214499Y-7228400D02*
G01*
X3214499Y-7181100D01*
X3257899Y-7181100D01*
X3257899Y-7228400D01*
G37*
G36*
X3277500Y-7228400D02*
G01*
X3277500Y-7181100D01*
X3320900Y-7181100D01*
X3320900Y-7228400D01*
G37*
G36*
X4277500Y-7228400D02*
G01*
X4277500Y-7181100D01*
X4320900Y-7181100D01*
X4320900Y-7228400D01*
G37*
G36*
X4340500Y-7228400D02*
G01*
X4340500Y-7181100D01*
X4383900Y-7181100D01*
X4383900Y-7228400D01*
G37*
G36*
X4946800Y-7228400D02*
G01*
X4946800Y-7181100D01*
X4990200Y-7181100D01*
X4990200Y-7228400D01*
G37*
G36*
X5009799Y-7228400D02*
G01*
X5009799Y-7181100D01*
X5053199Y-7181100D01*
X5053199Y-7228400D01*
G37*
G36*
X5876000Y-7228400D02*
G01*
X5876000Y-7181100D01*
X5919300Y-7181100D01*
X5919300Y-7228400D01*
G37*
G36*
X5813000Y-7228400D02*
G01*
X5813000Y-7181100D01*
X5856300Y-7181100D01*
X5856300Y-7228400D01*
G37*
G36*
X6742100Y-7228400D02*
G01*
X6742100Y-7181100D01*
X6785500Y-7181100D01*
X6785500Y-7228400D01*
G37*
G36*
X6679099Y-7228400D02*
G01*
X6679099Y-7181100D01*
X6722500Y-7181100D01*
X6722500Y-7228400D01*
G37*
G36*
X7608199Y-7228400D02*
G01*
X7608199Y-7181100D01*
X7651599Y-7181100D01*
X7651599Y-7228400D01*
G37*
G36*
X7545200Y-7228400D02*
G01*
X7545200Y-7181100D01*
X7588599Y-7181100D01*
X7588599Y-7228400D01*
G37*
G36*
X616100Y-8094499D02*
G01*
X616100Y-8047199D01*
X659499Y-8047199D01*
X659499Y-8094499D01*
G37*
G36*
X679099Y-8094499D02*
G01*
X679099Y-8047199D01*
X722500Y-8047199D01*
X722500Y-8094499D01*
G37*
G36*
X1267700Y-7785400D02*
G01*
X1267700Y-7742100D01*
X1315000Y-7742100D01*
X1315000Y-7785400D01*
G37*
G36*
X1267700Y-7848400D02*
G01*
X1267700Y-7805100D01*
X1315000Y-7805100D01*
X1315000Y-7848400D01*
G37*
G36*
X3277500Y-8094499D02*
G01*
X3277500Y-8047199D01*
X3320900Y-8047199D01*
X3320900Y-8094499D01*
G37*
G36*
X3214499Y-8094499D02*
G01*
X3214499Y-8047199D01*
X3257899Y-8047199D01*
X3257899Y-8094499D01*
G37*
G36*
X4340500Y-8094499D02*
G01*
X4340500Y-8047199D01*
X4383900Y-8047199D01*
X4383900Y-8094499D01*
G37*
G36*
X4277500Y-8094499D02*
G01*
X4277500Y-8047199D01*
X4320900Y-8047199D01*
X4320900Y-8094499D01*
G37*
G36*
X5009799Y-8094499D02*
G01*
X5009799Y-8047199D01*
X5053199Y-8047199D01*
X5053199Y-8094499D01*
G37*
G36*
X4946800Y-8094499D02*
G01*
X4946800Y-8047199D01*
X4990200Y-8047199D01*
X4990200Y-8094499D01*
G37*
G36*
X5876000Y-8094499D02*
G01*
X5876000Y-8047199D01*
X5919300Y-8047199D01*
X5919300Y-8094499D01*
G37*
G36*
X5813000Y-8094499D02*
G01*
X5813000Y-8047199D01*
X5856300Y-8047199D01*
X5856300Y-8094499D01*
G37*
G36*
X6742100Y-8094499D02*
G01*
X6742100Y-8047199D01*
X6785500Y-8047199D01*
X6785500Y-8094499D01*
G37*
G36*
X6679099Y-8094499D02*
G01*
X6679099Y-8047199D01*
X6722500Y-8047199D01*
X6722500Y-8094499D01*
G37*
G36*
X7608199Y-8094499D02*
G01*
X7608199Y-8047199D01*
X7651599Y-8047199D01*
X7651599Y-8094499D01*
G37*
G36*
X7545200Y-8094499D02*
G01*
X7545200Y-8047199D01*
X7588599Y-8047199D01*
X7588599Y-8094499D01*
G37*
G36*
X1118100Y-919299D02*
G01*
X1118100Y-875999D01*
X1165399Y-875999D01*
X1165399Y-919299D01*
G37*
G36*
X1118100Y-856300D02*
G01*
X1118100Y-813000D01*
X1165399Y-813000D01*
X1165399Y-856300D01*
G37*
G36*
X1984200Y-919299D02*
G01*
X1984200Y-875999D01*
X2031499Y-875999D01*
X2031499Y-919299D01*
G37*
G36*
X1984200Y-856300D02*
G01*
X1984200Y-813000D01*
X2031499Y-813000D01*
X2031499Y-856300D01*
G37*
G36*
X2850399Y-919299D02*
G01*
X2850399Y-875999D01*
X2897700Y-875999D01*
X2897700Y-919299D01*
G37*
G36*
X2850399Y-856300D02*
G01*
X2850399Y-813000D01*
X2897700Y-813000D01*
X2897700Y-856300D01*
G37*
G36*
X3165299Y-919299D02*
G01*
X3165299Y-875999D01*
X3212600Y-875999D01*
X3212600Y-919299D01*
G37*
G36*
X3165299Y-856300D02*
G01*
X3165299Y-813000D01*
X3212600Y-813000D01*
X3212600Y-856300D01*
G37*
G36*
X4582600Y-919299D02*
G01*
X4582600Y-875999D01*
X4630000Y-875999D01*
X4630000Y-919299D01*
G37*
G36*
X4582600Y-856300D02*
G01*
X4582600Y-813000D01*
X4630000Y-813000D01*
X4630000Y-856300D01*
G37*
G36*
X5448800Y-919299D02*
G01*
X5448800Y-875999D01*
X5496099Y-875999D01*
X5496099Y-919299D01*
G37*
G36*
X5448800Y-856300D02*
G01*
X5448800Y-813000D01*
X5496099Y-813000D01*
X5496099Y-856300D01*
G37*
G36*
X6314899Y-856300D02*
G01*
X6314899Y-813000D01*
X6362200Y-813000D01*
X6362200Y-856300D01*
G37*
G36*
X6314899Y-919299D02*
G01*
X6314899Y-875999D01*
X6362200Y-875999D01*
X6362200Y-919299D01*
G37*
G36*
X7181099Y-856300D02*
G01*
X7181099Y-813000D01*
X7228400Y-813000D01*
X7228400Y-856300D01*
G37*
G36*
X7181099Y-919299D02*
G01*
X7181099Y-875999D01*
X7228400Y-875999D01*
X7228400Y-919299D01*
G37*
G36*
X8047200Y-856300D02*
G01*
X8047200Y-813000D01*
X8094499Y-813000D01*
X8094499Y-856300D01*
G37*
G36*
X8047200Y-919299D02*
G01*
X8047200Y-875999D01*
X8094499Y-875999D01*
X8094499Y-919299D01*
G37*
G36*
X1118100Y-1785500D02*
G01*
X1118100Y-1742100D01*
X1165399Y-1742100D01*
X1165399Y-1785500D01*
G37*
G36*
X1118100Y-1722500D02*
G01*
X1118100Y-1679099D01*
X1165399Y-1679099D01*
X1165399Y-1722500D01*
G37*
G36*
X1984200Y-1785500D02*
G01*
X1984200Y-1742100D01*
X2031499Y-1742100D01*
X2031499Y-1785500D01*
G37*
G36*
X1984200Y-1722500D02*
G01*
X1984200Y-1679099D01*
X2031499Y-1679099D01*
X2031499Y-1722500D01*
G37*
G36*
X2850399Y-1785500D02*
G01*
X2850399Y-1742100D01*
X2897700Y-1742100D01*
X2897700Y-1785500D01*
G37*
G36*
X2850399Y-1722500D02*
G01*
X2850399Y-1679099D01*
X2897700Y-1679099D01*
X2897700Y-1722500D01*
G37*
G36*
X3165299Y-1785500D02*
G01*
X3165299Y-1742100D01*
X3212600Y-1742100D01*
X3212600Y-1785500D01*
G37*
G36*
X3165299Y-1722500D02*
G01*
X3165299Y-1679099D01*
X3212600Y-1679099D01*
X3212600Y-1722500D01*
G37*
G36*
X4582600Y-1785500D02*
G01*
X4582600Y-1742100D01*
X4630000Y-1742100D01*
X4630000Y-1785500D01*
G37*
G36*
X4582600Y-1722500D02*
G01*
X4582600Y-1679099D01*
X4630000Y-1679099D01*
X4630000Y-1722500D01*
G37*
G36*
X5448800Y-1785500D02*
G01*
X5448800Y-1742100D01*
X5496099Y-1742100D01*
X5496099Y-1785500D01*
G37*
G36*
X5448800Y-1722500D02*
G01*
X5448800Y-1679099D01*
X5496099Y-1679099D01*
X5496099Y-1722500D01*
G37*
G36*
X6314899Y-1785500D02*
G01*
X6314899Y-1742100D01*
X6362200Y-1742100D01*
X6362200Y-1785500D01*
G37*
G36*
X6314899Y-1722500D02*
G01*
X6314899Y-1679099D01*
X6362200Y-1679099D01*
X6362200Y-1722500D01*
G37*
G36*
X7181099Y-1785500D02*
G01*
X7181099Y-1742100D01*
X7228400Y-1742100D01*
X7228400Y-1785500D01*
G37*
G36*
X7181099Y-1722500D02*
G01*
X7181099Y-1679099D01*
X7228400Y-1679099D01*
X7228400Y-1722500D01*
G37*
G36*
X8047200Y-1785500D02*
G01*
X8047200Y-1742100D01*
X8094499Y-1742100D01*
X8094499Y-1785500D01*
G37*
G36*
X8047200Y-1722500D02*
G01*
X8047200Y-1679099D01*
X8094499Y-1679099D01*
X8094499Y-1722500D01*
G37*
G36*
X1118100Y-2588600D02*
G01*
X1118100Y-2545200D01*
X1165399Y-2545200D01*
X1165399Y-2588600D01*
G37*
G36*
X1118100Y-2651599D02*
G01*
X1118100Y-2608200D01*
X1165399Y-2608200D01*
X1165399Y-2651599D01*
G37*
G36*
X1984200Y-2588600D02*
G01*
X1984200Y-2545200D01*
X2031499Y-2545200D01*
X2031499Y-2588600D01*
G37*
G36*
X1984200Y-2651599D02*
G01*
X1984200Y-2608200D01*
X2031499Y-2608200D01*
X2031499Y-2651599D01*
G37*
G36*
X2850399Y-2588600D02*
G01*
X2850399Y-2545200D01*
X2897700Y-2545200D01*
X2897700Y-2588600D01*
G37*
G36*
X2850399Y-2651599D02*
G01*
X2850399Y-2608200D01*
X2897700Y-2608200D01*
X2897700Y-2651599D01*
G37*
G36*
X3165299Y-2588600D02*
G01*
X3165299Y-2545200D01*
X3212600Y-2545200D01*
X3212600Y-2588600D01*
G37*
G36*
X3165299Y-2651599D02*
G01*
X3165299Y-2608200D01*
X3212600Y-2608200D01*
X3212600Y-2651599D01*
G37*
G36*
X4582600Y-2588600D02*
G01*
X4582600Y-2545200D01*
X4630000Y-2545200D01*
X4630000Y-2588600D01*
G37*
G36*
X4582600Y-2651599D02*
G01*
X4582600Y-2608200D01*
X4630000Y-2608200D01*
X4630000Y-2651599D01*
G37*
G36*
X5448800Y-2588600D02*
G01*
X5448800Y-2545200D01*
X5496099Y-2545200D01*
X5496099Y-2588600D01*
G37*
G36*
X5448800Y-2651599D02*
G01*
X5448800Y-2608200D01*
X5496099Y-2608200D01*
X5496099Y-2651599D01*
G37*
G36*
X6314899Y-2588600D02*
G01*
X6314899Y-2545200D01*
X6362200Y-2545200D01*
X6362200Y-2588600D01*
G37*
G36*
X6314899Y-2651599D02*
G01*
X6314899Y-2608200D01*
X6362200Y-2608200D01*
X6362200Y-2651599D01*
G37*
G36*
X7181099Y-2588600D02*
G01*
X7181099Y-2545200D01*
X7228400Y-2545200D01*
X7228400Y-2588600D01*
G37*
G36*
X7181099Y-2651599D02*
G01*
X7181099Y-2608200D01*
X7228400Y-2608200D01*
X7228400Y-2651599D01*
G37*
G36*
X8047200Y-2588600D02*
G01*
X8047200Y-2545200D01*
X8094499Y-2545200D01*
X8094499Y-2588600D01*
G37*
G36*
X8047200Y-2651599D02*
G01*
X8047200Y-2608200D01*
X8094499Y-2608200D01*
X8094499Y-2651599D01*
G37*
G36*
X1118100Y-3517700D02*
G01*
X1118100Y-3474400D01*
X1165399Y-3474400D01*
X1165399Y-3517700D01*
G37*
G36*
X1118100Y-3454800D02*
G01*
X1118100Y-3411399D01*
X1165399Y-3411399D01*
X1165399Y-3454800D01*
G37*
G36*
X1984200Y-3517700D02*
G01*
X1984200Y-3474400D01*
X2031499Y-3474400D01*
X2031499Y-3517700D01*
G37*
G36*
X1984200Y-3454800D02*
G01*
X1984200Y-3411399D01*
X2031499Y-3411399D01*
X2031499Y-3454800D01*
G37*
G36*
X2850399Y-3517700D02*
G01*
X2850399Y-3474400D01*
X2897700Y-3474400D01*
X2897700Y-3517700D01*
G37*
G36*
X2850399Y-3454800D02*
G01*
X2850399Y-3411399D01*
X2897700Y-3411399D01*
X2897700Y-3454800D01*
G37*
G36*
X3165299Y-3517700D02*
G01*
X3165299Y-3474400D01*
X3212600Y-3474400D01*
X3212600Y-3517700D01*
G37*
G36*
X3165299Y-3454800D02*
G01*
X3165299Y-3411399D01*
X3212600Y-3411399D01*
X3212600Y-3454800D01*
G37*
G36*
X4582600Y-3517800D02*
G01*
X4582600Y-3474400D01*
X4630000Y-3474400D01*
X4630000Y-3517800D01*
G37*
G36*
X4582600Y-3454800D02*
G01*
X4582600Y-3411399D01*
X4630000Y-3411399D01*
X4630000Y-3454800D01*
G37*
G36*
X5448800Y-3517800D02*
G01*
X5448800Y-3474400D01*
X5496099Y-3474400D01*
X5496099Y-3517800D01*
G37*
G36*
X5448800Y-3454800D02*
G01*
X5448800Y-3411399D01*
X5496099Y-3411399D01*
X5496099Y-3454800D01*
G37*
G36*
X6314899Y-3517800D02*
G01*
X6314899Y-3474400D01*
X6362200Y-3474400D01*
X6362200Y-3517800D01*
G37*
G36*
X6314899Y-3454800D02*
G01*
X6314899Y-3411399D01*
X6362200Y-3411399D01*
X6362200Y-3454800D01*
G37*
G36*
X7181099Y-3517800D02*
G01*
X7181099Y-3474400D01*
X7228400Y-3474400D01*
X7228400Y-3517800D01*
G37*
G36*
X7181099Y-3454800D02*
G01*
X7181099Y-3411399D01*
X7228400Y-3411399D01*
X7228400Y-3454800D01*
G37*
G36*
X8047200Y-3517800D02*
G01*
X8047200Y-3474400D01*
X8094499Y-3474400D01*
X8094499Y-3517800D01*
G37*
G36*
X8047200Y-3454800D02*
G01*
X8047200Y-3411399D01*
X8094499Y-3411399D01*
X8094499Y-3454800D01*
G37*
G36*
X1118100Y-4320900D02*
G01*
X1118100Y-4277500D01*
X1165399Y-4277500D01*
X1165399Y-4320900D01*
G37*
G36*
X1118100Y-4383899D02*
G01*
X1118100Y-4340500D01*
X1165399Y-4340500D01*
X1165399Y-4383899D01*
G37*
G36*
X1984200Y-4320900D02*
G01*
X1984200Y-4277500D01*
X2031499Y-4277500D01*
X2031499Y-4320900D01*
G37*
G36*
X1984200Y-4383899D02*
G01*
X1984200Y-4340500D01*
X2031499Y-4340500D01*
X2031499Y-4383899D01*
G37*
G36*
X2850399Y-4320900D02*
G01*
X2850399Y-4277500D01*
X2897700Y-4277500D01*
X2897700Y-4320900D01*
G37*
G36*
X2850399Y-4383899D02*
G01*
X2850399Y-4340500D01*
X2897700Y-4340500D01*
X2897700Y-4383899D01*
G37*
G36*
X3165299Y-4320900D02*
G01*
X3165299Y-4277500D01*
X3212600Y-4277500D01*
X3212600Y-4320900D01*
G37*
G36*
X3165299Y-4383899D02*
G01*
X3165299Y-4340500D01*
X3212600Y-4340500D01*
X3212600Y-4383899D01*
G37*
G36*
X4582600Y-4320900D02*
G01*
X4582600Y-4277500D01*
X4630000Y-4277500D01*
X4630000Y-4320900D01*
G37*
G36*
X4582600Y-4383899D02*
G01*
X4582600Y-4340500D01*
X4630000Y-4340500D01*
X4630000Y-4383899D01*
G37*
G36*
X5448800Y-4320900D02*
G01*
X5448800Y-4277500D01*
X5496099Y-4277500D01*
X5496099Y-4320900D01*
G37*
G36*
X5448800Y-4383899D02*
G01*
X5448800Y-4340500D01*
X5496099Y-4340500D01*
X5496099Y-4383899D01*
G37*
G36*
X6314899Y-4320900D02*
G01*
X6314899Y-4277500D01*
X6362200Y-4277500D01*
X6362200Y-4320900D01*
G37*
G36*
X6314899Y-4383899D02*
G01*
X6314899Y-4340500D01*
X6362200Y-4340500D01*
X6362200Y-4383899D01*
G37*
G36*
X7181099Y-4320900D02*
G01*
X7181099Y-4277500D01*
X7228400Y-4277500D01*
X7228400Y-4320900D01*
G37*
G36*
X7181099Y-4383899D02*
G01*
X7181099Y-4340500D01*
X7228400Y-4340500D01*
X7228400Y-4383899D01*
G37*
G36*
X8047200Y-4320900D02*
G01*
X8047200Y-4277500D01*
X8094499Y-4277500D01*
X8094499Y-4320900D01*
G37*
G36*
X8047200Y-4383899D02*
G01*
X8047200Y-4340500D01*
X8094499Y-4340500D01*
X8094499Y-4383899D01*
G37*
G36*
X1118100Y-5250000D02*
G01*
X1118100Y-5206700D01*
X1165399Y-5206700D01*
X1165399Y-5250000D01*
G37*
G36*
X1118100Y-5186999D02*
G01*
X1118100Y-5143699D01*
X1165399Y-5143699D01*
X1165399Y-5186999D01*
G37*
G36*
X1984200Y-5250000D02*
G01*
X1984200Y-5206700D01*
X2031499Y-5206700D01*
X2031499Y-5250000D01*
G37*
G36*
X1984200Y-5186999D02*
G01*
X1984200Y-5143699D01*
X2031499Y-5143699D01*
X2031499Y-5186999D01*
G37*
G36*
X2850399Y-5250000D02*
G01*
X2850399Y-5206700D01*
X2897700Y-5206700D01*
X2897700Y-5250000D01*
G37*
G36*
X2850399Y-5186999D02*
G01*
X2850399Y-5143699D01*
X2897700Y-5143699D01*
X2897700Y-5186999D01*
G37*
G36*
X3165299Y-5250000D02*
G01*
X3165299Y-5206700D01*
X3212600Y-5206700D01*
X3212600Y-5250000D01*
G37*
G36*
X3165299Y-5186999D02*
G01*
X3165299Y-5143699D01*
X3212600Y-5143699D01*
X3212600Y-5186999D01*
G37*
G36*
X4582600Y-5250000D02*
G01*
X4582600Y-5206700D01*
X4630000Y-5206700D01*
X4630000Y-5250000D01*
G37*
G36*
X4582600Y-5186999D02*
G01*
X4582600Y-5143699D01*
X4630000Y-5143699D01*
X4630000Y-5186999D01*
G37*
G36*
X5448800Y-5250000D02*
G01*
X5448800Y-5206700D01*
X5496099Y-5206700D01*
X5496099Y-5250000D01*
G37*
G36*
X5448800Y-5186999D02*
G01*
X5448800Y-5143699D01*
X5496099Y-5143699D01*
X5496099Y-5186999D01*
G37*
G36*
X6314899Y-5250000D02*
G01*
X6314899Y-5206700D01*
X6362200Y-5206700D01*
X6362200Y-5250000D01*
G37*
G36*
X6314899Y-5186999D02*
G01*
X6314899Y-5143699D01*
X6362200Y-5143699D01*
X6362200Y-5186999D01*
G37*
G36*
X7181099Y-5250000D02*
G01*
X7181099Y-5206700D01*
X7228400Y-5206700D01*
X7228400Y-5250000D01*
G37*
G36*
X7181099Y-5186999D02*
G01*
X7181099Y-5143699D01*
X7228400Y-5143699D01*
X7228400Y-5186999D01*
G37*
G36*
X8047200Y-5250000D02*
G01*
X8047200Y-5206700D01*
X8094499Y-5206700D01*
X8094499Y-5250000D01*
G37*
G36*
X8047200Y-5186999D02*
G01*
X8047200Y-5143699D01*
X8094499Y-5143699D01*
X8094499Y-5186999D01*
G37*
G36*
X1118100Y-6053200D02*
G01*
X1118100Y-6009800D01*
X1165399Y-6009800D01*
X1165399Y-6053200D01*
G37*
G36*
X1118100Y-6116199D02*
G01*
X1118100Y-6072800D01*
X1165399Y-6072800D01*
X1165399Y-6116199D01*
G37*
G36*
X1984200Y-6053200D02*
G01*
X1984200Y-6009800D01*
X2031499Y-6009800D01*
X2031499Y-6053200D01*
G37*
G36*
X1984200Y-6116199D02*
G01*
X1984200Y-6072800D01*
X2031499Y-6072800D01*
X2031499Y-6116199D01*
G37*
G36*
X2850399Y-6053200D02*
G01*
X2850399Y-6009800D01*
X2897700Y-6009800D01*
X2897700Y-6053200D01*
G37*
G36*
X2850399Y-6116199D02*
G01*
X2850399Y-6072800D01*
X2897700Y-6072800D01*
X2897700Y-6116199D01*
G37*
G36*
X3165299Y-6053200D02*
G01*
X3165299Y-6009800D01*
X3212600Y-6009800D01*
X3212600Y-6053200D01*
G37*
G36*
X3165299Y-6116199D02*
G01*
X3165299Y-6072800D01*
X3212600Y-6072800D01*
X3212600Y-6116199D01*
G37*
G36*
X4582600Y-6053200D02*
G01*
X4582600Y-6009800D01*
X4630000Y-6009800D01*
X4630000Y-6053200D01*
G37*
G36*
X4582600Y-6116199D02*
G01*
X4582600Y-6072800D01*
X4630000Y-6072800D01*
X4630000Y-6116199D01*
G37*
G36*
X5448800Y-6053200D02*
G01*
X5448800Y-6009800D01*
X5496099Y-6009800D01*
X5496099Y-6053200D01*
G37*
G36*
X5448800Y-6116199D02*
G01*
X5448800Y-6072800D01*
X5496099Y-6072800D01*
X5496099Y-6116199D01*
G37*
G36*
X6314899Y-6053200D02*
G01*
X6314899Y-6009800D01*
X6362200Y-6009800D01*
X6362200Y-6053200D01*
G37*
G36*
X6314899Y-6116199D02*
G01*
X6314899Y-6072800D01*
X6362200Y-6072800D01*
X6362200Y-6116199D01*
G37*
G36*
X7181099Y-6053200D02*
G01*
X7181099Y-6009800D01*
X7228400Y-6009800D01*
X7228400Y-6053200D01*
G37*
G36*
X7181099Y-6116199D02*
G01*
X7181099Y-6072800D01*
X7228400Y-6072800D01*
X7228400Y-6116199D01*
G37*
G36*
X8047200Y-6053200D02*
G01*
X8047200Y-6009800D01*
X8094499Y-6009800D01*
X8094499Y-6053200D01*
G37*
G36*
X8047200Y-6116199D02*
G01*
X8047200Y-6072800D01*
X8094499Y-6072800D01*
X8094499Y-6116199D01*
G37*
G36*
X1118100Y-6982300D02*
G01*
X1118100Y-6938899D01*
X1165399Y-6938899D01*
X1165399Y-6982300D01*
G37*
G36*
X1118100Y-6919299D02*
G01*
X1118100Y-6875900D01*
X1165399Y-6875900D01*
X1165399Y-6919299D01*
G37*
G36*
X1984200Y-6982300D02*
G01*
X1984200Y-6938899D01*
X2031499Y-6938899D01*
X2031499Y-6982300D01*
G37*
G36*
X1984200Y-6919299D02*
G01*
X1984200Y-6875900D01*
X2031499Y-6875900D01*
X2031499Y-6919299D01*
G37*
G36*
X2850399Y-6982300D02*
G01*
X2850399Y-6938899D01*
X2897700Y-6938899D01*
X2897700Y-6982300D01*
G37*
G36*
X2850399Y-6919299D02*
G01*
X2850399Y-6875900D01*
X2897700Y-6875900D01*
X2897700Y-6919299D01*
G37*
G36*
X3165299Y-6982300D02*
G01*
X3165299Y-6938899D01*
X3212600Y-6938899D01*
X3212600Y-6982300D01*
G37*
G36*
X3165299Y-6919299D02*
G01*
X3165299Y-6875900D01*
X3212600Y-6875900D01*
X3212600Y-6919299D01*
G37*
G36*
X4582600Y-6982300D02*
G01*
X4582600Y-6938899D01*
X4630000Y-6938899D01*
X4630000Y-6982300D01*
G37*
G36*
X4582600Y-6919299D02*
G01*
X4582600Y-6875999D01*
X4630000Y-6875999D01*
X4630000Y-6919299D01*
G37*
G36*
X5448800Y-6982300D02*
G01*
X5448800Y-6938899D01*
X5496099Y-6938899D01*
X5496099Y-6982300D01*
G37*
G36*
X5448800Y-6919299D02*
G01*
X5448800Y-6875999D01*
X5496099Y-6875999D01*
X5496099Y-6919299D01*
G37*
G36*
X6314899Y-6982300D02*
G01*
X6314899Y-6938899D01*
X6362200Y-6938899D01*
X6362200Y-6982300D01*
G37*
G36*
X6314899Y-6919299D02*
G01*
X6314899Y-6875999D01*
X6362200Y-6875999D01*
X6362200Y-6919299D01*
G37*
G36*
X7181099Y-6982300D02*
G01*
X7181099Y-6938899D01*
X7228400Y-6938899D01*
X7228400Y-6982300D01*
G37*
G36*
X7181099Y-6919299D02*
G01*
X7181099Y-6875999D01*
X7228400Y-6875999D01*
X7228400Y-6919299D01*
G37*
G36*
X8047200Y-6982300D02*
G01*
X8047200Y-6938899D01*
X8094499Y-6938899D01*
X8094499Y-6982300D01*
G37*
G36*
X8047200Y-6919299D02*
G01*
X8047200Y-6875999D01*
X8094499Y-6875999D01*
X8094499Y-6919299D01*
G37*
G36*
X1118100Y-7785400D02*
G01*
X1118100Y-7742100D01*
X1165399Y-7742100D01*
X1165399Y-7785400D01*
G37*
G36*
X1118100Y-7848400D02*
G01*
X1118100Y-7805100D01*
X1165399Y-7805100D01*
X1165399Y-7848400D01*
G37*
G36*
X1984200Y-7785500D02*
G01*
X1984200Y-7742100D01*
X2031499Y-7742100D01*
X2031499Y-7785500D01*
G37*
G36*
X1984200Y-7848499D02*
G01*
X1984200Y-7805100D01*
X2031499Y-7805100D01*
X2031499Y-7848499D01*
G37*
G36*
X2850399Y-7785500D02*
G01*
X2850399Y-7742100D01*
X2897700Y-7742100D01*
X2897700Y-7785500D01*
G37*
G36*
X2850399Y-7848499D02*
G01*
X2850399Y-7805100D01*
X2897700Y-7805100D01*
X2897700Y-7848499D01*
G37*
G36*
X3165299Y-7785500D02*
G01*
X3165299Y-7742100D01*
X3212600Y-7742100D01*
X3212600Y-7785500D01*
G37*
G36*
X3165299Y-7848499D02*
G01*
X3165299Y-7805100D01*
X3212600Y-7805100D01*
X3212600Y-7848499D01*
G37*
G36*
X4582600Y-7785500D02*
G01*
X4582600Y-7742100D01*
X4630000Y-7742100D01*
X4630000Y-7785500D01*
G37*
G36*
X4582600Y-7848499D02*
G01*
X4582600Y-7805100D01*
X4630000Y-7805100D01*
X4630000Y-7848499D01*
G37*
G36*
X5448800Y-7785500D02*
G01*
X5448800Y-7742100D01*
X5496099Y-7742100D01*
X5496099Y-7785500D01*
G37*
G36*
X5448800Y-7848499D02*
G01*
X5448800Y-7805100D01*
X5496099Y-7805100D01*
X5496099Y-7848499D01*
G37*
G36*
X6314899Y-7785500D02*
G01*
X6314899Y-7742100D01*
X6362200Y-7742100D01*
X6362200Y-7785500D01*
G37*
G36*
X6314899Y-7848499D02*
G01*
X6314899Y-7805100D01*
X6362200Y-7805100D01*
X6362200Y-7848499D01*
G37*
G36*
X7181099Y-7785500D02*
G01*
X7181099Y-7742100D01*
X7228400Y-7742100D01*
X7228400Y-7785500D01*
G37*
G36*
X7181099Y-7848499D02*
G01*
X7181099Y-7805100D01*
X7228400Y-7805100D01*
X7228400Y-7848499D01*
G37*
G36*
X8047200Y-7785500D02*
G01*
X8047200Y-7742100D01*
X8094499Y-7742100D01*
X8094499Y-7785500D01*
G37*
G36*
X8047200Y-7848499D02*
G01*
X8047200Y-7805100D01*
X8094499Y-7805100D01*
X8094499Y-7848499D01*
G37*
G36*
X565199Y-1470799D02*
G01*
X565199Y-1427399D01*
X612500Y-1427399D01*
X612500Y-1470799D01*
G37*
G36*
X565199Y-1533800D02*
G01*
X565199Y-1490399D01*
X612500Y-1490399D01*
X612500Y-1533800D01*
G37*
G36*
X8165400Y-1478299D02*
G01*
X8165400Y-1435000D01*
X8212700Y-1435000D01*
X8212700Y-1478299D01*
G37*
G36*
X8165400Y-1541300D02*
G01*
X8165400Y-1498000D01*
X8212700Y-1498000D01*
X8212700Y-1541300D01*
G37*
G36*
X566900Y-3202800D02*
G01*
X566900Y-3159400D01*
X614200Y-3159400D01*
X614200Y-3202800D01*
G37*
G36*
X566900Y-3265799D02*
G01*
X566900Y-3222399D01*
X614200Y-3222399D01*
X614200Y-3265799D01*
G37*
G36*
X8169300Y-3214600D02*
G01*
X8169300Y-3171199D01*
X8216599Y-3171199D01*
X8216599Y-3214600D01*
G37*
G36*
X8169300Y-3277600D02*
G01*
X8169300Y-3234200D01*
X8216599Y-3234200D01*
X8216599Y-3277600D01*
G37*
G36*
X566900Y-4942900D02*
G01*
X566900Y-4899600D01*
X614200Y-4899600D01*
X614200Y-4942900D01*
G37*
G36*
X566900Y-5005900D02*
G01*
X566900Y-4962600D01*
X614200Y-4962600D01*
X614200Y-5005900D01*
G37*
G36*
X8181099Y-4950799D02*
G01*
X8181099Y-4907399D01*
X8228400Y-4907399D01*
X8228400Y-4950799D01*
G37*
G36*
X8181099Y-5013800D02*
G01*
X8181099Y-4970400D01*
X8228400Y-4970400D01*
X8228400Y-5013800D01*
G37*
G36*
X566900Y-6667399D02*
G01*
X566900Y-6624000D01*
X614200Y-6624000D01*
X614200Y-6667399D01*
G37*
G36*
X566900Y-6730400D02*
G01*
X566900Y-6686999D01*
X614200Y-6686999D01*
X614200Y-6730400D01*
G37*
G36*
X8188900Y-6675200D02*
G01*
X8188900Y-6631799D01*
X8236199Y-6631799D01*
X8236199Y-6675200D01*
G37*
G36*
X8188900Y-6738200D02*
G01*
X8188900Y-6694800D01*
X8236199Y-6694800D01*
X8236199Y-6738200D01*
G37*
G36*
X566900Y-7667399D02*
G01*
X566900Y-7624000D01*
X614200Y-7624000D01*
X614200Y-7667399D01*
G37*
G36*
X566900Y-7730400D02*
G01*
X566900Y-7686999D01*
X614200Y-7686999D01*
X614200Y-7730400D01*
G37*
G36*
X133400Y-4392700D02*
G01*
X133400Y-4370999D01*
X191799Y-4370999D01*
X191799Y-4392700D01*
G37*
G36*
X133400Y-4367100D02*
G01*
X133400Y-4345400D01*
X191799Y-4345400D01*
X191799Y-4367100D01*
G37*
G36*
X133400Y-4341599D02*
G01*
X133400Y-4319800D01*
X191700Y-4319800D01*
X191700Y-4341599D01*
G37*
G36*
X133400Y-4315999D02*
G01*
X133400Y-4294299D01*
X191799Y-4294299D01*
X191799Y-4315999D01*
G37*
G36*
X133400Y-4290400D02*
G01*
X133400Y-4268699D01*
X191799Y-4268699D01*
X191799Y-4290400D01*
G37*
G36*
X105100Y-4458699D02*
G01*
X105100Y-4396599D01*
X191799Y-4396599D01*
X191799Y-4458699D01*
G37*
G36*
X105100Y-4264800D02*
G01*
X105100Y-4202700D01*
X191799Y-4202700D01*
X191799Y-4264800D01*
G37*
G36*
X18499Y-4494000D02*
G01*
X18499Y-4396500D01*
X97300Y-4396500D01*
X97300Y-4494000D01*
G37*
G36*
X18499Y-4264899D02*
G01*
X18499Y-4167399D01*
X97300Y-4167399D01*
X97300Y-4264899D01*
G37*
G36*
X18499Y-4388899D02*
G01*
X18499Y-4338600D01*
X97300Y-4338600D01*
X97300Y-4388899D01*
G37*
G36*
X18499Y-4322800D02*
G01*
X18499Y-4272500D01*
X97300Y-4272500D01*
X97300Y-4322800D01*
G37*
G36*
X571799Y-1375999D02*
G01*
X571799Y-1344499D01*
X625000Y-1344499D01*
X625000Y-1375999D01*
G37*
G36*
X571799Y-1301199D02*
G01*
X571799Y-1269699D01*
X625000Y-1269699D01*
X625000Y-1301199D01*
G37*
G36*
X650599Y-1338600D02*
G01*
X650599Y-1307100D01*
X703800Y-1307100D01*
X703800Y-1338600D01*
G37*
G36*
X8154499Y-1309099D02*
G01*
X8154499Y-1277500D01*
X8207700Y-1277500D01*
X8207700Y-1309099D01*
G37*
G36*
X8154499Y-1383899D02*
G01*
X8154499Y-1352300D01*
X8207700Y-1352300D01*
X8207700Y-1383899D01*
G37*
G36*
X8075799Y-1346500D02*
G01*
X8075799Y-1314899D01*
X8128999Y-1314899D01*
X8128999Y-1346500D01*
G37*
G36*
X571799Y-3108299D02*
G01*
X571799Y-3076700D01*
X625000Y-3076700D01*
X625000Y-3108299D01*
G37*
G36*
X571799Y-3033499D02*
G01*
X571799Y-3001900D01*
X625000Y-3001900D01*
X625000Y-3033499D01*
G37*
G36*
X650599Y-3070900D02*
G01*
X650599Y-3039299D01*
X703800Y-3039299D01*
X703800Y-3070900D01*
G37*
G36*
X8154499Y-3041399D02*
G01*
X8154499Y-3009800D01*
X8207700Y-3009800D01*
X8207700Y-3041399D01*
G37*
G36*
X8154499Y-3116199D02*
G01*
X8154499Y-3084600D01*
X8207700Y-3084600D01*
X8207700Y-3116199D01*
G37*
G36*
X8075699Y-3078800D02*
G01*
X8075699Y-3047199D01*
X8128999Y-3047199D01*
X8128999Y-3078800D01*
G37*
G36*
X571799Y-4840599D02*
G01*
X571799Y-4809000D01*
X625000Y-4809000D01*
X625000Y-4840599D01*
G37*
G36*
X571799Y-4765799D02*
G01*
X571799Y-4734200D01*
X625000Y-4734200D01*
X625000Y-4765799D01*
G37*
G36*
X650599Y-4803200D02*
G01*
X650599Y-4771599D01*
X703800Y-4771599D01*
X703800Y-4803200D01*
G37*
G36*
X8154499Y-4773600D02*
G01*
X8154499Y-4742100D01*
X8207700Y-4742100D01*
X8207700Y-4773600D01*
G37*
G36*
X8154499Y-4848400D02*
G01*
X8154499Y-4816900D01*
X8207700Y-4816900D01*
X8207700Y-4848400D01*
G37*
G36*
X8075699Y-4810999D02*
G01*
X8075699Y-4779499D01*
X8128999Y-4779499D01*
X8128999Y-4810999D01*
G37*
G36*
X571799Y-6572900D02*
G01*
X571799Y-6541300D01*
X625000Y-6541300D01*
X625000Y-6572900D01*
G37*
G36*
X571799Y-6498099D02*
G01*
X571799Y-6466500D01*
X625000Y-6466500D01*
X625000Y-6498099D01*
G37*
G36*
X650599Y-6535500D02*
G01*
X650599Y-6503899D01*
X703800Y-6503899D01*
X703800Y-6535500D01*
G37*
G36*
X8154499Y-6505900D02*
G01*
X8154499Y-6474400D01*
X8207700Y-6474400D01*
X8207700Y-6505900D01*
G37*
G36*
X8154499Y-6580700D02*
G01*
X8154499Y-6549200D01*
X8207700Y-6549200D01*
X8207700Y-6580700D01*
G37*
G36*
X8075699Y-6543299D02*
G01*
X8075699Y-6511799D01*
X8128999Y-6511799D01*
X8128999Y-6543299D01*
G37*
G36*
X571799Y-7572900D02*
G01*
X571799Y-7541300D01*
X625000Y-7541300D01*
X625000Y-7572900D01*
G37*
G36*
X571799Y-7498099D02*
G01*
X571799Y-7466500D01*
X625000Y-7466500D01*
X625000Y-7498099D01*
G37*
G36*
X650599Y-7535500D02*
G01*
X650599Y-7503899D01*
X703800Y-7503899D01*
X703800Y-7535500D01*
G37*
G36*
X2283400Y-7785500D02*
G01*
X2283400Y-7742100D01*
X2330699Y-7742100D01*
X2330699Y-7785500D01*
G37*
G36*
X2283400Y-7848499D02*
G01*
X2283400Y-7805100D01*
X2330699Y-7805100D01*
X2330699Y-7848499D01*
G37*
D46*
G01*
X811030Y-7746070D03*
G01*
X921270Y-7746070D03*
G01*
X811030Y-7844490D03*
G01*
X921270Y-7844490D03*
G01*
X1677169Y-7746070D03*
G01*
X1787409Y-7746070D03*
G01*
X1677169Y-7844490D03*
G01*
X1787409Y-7844490D03*
G01*
X2543320Y-7746070D03*
G01*
X2653559Y-7746070D03*
G01*
X2543320Y-7844490D03*
G01*
X2653559Y-7844490D03*
G01*
X3409449Y-7746070D03*
G01*
X3519690Y-7746070D03*
G01*
X3409449Y-7844490D03*
G01*
X3519690Y-7844490D03*
G01*
X4275600Y-7746070D03*
G01*
X4385839Y-7746070D03*
G01*
X4275600Y-7844490D03*
G01*
X4385839Y-7844490D03*
G01*
X5141729Y-7746070D03*
G01*
X5251970Y-7746070D03*
G01*
X5141729Y-7844490D03*
G01*
X5251970Y-7844490D03*
G01*
X6007879Y-7746070D03*
G01*
X6118119Y-7746070D03*
G01*
X6007879Y-7844490D03*
G01*
X6118119Y-7844490D03*
G01*
X6874020Y-7746070D03*
G01*
X6984260Y-7746070D03*
G01*
X6874020Y-7844490D03*
G01*
X6984260Y-7844490D03*
G01*
X7740159Y-7746070D03*
G01*
X7850400Y-7746070D03*
G01*
X7740159Y-7844490D03*
G01*
X7850400Y-7844490D03*
G01*
X933069Y-655509D03*
G01*
X799210Y-655509D03*
G01*
X1799210Y-655509D03*
G01*
X1665349Y-655509D03*
G01*
X2665360Y-655509D03*
G01*
X2531499Y-655509D03*
G01*
X3531499Y-655509D03*
G01*
X3397640Y-655509D03*
G01*
X4397640Y-655509D03*
G01*
X4263779Y-655509D03*
G01*
X5263779Y-655509D03*
G01*
X5129920Y-655509D03*
G01*
X6129920Y-655509D03*
G01*
X5996059Y-655509D03*
G01*
X6996059Y-655509D03*
G01*
X6862200Y-655509D03*
G01*
X7862209Y-655509D03*
G01*
X7728350Y-655509D03*
G01*
X933069Y-1521649D03*
G01*
X799210Y-1521649D03*
G01*
X1799200Y-1521680D03*
G01*
X1665339Y-1521680D03*
G01*
X2665330Y-1521680D03*
G01*
X2531469Y-1521680D03*
G01*
X3531499Y-1521680D03*
G01*
X3397640Y-1521680D03*
G01*
X4397629Y-1521680D03*
G01*
X4263770Y-1521680D03*
G01*
X5263770Y-1521680D03*
G01*
X5129910Y-1521680D03*
G01*
X6129899Y-1521680D03*
G01*
X5996040Y-1521680D03*
G01*
X6996030Y-1521680D03*
G01*
X6862169Y-1521680D03*
G01*
X7862200Y-1521680D03*
G01*
X7728339Y-1521680D03*
G01*
X933059Y-2387800D03*
G01*
X799200Y-2387800D03*
G01*
X1799200Y-2387809D03*
G01*
X1665339Y-2387809D03*
G01*
X2665330Y-2387809D03*
G01*
X2531469Y-2387809D03*
G01*
X3531499Y-2387809D03*
G01*
X3397640Y-2387809D03*
G01*
X4397629Y-2387809D03*
G01*
X4263770Y-2387809D03*
G01*
X5263770Y-2387809D03*
G01*
X5129910Y-2387809D03*
G01*
X6129899Y-2387809D03*
G01*
X5996040Y-2387809D03*
G01*
X6996030Y-2387809D03*
G01*
X6862169Y-2387809D03*
G01*
X7862200Y-2387809D03*
G01*
X7728339Y-2387809D03*
G01*
X933059Y-3253939D03*
G01*
X799200Y-3253939D03*
G01*
X1799200Y-3253950D03*
G01*
X1665339Y-3253950D03*
G01*
X2665330Y-3253950D03*
G01*
X2531469Y-3253950D03*
G01*
X3531499Y-3253950D03*
G01*
X3397640Y-3253950D03*
G01*
X4397629Y-3253950D03*
G01*
X4263770Y-3253950D03*
G01*
X5263770Y-3253950D03*
G01*
X5129910Y-3253950D03*
G01*
X6129899Y-3253950D03*
G01*
X5996040Y-3253950D03*
G01*
X6996030Y-3253950D03*
G01*
X6862169Y-3253950D03*
G01*
X7862200Y-3253950D03*
G01*
X7728339Y-3253950D03*
G01*
X933059Y-4120079D03*
G01*
X799200Y-4120079D03*
G01*
X1799200Y-4120079D03*
G01*
X1665339Y-4120079D03*
G01*
X2665330Y-4120079D03*
G01*
X2531469Y-4120079D03*
G01*
X3531499Y-4120079D03*
G01*
X3397640Y-4120079D03*
G01*
X4397629Y-4120079D03*
G01*
X4263770Y-4120079D03*
G01*
X5263770Y-4120079D03*
G01*
X5129910Y-4120079D03*
G01*
X6129899Y-4120079D03*
G01*
X5996040Y-4120079D03*
G01*
X6996030Y-4120079D03*
G01*
X6862169Y-4120079D03*
G01*
X7862200Y-4120079D03*
G01*
X7728339Y-4120079D03*
G01*
X933059Y-4986219D03*
G01*
X799200Y-4986219D03*
G01*
X1799200Y-4986250D03*
G01*
X1665339Y-4986250D03*
G01*
X2665330Y-4986250D03*
G01*
X2531469Y-4986250D03*
G01*
X3531499Y-4986250D03*
G01*
X3397640Y-4986250D03*
G01*
X4397629Y-4986250D03*
G01*
X4263770Y-4986250D03*
G01*
X5263770Y-4986250D03*
G01*
X5129910Y-4986250D03*
G01*
X6129899Y-4986250D03*
G01*
X5996040Y-4986250D03*
G01*
X6996030Y-4986250D03*
G01*
X6862169Y-4986250D03*
G01*
X7862200Y-4986250D03*
G01*
X7728339Y-4986250D03*
G01*
X933059Y-5852359D03*
G01*
X799200Y-5852359D03*
G01*
X1799200Y-5852379D03*
G01*
X1665339Y-5852379D03*
G01*
X2665330Y-5852379D03*
G01*
X2531469Y-5852379D03*
G01*
X3531499Y-5852379D03*
G01*
X3397640Y-5852379D03*
G01*
X4397629Y-5852379D03*
G01*
X4263770Y-5852379D03*
G01*
X5263770Y-5852379D03*
G01*
X5129910Y-5852379D03*
G01*
X6129899Y-5852379D03*
G01*
X5996040Y-5852379D03*
G01*
X6996030Y-5852379D03*
G01*
X6862169Y-5852379D03*
G01*
X7862200Y-5852379D03*
G01*
X7728339Y-5852379D03*
G01*
X933059Y-6718499D03*
G01*
X799200Y-6718499D03*
G01*
X1799200Y-6718519D03*
G01*
X1665339Y-6718519D03*
G01*
X2665330Y-6718519D03*
G01*
X2531469Y-6718519D03*
G01*
X3531499Y-6718519D03*
G01*
X3397640Y-6718519D03*
G01*
X4397629Y-6718519D03*
G01*
X4263770Y-6718519D03*
G01*
X5263770Y-6718519D03*
G01*
X5129910Y-6718519D03*
G01*
X6129899Y-6718519D03*
G01*
X5996040Y-6718519D03*
G01*
X6996030Y-6718519D03*
G01*
X6862169Y-6718519D03*
G01*
X7862200Y-6718519D03*
G01*
X7728339Y-6718519D03*
G01*
X933059Y-7584650D03*
G01*
X799200Y-7584650D03*
G01*
X1799200Y-7584650D03*
G01*
X1665339Y-7584650D03*
G01*
X2665330Y-7584650D03*
G01*
X2531469Y-7584650D03*
G01*
X3531499Y-7584650D03*
G01*
X3397640Y-7584650D03*
G01*
X4397629Y-7584650D03*
G01*
X4263770Y-7584650D03*
G01*
X5263770Y-7584650D03*
G01*
X5129910Y-7584650D03*
G01*
X6129899Y-7584650D03*
G01*
X5996040Y-7584650D03*
G01*
X6996030Y-7584650D03*
G01*
X6862169Y-7584650D03*
G01*
X7862200Y-7584650D03*
G01*
X7728339Y-7584650D03*
G01*
X811019Y-816930D03*
G01*
X921260Y-816930D03*
G01*
X811019Y-915349D03*
G01*
X921260Y-915349D03*
G01*
X1677169Y-816930D03*
G01*
X1787409Y-816930D03*
G01*
X1677169Y-915349D03*
G01*
X1787409Y-915349D03*
G01*
X2543310Y-816939D03*
G01*
X2653549Y-816939D03*
G01*
X2543310Y-915360D03*
G01*
X2653549Y-915360D03*
G01*
X3409449Y-816939D03*
G01*
X3519690Y-816939D03*
G01*
X3409449Y-915360D03*
G01*
X3519690Y-915360D03*
G01*
X4275590Y-816939D03*
G01*
X4385829Y-816939D03*
G01*
X4275590Y-915360D03*
G01*
X4385829Y-915360D03*
G01*
X5141729Y-816939D03*
G01*
X5251970Y-816939D03*
G01*
X5141729Y-915360D03*
G01*
X5251970Y-915360D03*
G01*
X6007870Y-816939D03*
G01*
X6118109Y-816939D03*
G01*
X6007870Y-915360D03*
G01*
X6118109Y-915360D03*
G01*
X6874020Y-816939D03*
G01*
X6984260Y-816939D03*
G01*
X6874020Y-915360D03*
G01*
X6984260Y-915360D03*
G01*
X7740159Y-816939D03*
G01*
X7850400Y-816939D03*
G01*
X7740159Y-915360D03*
G01*
X7850400Y-915360D03*
G01*
X811019Y-1683080D03*
G01*
X921260Y-1683080D03*
G01*
X811019Y-1781500D03*
G01*
X921260Y-1781500D03*
G01*
X1677169Y-1683080D03*
G01*
X1787409Y-1683080D03*
G01*
X1677169Y-1781500D03*
G01*
X1787409Y-1781500D03*
G01*
X2543310Y-1683080D03*
G01*
X2653549Y-1683080D03*
G01*
X2543310Y-1781500D03*
G01*
X2653549Y-1781500D03*
G01*
X3409449Y-1683080D03*
G01*
X3519690Y-1683080D03*
G01*
X3409449Y-1781500D03*
G01*
X3519690Y-1781500D03*
G01*
X4275600Y-1683080D03*
G01*
X4385839Y-1683080D03*
G01*
X4275600Y-1781500D03*
G01*
X4385839Y-1781500D03*
G01*
X5141729Y-1683080D03*
G01*
X5251970Y-1683080D03*
G01*
X5141729Y-1781500D03*
G01*
X5251970Y-1781500D03*
G01*
X6007879Y-1683080D03*
G01*
X6118119Y-1683080D03*
G01*
X6007879Y-1781500D03*
G01*
X6118119Y-1781500D03*
G01*
X6874020Y-1683080D03*
G01*
X6984260Y-1683080D03*
G01*
X6874020Y-1781500D03*
G01*
X6984260Y-1781500D03*
G01*
X7740159Y-1683080D03*
G01*
X7850400Y-1683080D03*
G01*
X7740159Y-1781500D03*
G01*
X7850400Y-1781500D03*
G01*
X811030Y-4281500D03*
G01*
X921270Y-4281500D03*
G01*
X811030Y-4379920D03*
G01*
X921270Y-4379920D03*
G01*
X1677169Y-4281500D03*
G01*
X1787409Y-4281500D03*
G01*
X1677169Y-4379920D03*
G01*
X1787409Y-4379920D03*
G01*
X2543320Y-4281500D03*
G01*
X2653559Y-4281500D03*
G01*
X2543320Y-4379920D03*
G01*
X2653559Y-4379920D03*
G01*
X3409449Y-4281500D03*
G01*
X3519690Y-4281500D03*
G01*
X3409449Y-4379920D03*
G01*
X3519690Y-4379920D03*
G01*
X4275600Y-4281500D03*
G01*
X4385839Y-4281500D03*
G01*
X4275600Y-4379920D03*
G01*
X4385839Y-4379920D03*
G01*
X5141729Y-4281500D03*
G01*
X5251970Y-4281500D03*
G01*
X5141729Y-4379920D03*
G01*
X5251970Y-4379920D03*
G01*
X6007879Y-4281500D03*
G01*
X6118119Y-4281500D03*
G01*
X6007879Y-4379920D03*
G01*
X6118119Y-4379920D03*
G01*
X6874020Y-4281500D03*
G01*
X6984260Y-4281500D03*
G01*
X6874020Y-4379920D03*
G01*
X6984260Y-4379920D03*
G01*
X7740159Y-4281500D03*
G01*
X7850400Y-4281500D03*
G01*
X7740159Y-4379920D03*
G01*
X7850400Y-4379920D03*
G01*
X811030Y-5147640D03*
G01*
X921270Y-5147640D03*
G01*
X811030Y-5246060D03*
G01*
X921270Y-5246060D03*
G01*
X1677169Y-5147640D03*
G01*
X1787409Y-5147640D03*
G01*
X1677169Y-5246060D03*
G01*
X1787409Y-5246060D03*
G01*
X2543320Y-5147640D03*
G01*
X2653559Y-5147640D03*
G01*
X2543320Y-5246060D03*
G01*
X2653559Y-5246060D03*
G01*
X3409449Y-5147640D03*
G01*
X3519690Y-5147640D03*
G01*
X3409449Y-5246060D03*
G01*
X3519690Y-5246060D03*
G01*
X4275600Y-5147640D03*
G01*
X4385839Y-5147640D03*
G01*
X4275600Y-5246060D03*
G01*
X4385839Y-5246060D03*
G01*
X5141729Y-5147640D03*
G01*
X5251970Y-5147640D03*
G01*
X5141729Y-5246060D03*
G01*
X5251970Y-5246060D03*
G01*
X6007879Y-5147640D03*
G01*
X6118119Y-5147640D03*
G01*
X6007879Y-5246060D03*
G01*
X6118119Y-5246060D03*
G01*
X6874020Y-5147640D03*
G01*
X6984260Y-5147640D03*
G01*
X6874020Y-5246060D03*
G01*
X6984260Y-5246060D03*
G01*
X7740159Y-5147640D03*
G01*
X7850400Y-5147640D03*
G01*
X7740159Y-5246060D03*
G01*
X7850400Y-5246060D03*
G01*
X811030Y-2549220D03*
G01*
X921270Y-2549220D03*
G01*
X811030Y-2647640D03*
G01*
X921270Y-2647640D03*
G01*
X1677169Y-2549220D03*
G01*
X1787409Y-2549220D03*
G01*
X1677169Y-2647640D03*
G01*
X1787409Y-2647640D03*
G01*
X2543320Y-2549220D03*
G01*
X2653559Y-2549220D03*
G01*
X2543320Y-2647640D03*
G01*
X2653559Y-2647640D03*
G01*
X3409449Y-2549220D03*
G01*
X3519690Y-2549220D03*
G01*
X3409449Y-2647640D03*
G01*
X3519690Y-2647640D03*
G01*
X4275600Y-2549220D03*
G01*
X4385839Y-2549220D03*
G01*
X4275600Y-2647640D03*
G01*
X4385839Y-2647640D03*
G01*
X5141729Y-2549220D03*
G01*
X5251970Y-2549220D03*
G01*
X5141729Y-2647640D03*
G01*
X5251970Y-2647640D03*
G01*
X6007879Y-2549220D03*
G01*
X6118119Y-2549220D03*
G01*
X6007879Y-2647640D03*
G01*
X6118119Y-2647640D03*
G01*
X6874020Y-2549220D03*
G01*
X6984260Y-2549220D03*
G01*
X6874020Y-2647640D03*
G01*
X6984260Y-2647640D03*
G01*
X7740159Y-2549220D03*
G01*
X7850400Y-2549220D03*
G01*
X7740159Y-2647640D03*
G01*
X7850400Y-2647640D03*
G01*
X811019Y-3415360D03*
G01*
X921260Y-3415360D03*
G01*
X811019Y-3513780D03*
G01*
X921260Y-3513780D03*
G01*
X1677169Y-3415360D03*
G01*
X1787409Y-3415360D03*
G01*
X1677169Y-3513780D03*
G01*
X1787409Y-3513780D03*
G01*
X2543320Y-3415360D03*
G01*
X2653559Y-3415360D03*
G01*
X2543320Y-3513780D03*
G01*
X2653559Y-3513780D03*
G01*
X3409449Y-3415360D03*
G01*
X3519690Y-3415360D03*
G01*
X3409449Y-3513780D03*
G01*
X3519690Y-3513780D03*
G01*
X4275600Y-3415360D03*
G01*
X4385839Y-3415360D03*
G01*
X4275600Y-3513780D03*
G01*
X4385839Y-3513780D03*
G01*
X5141729Y-3415360D03*
G01*
X5251970Y-3415360D03*
G01*
X5141729Y-3513780D03*
G01*
X5251970Y-3513780D03*
G01*
X6007879Y-3415360D03*
G01*
X6118119Y-3415360D03*
G01*
X6007879Y-3513780D03*
G01*
X6118119Y-3513780D03*
G01*
X6874020Y-3415360D03*
G01*
X6984260Y-3415360D03*
G01*
X6874020Y-3513780D03*
G01*
X6984260Y-3513780D03*
G01*
X7740159Y-3415360D03*
G01*
X7850400Y-3415360D03*
G01*
X7740159Y-3513780D03*
G01*
X7850400Y-3513780D03*
G01*
X811030Y-6013780D03*
G01*
X921270Y-6013780D03*
G01*
X811030Y-6112199D03*
G01*
X921270Y-6112199D03*
G01*
X1677169Y-6013789D03*
G01*
X1787409Y-6013789D03*
G01*
X1677169Y-6112210D03*
G01*
X1787409Y-6112210D03*
G01*
X2543320Y-6013789D03*
G01*
X2653559Y-6013789D03*
G01*
X2543320Y-6112210D03*
G01*
X2653559Y-6112210D03*
G01*
X3409449Y-6013789D03*
G01*
X3519690Y-6013789D03*
G01*
X3409449Y-6112210D03*
G01*
X3519690Y-6112210D03*
G01*
X4275600Y-6013789D03*
G01*
X4385839Y-6013789D03*
G01*
X4275600Y-6112210D03*
G01*
X4385839Y-6112210D03*
G01*
X5141729Y-6013789D03*
G01*
X5251970Y-6013789D03*
G01*
X5141729Y-6112210D03*
G01*
X5251970Y-6112210D03*
G01*
X6007879Y-6013789D03*
G01*
X6118119Y-6013789D03*
G01*
X6007879Y-6112210D03*
G01*
X6118119Y-6112210D03*
G01*
X6874020Y-6013789D03*
G01*
X6984260Y-6013789D03*
G01*
X6874020Y-6112210D03*
G01*
X6984260Y-6112210D03*
G01*
X7740159Y-6013789D03*
G01*
X7850400Y-6013789D03*
G01*
X7740159Y-6112210D03*
G01*
X7850400Y-6112210D03*
G01*
X811030Y-6879929D03*
G01*
X921270Y-6879929D03*
G01*
X811030Y-6978350D03*
G01*
X921270Y-6978350D03*
G01*
X1677169Y-6879929D03*
G01*
X1787409Y-6879929D03*
G01*
X1677169Y-6978350D03*
G01*
X1787409Y-6978350D03*
G01*
X2543320Y-6879929D03*
G01*
X2653559Y-6879929D03*
G01*
X2543320Y-6978350D03*
G01*
X2653559Y-6978350D03*
G01*
X3409449Y-6879929D03*
G01*
X3519690Y-6879929D03*
G01*
X3409449Y-6978350D03*
G01*
X3519690Y-6978350D03*
G01*
X4275600Y-6879929D03*
G01*
X4385839Y-6879929D03*
G01*
X4275600Y-6978350D03*
G01*
X4385839Y-6978350D03*
G01*
X5141729Y-6879929D03*
G01*
X5251970Y-6879929D03*
G01*
X5141729Y-6978350D03*
G01*
X5251970Y-6978350D03*
G01*
X6007879Y-6879929D03*
G01*
X6118119Y-6879929D03*
G01*
X6007879Y-6978350D03*
G01*
X6118119Y-6978350D03*
G01*
X6874020Y-6879929D03*
G01*
X6984260Y-6879929D03*
G01*
X6874020Y-6978350D03*
G01*
X6984260Y-6978350D03*
G01*
X7740159Y-6879929D03*
G01*
X7850400Y-6879929D03*
G01*
X7740159Y-6978350D03*
G01*
X7850400Y-6978350D03*
M02*
